<?xml version="1.0" encoding="UTF-8" standalone="no"?>
<svg
   xmlns:dc="http://purl.org/dc/elements/1.1/"
   xmlns:cc="http://creativecommons.org/ns#"
   xmlns:rdf="http://www.w3.org/1999/02/22-rdf-syntax-ns#"
   xmlns:svg="http://www.w3.org/2000/svg"
   xmlns="http://www.w3.org/2000/svg"
   xmlns:sodipodi="http://sodipodi.sourceforge.net/DTD/sodipodi-0.dtd"
   xmlns:inkscape="http://www.inkscape.org/namespaces/inkscape"
   width="744.094488189"
   height="1052.36220472"
   id="svg6006"
   version="1.1"
   inkscape:version="0.48.4 r9939"
   sodipodi:docname="dogstar.svg">
  <metadata
     id="metadata6072">
    <rdf:RDF>
      <cc:Work
         rdf:about="">
        <dc:format>image/svg+xml</dc:format>
        <dc:type
           rdf:resource="http://purl.org/dc/dcmitype/StillImage" />
      </cc:Work>
    </rdf:RDF>
  </metadata>
  <sodipodi:namedview
     pagecolor="#ffffff"
     bordercolor="#666666"
     borderopacity="1"
     objecttolerance="10"
     gridtolerance="10"
     guidetolerance="10"
     inkscape:pageopacity="0"
     inkscape:pageshadow="2"
     inkscape:window-width="2560"
     inkscape:window-height="1402"
     id="namedview6070"
     showgrid="false"
     inkscape:zoom="3.88"
     inkscape:cx="84.252787"
     inkscape:cy="146.32085"
     inkscape:window-x="0"
     inkscape:window-y="37"
     inkscape:window-maximized="0"
     inkscape:current-layer="g6028" />
  <desc
     id="desc6008">/home/jfbrown/cad/dxf/dogstar.dxf - scale = 1.000000</desc>
  <defs
     id="defs6010">
    <marker
       id="DistanceX"
       orient="auto"
       refX="0.0"
       refY="0.0"
       style="overflow:visible">
      <path
         d="M 3,-3 L -3,3 M 0,-5 L  0,5"
         style="stroke:#000000; stroke-width:0.5"
         id="path6013" />
    </marker>
    <pattern
       height="8"
       id="Hatch"
       patternUnits="userSpaceOnUse"
       width="8"
       x="0"
       y="0">
      <path
         d="M8 4 l-4,4"
         linecap="square"
         stroke="#000000"
         stroke-width="0.25"
         id="path6016" />
      <path
         d="M6 2 l-4,4"
         linecap="square"
         stroke="#000000"
         stroke-width="0.25"
         id="path6018" />
      <path
         d="M4 0 l-4,4"
         linecap="square"
         stroke="#000000"
         stroke-width="0.25"
         id="path6020" />
    </pattern>
    <symbol
       id="*MODEL_SPACE" />
    <symbol
       id="*PAPER_SPACE" />
  </defs>
  <g
     inkscape:groupmode="layer"
     inkscape:label="0"
     id="g6024" />
  <g
     inkscape:groupmode="layer"
     inkscape:label="Layer_1"
     id="g6026" />
  <g
     inkscape:groupmode="layer"
     inkscape:label="Layer"
     id="g6028">
    <path
       style="font-size:medium;font-style:normal;font-variant:normal;font-weight:normal;font-stretch:normal;text-indent:0;text-align:start;text-decoration:none;line-height:normal;letter-spacing:normal;word-spacing:normal;text-transform:none;direction:ltr;block-progression:tb;writing-mode:lr-tb;text-anchor:start;baseline-shift:baseline;color:#000000;fill:#0000ff;fill-opacity:1;stroke:none;stroke-width:0.21233279;marker:none;visibility:visible;display:inline;overflow:visible;enable-background:accumulate;font-family:Sans;-inkscape-font-specification:Sans"
       d="m 109.84375,910.96875 c -1.38954,0.12995 -2.25817,0.33837 -2.28125,0.34375 -3.1e-4,7e-5 -0.0312,0 -0.0312,0 l -5.5,0.3125 -0.0312,0.0312 -0.0312,0 -3.4375,2.53125 -4.25,0.625 -0.03125,0 -2.8125,-0.71875 -0.03125,0 -2.65625,-1.78125 -0.0625,-0.0312 -0.0625,0.0312 -4.8125,3.0625 -0.03125,0 -6.9375,2.09375 -0.15625,0.0625 0.09375,0.0937 2.75,3.625 -7.78125,-5.625 -0.03125,-0.0312 -0.03125,0 -11,0.0625 -0.03125,0 -3.5,-2.21875 -0.03125,0 -0.03125,0 -5.46875,1.25 -6.1875,3.15625 -0.03125,0 -10.90625,1.5 -10.59375,0.90625 0,0.21875 10.625,-0.90625 10.9375,-1.5 0.03125,-0.0312 6.1875,-3.15625 0.03125,0 5.40625,-1.21875 3.46875,2.1875 0.03125,0 0.03125,0 11,-0.0312 0.03125,0 8.25,5.96875 0.03125,0.0312 0.0625,-0.0937 0.0625,-0.0625 -3.03125,-4.03125 6.8125,-2.0625 0.03125,0 4.78125,-3.03125 2.625,1.75 0.03125,0 2.875,0.75 0.03125,0 0.03125,0 4.34375,-0.625 0.03125,-0.0312 3.46875,-2.53125 5.4375,-0.3125 0.0312,0 c 0,0 3.49917,-0.82319 7.625,-0.21875 l 0.0312,-0.21875 c -2.08514,-0.30548 -3.99809,-0.25669 -5.40625,-0.125 z m 37.5625,9.84375 -0.15625,0.125 17,17.9375 0.0312,0.0312 0.0312,0 16.09375,2.34375 17.8125,2.5 0.0312,0 13.125,4.625 13.40625,3.3125 0.0312,0 11.28125,0.34375 0.0312,0 15.53125,8.0625 0.0312,0 8.34375,2.09375 0.0312,-0.21875 -8.3125,-2.0625 -0.0312,0 -15.53125,-8.0625 -0.0312,0 0,-0.0312 -11.3125,-0.34375 -0.0312,0 -13.375,-3.3125 -13.15625,-4.59375 -17.84375,-2.53125 -16.0625,-2.34375 -16.96875,-17.875 z"
       id="path6030"
       inkscape:connector-curvature="0" />
    <path
       style="font-size:medium;font-style:normal;font-variant:normal;font-weight:normal;font-stretch:normal;text-indent:0;text-align:start;text-decoration:none;line-height:normal;letter-spacing:normal;word-spacing:normal;text-transform:none;direction:ltr;block-progression:tb;writing-mode:lr-tb;text-anchor:start;baseline-shift:baseline;color:#000000;fill:#0000ff;fill-opacity:1;stroke:none;stroke-width:0.21233279;marker:none;visibility:visible;display:inline;overflow:visible;enable-background:accumulate;font-family:Sans;-inkscape-font-specification:Sans"
       d="M 102.625 885.8125 C 102.625 885.8125 96.319278 885.92961 93.46875 886.1875 C 92.052833 886.31557 90.596258 886.36931 89.34375 886.34375 C 88.091242 886.31819 87.04869 886.21229 86.4375 886 L 86.40625 886.09375 L 86.3125 886 L 57.1875 912.6875 L 57.34375 912.84375 L 86.40625 886.21875 C 87.06981 886.43482 88.118064 886.53749 89.34375 886.5625 C 90.606523 886.5883 92.077197 886.5037 93.5 886.375 C 96.30162 886.12153 102.45184 886.03281 102.5625 886.03125 C 102.61015 886.08176 106.40692 890.10761 110.5 894.28125 C 112.55941 896.38119 114.68131 898.51865 116.4375 900.1875 C 117.31559 901.02193 118.11308 901.73877 118.75 902.28125 C 119.38692 902.82373 119.84698 903.1762 120.15625 903.3125 L 120.25 903.125 C 119.99835 903.01409 119.50696 902.66325 118.875 902.125 C 118.24304 901.58675 117.4702 900.86411 116.59375 900.03125 C 114.84086 898.36553 112.7147 896.22396 110.65625 894.125 C 106.53935 889.92708 102.6875 885.875 102.6875 885.875 L 102.625 885.9375 L 102.625 885.8125 z "
       id="path6032" />
    <path
       style="font-size:medium;font-style:normal;font-variant:normal;font-weight:normal;font-stretch:normal;text-indent:0;text-align:start;text-decoration:none;line-height:normal;letter-spacing:normal;word-spacing:normal;text-transform:none;direction:ltr;block-progression:tb;writing-mode:lr-tb;text-anchor:start;baseline-shift:baseline;color:#000000;fill:#0000ff;fill-opacity:1;stroke:none;stroke-width:0.21233279;marker:none;visibility:visible;display:inline;overflow:visible;enable-background:accumulate;font-family:Sans;-inkscape-font-specification:Sans"
       d="m 190.34375,819.96875 -5.15625,9.6875 -14.40625,-0.15625 -0.3125,0 0.25,0.1875 0.0625,0.0312 10.875,8.59375 -3.875,11.5 -0.0312,0.0625 -0.0937,0.28125 0.25,-0.1875 0.0312,-0.0312 10.59375,-7.28125 10.4375,9.46875 0.0312,0.0312 0.25,0.25 -0.0625,-0.34375 -0.0312,-0.0625 -2.8125,-13.375 11.75,-6.5625 0.3125,-0.1875 -0.34375,0 -0.0625,0 -13.5625,-0.96875 -3.90625,-10.9375 -0.0937,0.0312 -0.0937,-0.0312 z m 0.0625,0.3125 3.84375,10.78125 0.0312,0.0625 0.0625,0 13.375,0.90625 -11.53125,6.4375 -0.0625,0.0625 0.0312,0.0625 2.75,13.15625 -10.28125,-9.3125 -0.0625,-0.0625 -0.0625,0.0312 -10.46875,7.21875 3.84375,-11.34375 0.0312,-0.0625 -0.0625,-0.0312 -10.75,-8.46875 14.15625,0.15625 0.0625,0 0.0312,-0.0625 5.0625,-9.53125 z"
       id="path6040"
       inkscape:connector-curvature="0" />
    <path
       style="font-size:medium;font-style:normal;font-variant:normal;font-weight:normal;font-stretch:normal;text-indent:0;text-align:start;text-decoration:none;line-height:normal;letter-spacing:normal;word-spacing:normal;text-transform:none;direction:ltr;block-progression:tb;writing-mode:lr-tb;text-anchor:start;baseline-shift:baseline;color:#000000;fill:#0000ff;fill-opacity:1;stroke:none;stroke-width:0.21233279;marker:none;visibility:visible;display:inline;overflow:visible;enable-background:accumulate;font-family:Sans;-inkscape-font-specification:Sans"
       d="M 158.71875 863.6875 L 142.34375 867.5625 L 134.8125 867.90625 L 134.78125 867.90625 L 128.46875 870.71875 L 128.46875 870.75 L 125.3125 872.875 L 125.3125 872.78125 L 125.21875 872.78125 L 125.125 872.75 L 125.125 872.78125 L 125.0625 873.0625 L 125.03125 873.0625 L 123.03125 874.46875 L 123 874.5 L 119.03125 882.59375 L 116.59375 883.59375 L 116.5 883.625 L 116.5 883.6875 L 116.34375 887.3125 L 116.34375 887.34375 L 116.375 887.375 L 118.40625 890.0625 L 118.4375 890.09375 L 118.46875 890.125 L 122.125 891.46875 L 120.96875 901.28125 L 120.96875 901.3125 L 118.46875 907.25 L 118.4375 907.28125 L 97.84375 931.21875 L 76.4375 960.65625 L 69.09375 977.03125 L 69.09375 977.0625 L 69.09375 977.09375 L 70.34375 992.4375 L 66.1875 988.25 L 66.1875 988.21875 L 63.28125 980.21875 L 64 969.3125 L 64 969.1875 L 63.875 969.1875 L 59.84375 969.84375 L 59.78125 969.875 L 59.75 969.90625 L 55.78125 977.28125 L 55.75 977.3125 L 55.75 977.34375 L 56.4375 989.3125 L 56.4375 989.34375 L 56.4375 989.375 L 63.40625 998.0625 L 63.4375 998.09375 L 74.96875 1004.1875 L 75 1004.1875 L 75.03125 1004.1875 L 135.8125 1004.7812 L 135.84375 1004.7812 L 143.25 1006.6875 L 143.28125 1006.6875 L 149.84375 1006 L 149.90625 1006 L 149.9375 1005.9375 L 152.34375 1002.0625 L 155.84375 1001.4375 L 155.9375 1001.4375 L 155.9375 1001.3438 L 156.1875 995.5625 L 156.1875 995.5 L 156.1875 995.46875 L 154.15625 993.09375 L 154.125 993.0625 L 150.71875 990.71875 L 150.71875 990.6875 L 149.8125 973 L 149.8125 972.96875 L 151.5625 955.25 L 151.78125 939.5 L 151.1875 932.1875 L 151.15625 932.15625 L 149.4375 928.03125 L 149.4375 928 L 144.59375 908.65625 L 143.34375 902.1875 L 143.34375 902.15625 L 143.9375 893.96875 L 143.9375 893.9375 L 145.46875 891.0625 L 147.28125 887.78125 L 151.28125 885.5 L 168.0625 884.9375 L 168.15625 884.9375 L 168.1875 884.84375 L 168.6875 879.40625 L 168.6875 879.375 L 168.6875 879.34375 L 158.84375 863.71875 L 158.71875 863.78125 L 158.71875 863.6875 z M 158.6875 863.90625 L 168.5 879.46875 L 167.96875 884.71875 L 151.21875 885.28125 L 151.1875 885.28125 L 151.15625 885.3125 L 147.125 887.625 L 147.09375 887.65625 L 147.09375 887.6875 L 145.28125 890.9375 L 145.28125 890.96875 L 143.75 893.875 L 143.71875 893.90625 L 143.71875 893.9375 L 143.125 902.1875 L 144.375 908.71875 L 149.25 928.09375 L 150.96875 932.21875 L 150.96875 932.25 L 151.5625 939.5 L 151.34375 955.25 L 149.59375 972.96875 L 149.59375 973 L 150.5 990.75 L 150.5 990.78125 L 150.53125 990.8125 L 154 993.25 L 156 995.625 L 155.71875 1001.2812 L 153.40625 1001.6875 L 152.625 999.375 L 152.625 999.34375 L 152.5625 999.3125 L 146.96875 997.3125 L 147.15625 994.5625 L 147.15625 994.5 L 147.125 994.46875 L 145.5625 992.46875 L 145.5625 992.4375 L 144.3125 988.875 L 144.3125 988.84375 L 144 984.9375 L 143.375 978.8125 L 143.21875 973 L 143.0625 970.15625 L 141.9375 965.1875 L 141.9375 965.15625 L 143.84375 960 L 143.84375 959.96875 L 144 951.3125 L 143.78125 951.3125 L 143.625 959.90625 L 141.75 965.09375 L 141.75 965.125 L 141.75 965.15625 L 142.84375 970.1875 L 143 973 L 143.15625 978.8125 L 143.15625 978.84375 L 143.78125 984.96875 L 144.09375 988.90625 L 144.09375 988.9375 L 145.375 992.53125 L 145.375 992.5625 L 146.9375 994.625 L 146.78125 997.375 L 146.78125 997.4375 L 146.84375 997.46875 L 152.4375 999.5 L 153.1875 1001.7188 L 152.25 1001.875 L 152.1875 1001.875 L 152.1875 1001.9062 L 149.8125 1005.7812 L 149.78125 1005.7812 L 143.3125 1006.5 L 143.28125 1006.5 L 135.875 1004.5938 L 135.84375 1004.5938 L 75.03125 1003.9688 L 63.5625 997.9375 L 63.53125 997.90625 L 56.625 989.25 L 55.96875 977.375 L 59.90625 970.0625 L 63.78125 969.4375 L 63.0625 980.25 L 63.0625 980.28125 L 63.09375 980.3125 L 66 988.3125 L 66 988.34375 L 66.03125 988.375 L 70.375 992.71875 L 70.40625 992.78125 L 70.59375 993 L 70.5625 992.6875 L 69.3125 977.0625 L 76.625 960.78125 L 76.625 960.75 L 98 931.34375 L 118.625 907.375 L 118.65625 907.375 L 121.1875 901.34375 L 121.1875 901.3125 L 122.34375 891.40625 L 122.375 891.34375 L 122.28125 891.3125 L 118.59375 889.9375 L 116.5625 887.3125 L 116.5625 887.28125 L 116.71875 883.75 L 119.125 882.8125 L 119.15625 882.78125 L 119.1875 882.75 L 123.15625 874.65625 L 125.125 873.28125 L 125.1875 873.25 L 125.21875 873.21875 L 125.25 873.1875 L 125.28125 873.1875 L 128.5625 870.90625 L 128.59375 870.90625 L 134.8125 868.125 L 142.375 867.75 L 158.6875 863.90625 z "
       id="path6042" />
    <path
       style="font-size:medium;font-style:normal;font-variant:normal;font-weight:normal;font-stretch:normal;text-indent:0;text-align:start;text-decoration:none;line-height:normal;letter-spacing:normal;word-spacing:normal;text-transform:none;direction:ltr;block-progression:tb;writing-mode:lr-tb;text-anchor:start;baseline-shift:baseline;color:#000000;fill:#0000ff;fill-opacity:1;stroke:none;stroke-width:0.21233279;marker:none;visibility:visible;display:inline;overflow:visible;enable-background:accumulate;font-family:Sans;-inkscape-font-specification:Sans"
       d="M 139.71875 782.84375 C 67.805879 782.84375 9.5 841.14961 9.5 913.0625 C 9.5 984.97542 67.80588 1043.2812 139.71875 1043.2812 C 211.63168 1043.2812 269.90625 984.97542 269.90625 913.0625 C 269.90625 841.14961 211.63168 782.84375 139.71875 782.84375 z M 139.71875 783.0625 C 211.51692 783.0625 269.71875 841.26437 269.71875 913.0625 C 269.71875 984.86066 211.51692 1043.0625 139.71875 1043.0625 C 67.920632 1043.0625 9.71875 984.86066 9.71875 913.0625 C 9.71875 841.26437 67.920633 783.0625 139.71875 783.0625 z "
       id="path6044" />
    <path
       style="font-size:medium;font-style:normal;font-variant:normal;font-weight:normal;font-stretch:normal;text-indent:0;text-align:start;text-decoration:none;line-height:normal;letter-spacing:normal;word-spacing:normal;text-transform:none;direction:ltr;block-progression:tb;writing-mode:lr-tb;text-anchor:start;baseline-shift:baseline;color:#000000;fill:#0000ff;fill-opacity:1;stroke:none;stroke-width:0.21233279;marker:none;visibility:visible;display:inline;overflow:visible;enable-background:accumulate;font-family:Sans;-inkscape-font-specification:Sans"
       d="M 139.5 777.875 C 64.94284 777.875 4.5 838.31782 4.5 912.875 C 4.5 987.43216 64.94284 1047.875 139.5 1047.875 C 214.05716 1047.875 274.5 987.43216 274.5 912.875 C 274.5 838.31782 214.05716 777.875 139.5 777.875 z M 139.5 778.0625 C 213.9424 778.0625 274.28125 838.43258 274.28125 912.875 C 274.28125 987.3174 213.9424 1047.6563 139.5 1047.6562 C 65.057594 1047.6562 4.71875 987.3174 4.71875 912.875 C 4.71875 838.43258 65.057594 778.0625 139.5 778.0625 z "
       id="path6054" />
    <path
       style="font-size:medium;font-style:normal;font-variant:normal;font-weight:normal;font-stretch:normal;text-indent:0;text-align:start;text-decoration:none;line-height:normal;letter-spacing:normal;word-spacing:normal;text-transform:none;direction:ltr;block-progression:tb;writing-mode:lr-tb;text-anchor:start;baseline-shift:baseline;color:#000000;fill:#0000ff;fill-opacity:1;stroke:none;stroke-width:0.21233279;marker:none;visibility:visible;display:inline;overflow:visible;enable-background:accumulate;font-family:Sans;-inkscape-font-specification:Sans"
       d="m 269.81399,913.07025 0,0"
       id="path6062"
       inkscape:connector-curvature="0" />
    <path
       style="font-size:medium;font-style:normal;font-variant:normal;font-weight:normal;font-stretch:normal;text-indent:0;text-align:start;text-decoration:none;line-height:normal;letter-spacing:normal;word-spacing:normal;text-transform:none;direction:ltr;block-progression:tb;writing-mode:lr-tb;text-anchor:start;baseline-shift:baseline;color:#000000;fill:#0000ff;fill-opacity:1;stroke:none;stroke-width:0.21233279;marker:none;visibility:visible;display:inline;overflow:visible;enable-background:accumulate;font-family:Sans;-inkscape-font-specification:Sans"
       d="m 274.39383,912.86208 0,0"
       id="path6064"
       inkscape:connector-curvature="0" />
    <path
       style="font-size:medium;font-style:normal;font-variant:normal;font-weight:normal;font-stretch:normal;text-indent:0;text-align:start;text-decoration:none;line-height:normal;letter-spacing:normal;word-spacing:normal;text-transform:none;direction:ltr;block-progression:tb;writing-mode:lr-tb;text-anchor:start;baseline-shift:baseline;color:#000000;fill:#0000ff;fill-opacity:1;stroke:none;stroke-width:0.21233279;marker:none;visibility:visible;display:inline;overflow:visible;enable-background:accumulate;font-family:Sans;-inkscape-font-specification:Sans"
       d="m 157.46875,863.8125 -2.34375,3.84375 -0.0312,0.0312 0.0312,0.0625 0.6875,1.5 0.0312,0.0625 0.0625,0 5.625,-0.125 0.1875,0 -0.125,-0.1875 -3.96875,-5.1875 -0.0625,0.0625 -0.0937,-0.0625 z m 0.0937,0.25 3.75,4.90625 -5.34375,0.15625 -0.625,-1.40625 2.21875,-3.65625 z"
       id="path6066"
       inkscape:connector-curvature="0" />
    <path
       style="font-size:medium;font-style:normal;font-variant:normal;font-weight:normal;font-stretch:normal;text-indent:0;text-align:start;text-decoration:none;line-height:normal;letter-spacing:normal;word-spacing:normal;text-transform:none;direction:ltr;block-progression:tb;writing-mode:lr-tb;text-anchor:start;baseline-shift:baseline;color:#000000;fill:#0000ff;fill-opacity:1;stroke:none;stroke-width:0.21233279;marker:none;visibility:visible;display:inline;overflow:visible;enable-background:accumulate;font-family:Sans;-inkscape-font-specification:Sans"
       d="m 140.6875,870.46875 -2.34375,0.4375 -0.0937,0 0,0.0937 0,2.1875 0,0.0625 0.0625,0.0312 2.625,1.375 0.0312,0.0312 0.0625,-0.0312 1.5,-1.09375 0.0625,-0.0312 0,-0.0625 0,-2.46875 0,-0.0937 -0.0937,0 -1.78125,-0.4375 -0.0312,0.0937 0,-0.0937 z m 0,0.21875 0.0312,0 1.65625,0.375 0,2.34375 -1.40625,1.03125 -2.5,-1.3125 0,-2.0625 2.21875,-0.375 z"
       id="path6068"
       inkscape:connector-curvature="0" />
  </g>
</svg>
