  0
SECTION
  2
HEADER
  9
$ACADVER
  1
AC1014
  9
$HANDSEED
  5
FFFF
  9
$MEASUREMENT
 70
     1
  0
ENDSEC
  0
SECTION
  2
TABLES
  0
TABLE
  2
VPORT
  5
8
330
0
100
AcDbSymbolTable
 70
     4
  0
VPORT
  5
2E
330
8
100
AcDbSymbolTableRecord
100
AcDbViewportTableRecord
  2
*ACTIVE
 70
     0
 10
0.0
 20
0.0
 11
1.0
 21
1.0
 12
210.0
 22
148.5
 13
0.0
 23
0.0
 14
10.0
 24
10.0
 15
10.0
 25
10.0
 16
0.0
 26
0.0
 36
1.0
 17
0.0
 27
0.0
 37
0.0
 40
341.0
 41
1.24
 42
50.0
 43
0.0
 44
0.0
 50
0.0
 51
0.0
 71
     0
 72
   100
 73
     1
 74
     3
 75
     0
 76
     0
 77
     0
 78
     0
  0
ENDTAB
  0
TABLE
  2
LTYPE
  5
5
330
0
100
AcDbSymbolTable
 70
     1
  0
LTYPE
  5
14
330
5
100
AcDbSymbolTableRecord
100
AcDbLinetypeTableRecord
  2
BYBLOCK
 70
     0
  3

 72
    65
 73
     0
 40
0.0
  0
LTYPE
  5
15
330
5
100
AcDbSymbolTableRecord
100
AcDbLinetypeTableRecord
  2
BYLAYER
 70
     0
  3

 72
    65
 73
     0
 40
0.0
  0
LTYPE
  5
16
330
5
100
AcDbSymbolTableRecord
100
AcDbLinetypeTableRecord
  2
CONTINUOUS
 70
     0
  3
Solid line
 72
    65
 73
     0
 40
0.0
  0
ENDTAB
  0
TABLE
  2
LAYER
  5
2
100
AcDbSymbolTable
 70
3
  0
LAYER
  5
50
100
AcDbSymbolTableRecord
100
AcDbLayerTableRecord
  2
0
 70
0
  6
CONTINUOUS
  0
LAYER
  5
51
100
AcDbSymbolTableRecord
100
AcDbLayerTableRecord
  2
Layer_1
 70
0
  6
CONTINUOUS
  0
LAYER
  5
52
100
AcDbSymbolTableRecord
100
AcDbLayerTableRecord
  2
Layer
 70
0
  6
CONTINUOUS
  0
ENDTAB
  0
TABLE
  2
STYLE
  5
3
330
0
100
AcDbSymbolTable
 70
     1
  0
STYLE
  5
11
330
3
100
AcDbSymbolTableRecord
100
AcDbTextStyleTableRecord
  2
STANDARD
 70
     0
 40
0.0
 41
1.0
 50
0.0
 71
     0
 42
2.5
  3
txt
  4

  0
ENDTAB
  0
TABLE
  2
VIEW
  5
6
330
0
100
AcDbSymbolTable
 70
     0
  0
ENDTAB
  0
TABLE
  2
UCS
  5
7
330
0
100
AcDbSymbolTable
 70
     0
  0
ENDTAB
  0
TABLE
  2
APPID
  5
9
330
0
100
AcDbSymbolTable
 70
     2
  0
APPID
  5
12
330
9
100
AcDbSymbolTableRecord
100
AcDbRegAppTableRecord
  2
ACAD
 70
     0
  0
ENDTAB
  0
TABLE
  2
DIMSTYLE
  5
A
330
0
100
AcDbSymbolTable
 70
     1
  0
DIMSTYLE
105
27
330
A
100
AcDbSymbolTableRecord
100
AcDbDimStyleTableRecord
  2
ISO-25
 70
     0
  3

  4

  5

  6

  7

 40
1.0
 41
2.5
 42
0.625
 43
3.75
 44
1.25
 45
0.0
 46
0.0
 47
0.0
 48
0.0
140
2.5
141
2.5
142
0.0
143
0.03937007874016
144
1.0
145
0.0
146
1.0
147
0.625
 71
     0
 72
     0
 73
     0
 74
     0
 75
     0
 76
     0
 77
     1
 78
     8
170
     0
171
     3
172
     1
173
     0
174
     0
175
     0
176
     0
177
     0
178
     0
270
     2
271
     2
272
     2
273
     2
274
     3
340
11
275
     0
280
     0
281
     0
282
     0
283
     0
284
     8
285
     0
286
     0
287
     3
288
     0
  0
ENDTAB
  0
TABLE
  2
BLOCK_RECORD
  5
1
330
0
100
AcDbSymbolTable
 70
     1
  0
BLOCK_RECORD
  5
1F
330
1
100
AcDbSymbolTableRecord
100
AcDbBlockTableRecord
  2
*MODEL_SPACE
  0
BLOCK_RECORD
  5
1B
330
1
100
AcDbSymbolTableRecord
100
AcDbBlockTableRecord
  2
*PAPER_SPACE
  0
ENDTAB
  0
ENDSEC
  0
SECTION
  2
BLOCKS
  0
BLOCK
  5
20
330
1F
100
AcDbEntity
  8
0
100
AcDbBlockBegin
  2
*MODEL_SPACE
 70
     0
 10
0.0
 20
0.0
 30
0.0
  3
*MODEL_SPACE
  1

  0
ENDBLK
  5
21
330
1F
100
AcDbEntity
  8
0
100
AcDbBlockEnd
  0
BLOCK
  5
1C
330
1B
100
AcDbEntity
 67
     1
  8
0
100
AcDbBlockBegin
  2
*PAPER_SPACE
  1

  0
ENDBLK
  5
1D
330
1B
100
AcDbEntity
 67
     1
  8
0
100
AcDbBlockEnd
  0
ENDSEC
  0
SECTION
  2
ENTITIES
  0
LWPOLYLINE
  5
100
100
AcDbEntity
  8
Layer
 62
5
100
AcDbPolyline
 90
26
 70
0
 10
27.064094
 20
170.736554
 30
0.0
 10
41.175205
 20
171.946079
 30
0.0
 10
55.698155
 20
173.942527
 30
0.0
 10
63.951317
 20
178.154796
 30
0.0
 10
71.191361
 20
179.800645
 30
0.0
 10
75.896847
 20
176.865918
 30
0.0
 10
90.561068
 20
176.933208
 30
0.0
 10
101.651394
 20
168.922268
 30
0.0
 10
97.465277
 20
174.439540
 30
0.0
 10
106.728403
 20
177.246235
 30
0.0
 10
113.165327
 20
181.310974
 30
0.0
 10
116.735664
 20
178.949065
 30
0.0
 10
120.566410
 20
177.956250
 30
0.0
 10
126.350080
 20
178.810773
 30
0.0
 10
130.925103
 20
182.188017
 30
0.0
 10
138.261989
 20
182.612321
 30
0.0
 10
154.976129
 20
182.904206
 30
0.0
 10
193.172028
 20
170.736554
 30
0.0
 10
215.749806
 20
148.965133
 30
0.0
 10
235.099974
 20
143.108711
 30
0.0
 10
258.803624
 20
139.780097
 30
0.0
 10
276.289800
 20
133.656722
 30
0.0
 10
294.088240
 20
129.251205
 30
0.0
 10
309.154081
 20
128.773459
 30
0.0
 10
329.841054
 20
118.045205
 30
0.0
 10
340.935520
 20
115.300057
 30
0.0
  0
SPLINE
  5
101
100
AcDbEntity
  8
Layer
 62
5
100
AcDbSpline
 70
8
 71
3
 72
8
 73
4
 74
0
 40
0
 40
0
 40
0
 40
0
 40
1
 40
1
 40
1
 40
1
 10
110.118061
 20
216.295286
 30
0.0
 10
111.806656
 20
215.708797
 30
0.0
 10
115.762164
 20
215.694977
 30
0.0
 10
119.535229
 20
216.036277
 30
0.0
  0
SPLINE
  5
102
100
AcDbEntity
  8
Layer
 62
5
100
AcDbSpline
 70
8
 71
3
 72
8
 73
4
 74
0
 40
0
 40
0
 40
0
 40
0
 40
1
 40
1
 40
1
 40
1
 10
119.535229
 20
216.036277
 30
0.0
 10
123.308295
 20
216.377574
 30
0.0
 10
131.687902
 20
216.496872
 30
0.0
 10
131.687902
 20
216.496872
 30
0.0
  0
SPLINE
  5
103
100
AcDbEntity
  8
Layer
 62
5
100
AcDbSpline
 70
8
 71
3
 72
8
 73
4
 74
0
 40
0
 40
0
 40
0
 40
0
 40
1
 40
1
 40
1
 40
1
 10
131.687902
 20
216.496872
 30
0.0
 10
131.687902
 20
216.496872
 30
0.0
 10
152.089845
 20
194.830192
 30
0.0
 10
155.072028
 20
193.515920
 30
0.0
  0
LWPOLYLINE
  5
104
100
AcDbEntity
  8
Layer
 62
5
100
AcDbPolyline
 90
2
 70
0
 10
71.413298
 20
180.815920
 30
0.0
 10
110.118061
 20
216.295286
 30
0.0
  0
LWPOLYLINE
  5
105
100
AcDbEntity
  8
Layer
 62
5
100
AcDbPolyline
 90
12
 70
0
 10
248.399653
 20
304.110545
 30
0.0
 10
241.502847
 20
291.145962
 30
0.0
 10
222.276458
 20
291.357629
 30
0.0
 10
236.907917
 20
279.865892
 30
0.0
 10
231.677986
 20
264.396587
 30
0.0
 10
245.894931
 20
274.221448
 30
0.0
 10
259.891389
 20
261.477351
 30
0.0
 10
256.134306
 20
279.442559
 30
0.0
 10
271.806458
 20
288.226726
 30
0.0
 10
253.629583
 20
289.479087
 30
0.0
 10
248.399653
 20
304.110545
 30
0.0
 10
248.399653
 20
304.110545
 30
0.0
  0
LWPOLYLINE
  5
106
100
AcDbEntity
  8
Layer
 62
5
100
AcDbPolyline
 90
50
 70
0
 10
206.277986
 20
245.928670
 30
0.0
 10
184.511597
 20
240.786934
 30
0.0
 10
174.483889
 20
240.328323
 30
0.0
 10
166.114236
 20
236.580059
 30
0.0
 10
161.739792
 20
233.572629
 30
0.0
 10
161.722153
 20
233.987142
 30
0.0
 10
161.616319
 20
233.484434
 30
0.0
 10
158.899931
 20
231.614712
 30
0.0
 10
153.564167
 20
220.793254
 30
0.0
 10
150.292153
 20
219.487976
 30
0.0
 10
150.071667
 20
214.654920
 30
0.0
 10
152.788056
 20
211.074226
 30
0.0
 10
157.771042
 20
209.222142
 30
0.0
 10
156.218819
 20
196.054712
 30
0.0
 10
152.858611
 20
188.073115
 30
0.0
 10
125.438958
 20
156.226101
 30
0.0
 10
97.013889
 20
117.111865
 30
0.0
 10
87.259583
 20
95.354295
 30
0.0
 10
88.952917
 20
74.575670
 30
0.0
 10
83.149722
 20
80.449434
 30
0.0
 10
79.269167
 20
91.112142
 30
0.0
 10
80.212847
 20
105.681865
 30
0.0
 10
74.841806
 20
104.817559
 30
0.0
 10
69.541319
 20
95.019156
 30
0.0
 10
70.423264
 20
79.100059
 30
0.0
 10
79.683681
 20
67.537782
 30
0.0
 10
95.003056
 20
59.459170
 30
0.0
 10
175.833264
 20
58.656587
 30
0.0
 10
185.728681
 20
56.125392
 30
0.0
 10
194.442292
 20
57.051448
 30
0.0
 10
197.670208
 20
62.263726
 30
0.0
 10
202.397431
 20
63.101587
 30
0.0
 10
202.759028
 20
70.809781
 30
0.0
 10
200.069097
 20
73.993615
 30
0.0
 10
195.465347
 20
77.195059
 30
0.0
 10
194.265903
 20
100.787073
 30
0.0
 10
196.603056
 20
124.370267
 30
0.0
 10
196.894097
 20
145.298809
 30
0.0
 10
196.082708
 20
154.991379
 30
0.0
 10
193.789653
 20
160.512351
 30
0.0
 10
187.325000
 20
186.256309
 30
0.0
 10
185.675764
 20
194.899365
 30
0.0
 10
186.469514
 20
205.861934
 30
0.0
 10
188.497986
 20
209.760129
 30
0.0
 10
190.905694
 20
214.116934
 30
0.0
 10
196.285556
 20
217.212559
 30
0.0
 10
218.678125
 20
217.971031
 30
0.0
 10
219.374861
 20
225.167698
 30
0.0
 10
206.277986
 20
245.928670
 30
0.0
 10
206.277986
 20
245.928670
 30
0.0
  0
SPLINE
  5
107
100
AcDbEntity
  8
Layer
 62
5
100
AcDbSpline
 70
8
 71
3
 72
8
 73
4
 74
0
 40
0
 40
0
 40
0
 40
0
 40
1
 40
1
 40
1
 40
1
 10
353.912211
 20
180.428553
 30
0.0
 10
353.912211
 20
84.921798
 30
0.0
 10
276.488685
 20
7.498252
 30
0.0
 10
180.981924
 20
7.498252
 30
0.0
  0
SPLINE
  5
108
100
AcDbEntity
  8
Layer
 62
5
100
AcDbSpline
 70
8
 71
3
 72
8
 73
4
 74
0
 40
0
 40
0
 40
0
 40
0
 40
1
 40
1
 40
1
 40
1
 10
180.981924
 20
7.498252
 30
0.0
 10
85.475164
 20
7.498252
 30
0.0
 10
8.051636
 20
84.921798
 30
0.0
 10
8.051636
 20
180.428553
 30
0.0
  0
SPLINE
  5
109
100
AcDbEntity
  8
Layer
 62
5
100
AcDbSpline
 70
8
 71
3
 72
8
 73
4
 74
0
 40
0
 40
0
 40
0
 40
0
 40
1
 40
1
 40
1
 40
1
 10
8.051636
 20
180.428553
 30
0.0
 10
8.051636
 20
275.935313
 30
0.0
 10
85.475164
 20
353.358842
 30
0.0
 10
180.981924
 20
353.358842
 30
0.0
  0
SPLINE
  5
10a
100
AcDbEntity
  8
Layer
 62
5
100
AcDbSpline
 70
8
 71
3
 72
8
 73
4
 74
0
 40
0
 40
0
 40
0
 40
0
 40
1
 40
1
 40
1
 40
1
 10
180.981924
 20
353.358842
 30
0.0
 10
276.488685
 20
353.358842
 30
0.0
 10
353.912211
 20
275.935313
 30
0.0
 10
353.912211
 20
180.428553
 30
0.0
  0
LWPOLYLINE
  5
10b
100
AcDbEntity
  8
Layer
 62
5
100
AcDbPolyline
 90
13
 70
0
 10
186.541095
 20
129.603390
 30
0.0
 10
186.332110
 20
118.109156
 30
0.0
 10
183.824275
 20
111.212605
 30
0.0
 10
185.287179
 20
104.525039
 30
0.0
 10
185.496165
 20
100.763299
 30
0.0
 10
185.705150
 20
93.030805
 30
0.0
 10
186.541095
 20
84.880340
 30
0.0
 10
186.959069
 20
79.655701
 30
0.0
 10
188.630960
 20
74.849005
 30
0.0
 10
190.720821
 20
72.132193
 30
0.0
 10
190.511835
 20
68.370425
 30
0.0
 10
198.035338
 20
65.653612
 30
0.0
 10
199.080268
 20
62.518829
 30
0.0
  0
SPLINE
  5
10c
100
AcDbEntity
  8
Layer
 62
5
100
AcDbSpline
 70
8
 71
3
 72
8
 73
4
 74
0
 40
0
 40
0
 40
0
 40
0
 40
1
 40
1
 40
1
 40
1
 10
359.999349
 20
180.705246
 30
0.0
 10
359.999349
 20
81.683835
 30
0.0
 10
279.726640
 20
1.411114
 30
0.0
 10
180.705231
 20
1.411114
 30
0.0
  0
SPLINE
  5
10d
100
AcDbEntity
  8
Layer
 62
5
100
AcDbSpline
 70
8
 71
3
 72
8
 73
4
 74
0
 40
0
 40
0
 40
0
 40
0
 40
1
 40
1
 40
1
 40
1
 10
180.705231
 20
1.411114
 30
0.0
 10
81.683822
 20
1.411114
 30
0.0
 10
1.411111
 20
81.683835
 30
0.0
 10
1.411111
 20
180.705246
 30
0.0
  0
SPLINE
  5
10e
100
AcDbEntity
  8
Layer
 62
5
100
AcDbSpline
 70
8
 71
3
 72
8
 73
4
 74
0
 40
0
 40
0
 40
0
 40
0
 40
1
 40
1
 40
1
 40
1
 10
1.411111
 20
180.705246
 30
0.0
 10
1.411111
 20
279.726655
 30
0.0
 10
81.683822
 20
359.999365
 30
0.0
 10
180.705231
 20
359.999365
 30
0.0
  0
SPLINE
  5
10f
100
AcDbEntity
  8
Layer
 62
5
100
AcDbSpline
 70
8
 71
3
 72
8
 73
4
 74
0
 40
0
 40
0
 40
0
 40
0
 40
1
 40
1
 40
1
 40
1
 10
180.705231
 20
359.999365
 30
0.0
 10
279.726640
 20
359.999365
 30
0.0
 10
359.999349
 20
279.726655
 30
0.0
 10
359.999349
 20
180.705246
 30
0.0
  0
LWPOLYLINE
  5
110
100
AcDbEntity
  8
Layer
 62
5
100
AcDbPolyline
 90
2
 70
0
 10
353.912211
 20
180.428553
 30
0.0
 10
353.912211
 20
180.428553
 30
0.0
  0
LWPOLYLINE
  5
111
100
AcDbEntity
  8
Layer
 62
5
100
AcDbPolyline
 90
2
 70
0
 10
359.999349
 20
180.705246
 30
0.0
 10
359.999349
 20
180.705246
 30
0.0
  0
LWPOLYLINE
  5
112
100
AcDbEntity
  8
Layer
 62
5
100
AcDbPolyline
 90
5
 70
0
 10
204.695017
 20
245.818070
 30
0.0
 10
201.599677
 20
240.719861
 30
0.0
 10
202.510073
 20
238.716995
 30
0.0
 10
209.975305
 20
238.899073
 30
0.0
 10
204.695017
 20
245.818070
 30
0.0
  0
LWPOLYLINE
  5
113
100
AcDbEntity
  8
Layer
 62
5
100
AcDbPolyline
 90
7
 70
0
 10
182.299321
 20
236.896204
 30
0.0
 10
179.203978
 20
236.349969
 30
0.0
 10
179.203978
 20
233.436708
 30
0.0
 10
182.663478
 20
231.615920
 30
0.0
 10
184.666344
 20
233.072551
 30
0.0
 10
184.666344
 20
236.349969
 30
0.0
 10
182.299321
 20
236.896204
 30
0.0
  0
ENDSEC
  0
SECTION
  2
OBJECTS
  0
DICTIONARY
  5
C
330
0
100
AcDbDictionary
  3
ACAD_GROUP
350
D
  3
ACAD_MLINESTYLE
350
17
  0
DICTIONARY
  5
D
330
C
100
AcDbDictionary
  0
DICTIONARY
  5
1A
330
C
100
AcDbDictionary
  0
DICTIONARY
  5
17
330
C
100
AcDbDictionary
  3
STANDARD
350
18
  0
DICTIONARY
  5
19
330
C
100
AcDbDictionary
  0
ENDSEC
  0
EOF
