solid Default
  facet normal 1.000000e+00 -4.978996e-17 0.000000e+00
    outer loop
      vertex -1.000000e+01 2.000000e+01 4.000000e+01
      vertex -1.000000e+01 1.000000e+01 4.000000e+01
      vertex -1.000000e+01 2.000000e+01 2.000000e+01
    endloop
  endfacet
  facet normal 1.000000e+00 -4.978996e-17 0.000000e+00
    outer loop
      vertex -1.000000e+01 2.000000e+01 2.000000e+01
      vertex -1.000000e+01 1.000000e+01 4.000000e+01
      vertex -1.000000e+01 1.000000e+01 2.000000e+01
    endloop
  endfacet
  facet normal 2.832769e-16 -1.000000e+00 0.000000e+00
    outer loop
      vertex -1.000000e+01 1.000000e+01 4.000000e+01
      vertex -2.000000e+01 1.000000e+01 4.000000e+01
      vertex -1.000000e+01 1.000000e+01 2.000000e+01
    endloop
  endfacet
  facet normal 2.832769e-16 -1.000000e+00 0.000000e+00
    outer loop
      vertex -1.000000e+01 1.000000e+01 2.000000e+01
      vertex -2.000000e+01 1.000000e+01 4.000000e+01
      vertex -2.000000e+01 1.000000e+01 2.000000e+01
    endloop
  endfacet
  facet normal 0.000000e+00 0.000000e+00 1.000000e+00
    outer loop
      vertex -1.000000e+01 1.000000e+01 4.000000e+01
      vertex -1.000000e+01 2.000000e+01 4.000000e+01
      vertex -2.000000e+01 1.000000e+01 4.000000e+01
    endloop
  endfacet
  facet normal 0.000000e+00 0.000000e+00 1.000000e+00
    outer loop
      vertex -2.000000e+01 1.000000e+01 4.000000e+01
      vertex -1.000000e+01 2.000000e+01 4.000000e+01
      vertex -2.000000e+01 2.000000e+01 4.000000e+01
    endloop
  endfacet
  facet normal 1.359631e-32 -2.220446e-16 1.000000e+00
    outer loop
      vertex -2.000000e+01 -2.000000e+01 1.000000e+01
      vertex -1.000000e+01 -2.000000e+01 1.000000e+01
      vertex -2.000000e+01 -1.224647e-15 1.000000e+01
    endloop
  endfacet
  facet normal 1.359631e-32 -2.220446e-16 1.000000e+00
    outer loop
      vertex -2.000000e+01 -1.224647e-15 1.000000e+01
      vertex -1.000000e+01 -2.000000e+01 1.000000e+01
      vertex -1.000000e+01 -6.123234e-16 1.000000e+01
    endloop
  endfacet
  facet normal 1.000000e+00 6.123234e-17 0.000000e+00
    outer loop
      vertex -1.000000e+01 -2.000000e+01 1.000000e+01
      vertex -1.000000e+01 -2.000000e+01 2.220446e-15
      vertex -1.000000e+01 -6.123234e-16 1.000000e+01
    endloop
  endfacet
  facet normal 1.000000e+00 6.123234e-17 0.000000e+00
    outer loop
      vertex -1.000000e+01 -6.123234e-16 1.000000e+01
      vertex -1.000000e+01 -2.000000e+01 2.220446e-15
      vertex -1.000000e+01 -6.123234e-16 6.661338e-15
    endloop
  endfacet
  facet normal 6.123234e-17 -1.000000e+00 -4.440892e-16
    outer loop
      vertex -2.000000e+01 -2.000000e+01 1.000000e+01
      vertex -2.000000e+01 -2.000000e+01 0.000000e+00
      vertex -1.000000e+01 -2.000000e+01 1.000000e+01
    endloop
  endfacet
  facet normal 6.123234e-17 -1.000000e+00 -4.440892e-16
    outer loop
      vertex -1.000000e+01 -2.000000e+01 1.000000e+01
      vertex -2.000000e+01 -2.000000e+01 0.000000e+00
      vertex -1.000000e+01 -2.000000e+01 2.220446e-15
    endloop
  endfacet
  facet normal 6.123234e-17 -1.000000e+00 -2.220446e-16
    outer loop
      vertex 2.000000e+01 1.000000e+01 9.992007e-15
      vertex 2.000000e+01 1.000000e+01 1.000000e+01
      vertex -6.123234e-16 1.000000e+01 9.992007e-15
    endloop
  endfacet
  facet normal 6.123234e-17 -1.000000e+00 -2.220446e-16
    outer loop
      vertex -6.123234e-16 1.000000e+01 9.992007e-15
      vertex 2.000000e+01 1.000000e+01 1.000000e+01
      vertex -6.123234e-16 1.000000e+01 1.000000e+01
    endloop
  endfacet
  facet normal 6.798156e-33 -1.110223e-16 1.000000e+00
    outer loop
      vertex 2.000000e+01 1.000000e+01 1.000000e+01
      vertex 2.000000e+01 2.000000e+01 1.000000e+01
      vertex -6.123234e-16 1.000000e+01 1.000000e+01
    endloop
  endfacet
  facet normal 6.798156e-33 -1.110223e-16 1.000000e+00
    outer loop
      vertex -6.123234e-16 1.000000e+01 1.000000e+01
      vertex 2.000000e+01 2.000000e+01 1.000000e+01
      vertex -1.224647e-15 2.000000e+01 1.000000e+01
    endloop
  endfacet
  facet normal 1.000000e+00 6.123234e-17 0.000000e+00
    outer loop
      vertex 2.000000e+01 2.000000e+01 8.881784e-15
      vertex 2.000000e+01 2.000000e+01 1.000000e+01
      vertex 2.000000e+01 1.000000e+01 9.992007e-15
    endloop
  endfacet
  facet normal 1.000000e+00 6.123234e-17 0.000000e+00
    outer loop
      vertex 2.000000e+01 1.000000e+01 9.992007e-15
      vertex 2.000000e+01 2.000000e+01 1.000000e+01
      vertex 2.000000e+01 1.000000e+01 1.000000e+01
    endloop
  endfacet
  facet normal 2.220446e-16 1.110223e-16 -1.000000e+00
    outer loop
      vertex 0.000000e+00 0.000000e+00 8.881784e-15
      vertex -1.000000e+01 -6.123234e-16 6.661338e-15
      vertex -6.123234e-16 1.000000e+01 9.992007e-15
    endloop
  endfacet
  facet normal 1.480297e-16 1.850372e-16 -1.000000e+00
    outer loop
      vertex -6.123234e-16 1.000000e+01 9.992007e-15
      vertex -1.000000e+01 -6.123234e-16 6.661338e-15
      vertex -2.000000e+01 2.000000e+01 8.881784e-15
    endloop
  endfacet
  facet normal 6.798156e-33 -1.110223e-16 -1.000000e+00
    outer loop
      vertex 2.000000e+01 2.000000e+01 8.881784e-15
      vertex -6.123234e-16 1.000000e+01 9.992007e-15
      vertex -2.000000e+01 2.000000e+01 8.881784e-15
    endloop
  endfacet
  facet normal 6.798156e-33 -1.110223e-16 -1.000000e+00
    outer loop
      vertex 2.000000e+01 2.000000e+01 8.881784e-15
      vertex 2.000000e+01 1.000000e+01 9.992007e-15
      vertex -6.123234e-16 1.000000e+01 9.992007e-15
    endloop
  endfacet
  facet normal 2.220446e-16 2.220446e-16 -1.000000e+00
    outer loop
      vertex -1.000000e+01 -2.000000e+01 2.220446e-15
      vertex -2.000000e+01 -2.000000e+01 0.000000e+00
      vertex -1.000000e+01 -6.123234e-16 6.661338e-15
    endloop
  endfacet
  facet normal 2.220446e-16 2.220446e-16 -1.000000e+00
    outer loop
      vertex -1.000000e+01 -6.123234e-16 6.661338e-15
      vertex -2.000000e+01 -2.000000e+01 0.000000e+00
      vertex -2.000000e+01 2.000000e+01 8.881784e-15
    endloop
  endfacet
  facet normal -1.608123e-16 -1.000000e+00 -2.220446e-16
    outer loop
      vertex -1.000000e+01 -6.123234e-16 6.661338e-15
      vertex 0.000000e+00 0.000000e+00 8.881784e-15
      vertex -1.000000e+01 -6.123234e-16 1.000000e+01
    endloop
  endfacet
  facet normal -1.608123e-16 -1.000000e+00 -2.220446e-16
    outer loop
      vertex -1.000000e+01 -6.123234e-16 1.000000e+01
      vertex 0.000000e+00 0.000000e+00 8.881784e-15
      vertex 0.000000e+00 0.000000e+00 2.000000e+01
    endloop
  endfacet
  facet normal 6.123234e-17 -1.000000e+00 -4.440892e-16
    outer loop
      vertex -2.000000e+01 -1.224647e-15 2.000000e+01
      vertex -1.000000e+01 -6.123234e-16 1.000000e+01
      vertex 0.000000e+00 0.000000e+00 2.000000e+01
    endloop
  endfacet
  facet normal 6.123234e-17 -1.000000e+00 -4.440892e-16
    outer loop
      vertex -2.000000e+01 -1.224647e-15 2.000000e+01
      vertex -2.000000e+01 -1.224647e-15 1.000000e+01
      vertex -1.000000e+01 -6.123234e-16 1.000000e+01
    endloop
  endfacet
  facet normal 0.000000e+00 0.000000e+00 1.000000e+00
    outer loop
      vertex -2.000000e+01 1.000000e+01 2.000000e+01
      vertex -2.000000e+01 -1.224647e-15 2.000000e+01
      vertex -1.000000e+01 1.000000e+01 2.000000e+01
    endloop
  endfacet
  facet normal 0.000000e+00 0.000000e+00 1.000000e+00
    outer loop
      vertex -1.000000e+01 1.000000e+01 2.000000e+01
      vertex -2.000000e+01 -1.224647e-15 2.000000e+01
      vertex 0.000000e+00 0.000000e+00 2.000000e+01
    endloop
  endfacet
  facet normal 0.000000e+00 0.000000e+00 1.000000e+00
    outer loop
      vertex -1.224647e-15 2.000000e+01 2.000000e+01
      vertex -1.000000e+01 1.000000e+01 2.000000e+01
      vertex 0.000000e+00 0.000000e+00 2.000000e+01
    endloop
  endfacet
  facet normal 0.000000e+00 0.000000e+00 1.000000e+00
    outer loop
      vertex -1.224647e-15 2.000000e+01 2.000000e+01
      vertex -1.000000e+01 2.000000e+01 2.000000e+01
      vertex -1.000000e+01 1.000000e+01 2.000000e+01
    endloop
  endfacet
  facet normal 4.978996e-17 1.000000e+00 0.000000e+00
    outer loop
      vertex -1.224647e-15 2.000000e+01 2.000000e+01
      vertex -1.224647e-15 2.000000e+01 1.000000e+01
      vertex -1.000000e+01 2.000000e+01 2.000000e+01
    endloop
  endfacet
  facet normal -2.422491e-17 1.000000e+00 -7.401487e-17
    outer loop
      vertex -1.000000e+01 2.000000e+01 2.000000e+01
      vertex -1.224647e-15 2.000000e+01 1.000000e+01
      vertex -2.000000e+01 2.000000e+01 8.881784e-15
    endloop
  endfacet
  facet normal -1.722546e-16 1.000000e+00 0.000000e+00
    outer loop
      vertex -2.000000e+01 2.000000e+01 4.000000e+01
      vertex -1.000000e+01 2.000000e+01 2.000000e+01
      vertex -2.000000e+01 2.000000e+01 8.881784e-15
    endloop
  endfacet
  facet normal -1.722546e-16 1.000000e+00 -0.000000e+00
    outer loop
      vertex -2.000000e+01 2.000000e+01 4.000000e+01
      vertex -1.000000e+01 2.000000e+01 4.000000e+01
      vertex -1.000000e+01 2.000000e+01 2.000000e+01
    endloop
  endfacet
  facet normal -6.123234e-17 1.000000e+00 -0.000000e+00
    outer loop
      vertex 2.000000e+01 2.000000e+01 1.000000e+01
      vertex 2.000000e+01 2.000000e+01 8.881784e-15
      vertex -1.224647e-15 2.000000e+01 1.000000e+01
    endloop
  endfacet
  facet normal -6.123234e-17 1.000000e+00 -0.000000e+00
    outer loop
      vertex -1.224647e-15 2.000000e+01 1.000000e+01
      vertex 2.000000e+01 2.000000e+01 8.881784e-15
      vertex -2.000000e+01 2.000000e+01 8.881784e-15
    endloop
  endfacet
  facet normal 1.000000e+00 6.123234e-17 0.000000e+00
    outer loop
      vertex -1.224647e-15 2.000000e+01 1.000000e+01
      vertex -1.224647e-15 2.000000e+01 2.000000e+01
      vertex -6.123234e-16 1.000000e+01 1.000000e+01
    endloop
  endfacet
  facet normal 1.000000e+00 6.123234e-17 0.000000e+00
    outer loop
      vertex -6.123234e-16 1.000000e+01 1.000000e+01
      vertex -1.224647e-15 2.000000e+01 2.000000e+01
      vertex 0.000000e+00 0.000000e+00 2.000000e+01
    endloop
  endfacet
  facet normal 1.000000e+00 6.123234e-17 0.000000e+00
    outer loop
      vertex 0.000000e+00 0.000000e+00 8.881784e-15
      vertex -6.123234e-16 1.000000e+01 1.000000e+01
      vertex 0.000000e+00 0.000000e+00 2.000000e+01
    endloop
  endfacet
  facet normal 1.000000e+00 6.123234e-17 0.000000e+00
    outer loop
      vertex 0.000000e+00 0.000000e+00 8.881784e-15
      vertex -6.123234e-16 1.000000e+01 9.992007e-15
      vertex -6.123234e-16 1.000000e+01 1.000000e+01
    endloop
  endfacet
  facet normal -1.000000e+00 -1.722546e-16 0.000000e+00
    outer loop
      vertex -2.000000e+01 1.000000e+01 4.000000e+01
      vertex -2.000000e+01 2.000000e+01 4.000000e+01
      vertex -2.000000e+01 1.000000e+01 2.000000e+01
    endloop
  endfacet
  facet normal -1.000000e+00 -1.722546e-16 0.000000e+00
    outer loop
      vertex -2.000000e+01 1.000000e+01 2.000000e+01
      vertex -2.000000e+01 2.000000e+01 4.000000e+01
      vertex -2.000000e+01 2.000000e+01 8.881784e-15
    endloop
  endfacet
  facet normal -1.000000e+00 -6.123234e-17 0.000000e+00
    outer loop
      vertex -2.000000e+01 -1.224647e-15 1.000000e+01
      vertex -2.000000e+01 2.000000e+01 8.881784e-15
      vertex -2.000000e+01 -2.000000e+01 0.000000e+00
    endloop
  endfacet
  facet normal -1.000000e+00 -6.123234e-17 -0.000000e+00
    outer loop
      vertex -2.000000e+01 -2.000000e+01 1.000000e+01
      vertex -2.000000e+01 -1.224647e-15 1.000000e+01
      vertex -2.000000e+01 -2.000000e+01 0.000000e+00
    endloop
  endfacet
  facet normal -1.000000e+00 4.978996e-17 4.930381e-32
    outer loop
      vertex -2.000000e+01 -1.224647e-15 2.000000e+01
      vertex -2.000000e+01 1.000000e+01 2.000000e+01
      vertex -2.000000e+01 -1.224647e-15 1.000000e+01
    endloop
  endfacet
  facet normal -1.000000e+00 -2.422491e-17 7.401487e-17
    outer loop
      vertex -2.000000e+01 -1.224647e-15 1.000000e+01
      vertex -2.000000e+01 1.000000e+01 2.000000e+01
      vertex -2.000000e+01 2.000000e+01 8.881784e-15
    endloop
  endfacet
endsolid Default
