solid OpenSCAD_Model
  facet normal 0 0 -1
    outer loop
      vertex -3.88349 0 0
      vertex -3.86222 0.405936 0
      vertex -3.86222 -0.405936 0
    endloop
  endfacet
  facet normal 0 0 -1
    outer loop
      vertex -3.86222 -0.405936 0
      vertex -3.86222 0.405936 0
      vertex -3.79863 0.807424 0
    endloop
  endfacet
  facet normal 0 0 -1
    outer loop
      vertex -3.86222 -0.405936 0
      vertex -3.79863 0.807424 0
      vertex -3.69342 1.20007 0
    endloop
  endfacet
  facet normal 0 0 -1
    outer loop
      vertex -3.86222 -0.405936 0
      vertex -3.69342 1.20007 0
      vertex -3.54775 1.57956 0
    endloop
  endfacet
  facet normal 0 0 -1
    outer loop
      vertex -3.86222 -0.405936 0
      vertex -3.54775 1.57956 0
      vertex -3.3632 1.94175 0
    endloop
  endfacet
  facet normal 0 0 -1
    outer loop
      vertex -3.86222 -0.405936 0
      vertex -3.3632 1.94175 0
      vertex -3.14181 2.28266 0
    endloop
  endfacet
  facet normal 0 0 -1
    outer loop
      vertex -3.86222 -0.405936 0
      vertex -3.14181 2.28266 0
      vertex -2.886 2.59856 0
    endloop
  endfacet
  facet normal 0 0 -1
    outer loop
      vertex -3.86222 -0.405936 0
      vertex -2.886 2.59856 0
      vertex -2.59856 2.886 0
    endloop
  endfacet
  facet normal 0 0 -1
    outer loop
      vertex -3.86222 -0.405936 0
      vertex -2.59856 2.886 0
      vertex -2.28266 3.14181 0
    endloop
  endfacet
  facet normal 0 0 -1
    outer loop
      vertex -3.86222 -0.405936 0
      vertex -2.28266 3.14181 0
      vertex -1.94175 3.3632 0
    endloop
  endfacet
  facet normal 0 0 -1
    outer loop
      vertex -3.86222 -0.405936 0
      vertex -1.94175 3.3632 0
      vertex -1.57956 3.54775 0
    endloop
  endfacet
  facet normal 0 0 -1
    outer loop
      vertex -3.86222 -0.405936 0
      vertex -1.57956 3.54775 0
      vertex -1.20007 3.69342 0
    endloop
  endfacet
  facet normal 0 0 -1
    outer loop
      vertex -3.86222 -0.405936 0
      vertex -1.20007 3.69342 0
      vertex -0.807424 3.79863 0
    endloop
  endfacet
  facet normal 0 0 -1
    outer loop
      vertex -3.86222 -0.405936 0
      vertex -0.807424 3.79863 0
      vertex -0.405936 3.86222 0
    endloop
  endfacet
  facet normal 0 0 -1
    outer loop
      vertex -3.86222 -0.405936 0
      vertex -0.405936 3.86222 0
      vertex 0 3.88349 0
    endloop
  endfacet
  facet normal 0 0 -1
    outer loop
      vertex -3.86222 -0.405936 0
      vertex 0 3.88349 0
      vertex 0.405936 3.86222 0
    endloop
  endfacet
  facet normal 0 0 -1
    outer loop
      vertex -3.86222 -0.405936 0
      vertex 0.405936 3.86222 0
      vertex 0.807424 3.79863 0
    endloop
  endfacet
  facet normal 0 0 -1
    outer loop
      vertex -3.86222 -0.405936 0
      vertex 0.807424 3.79863 0
      vertex 1.20007 3.69342 0
    endloop
  endfacet
  facet normal 0 0 -1
    outer loop
      vertex -3.86222 -0.405936 0
      vertex 1.20007 3.69342 0
      vertex 1.57956 3.54775 0
    endloop
  endfacet
  facet normal 0 0 -1
    outer loop
      vertex -3.86222 -0.405936 0
      vertex 1.57956 3.54775 0
      vertex 1.94175 3.3632 0
    endloop
  endfacet
  facet normal 0 0 -1
    outer loop
      vertex -3.86222 -0.405936 0
      vertex 1.94175 3.3632 0
      vertex 2.28266 3.14181 0
    endloop
  endfacet
  facet normal 0 0 -1
    outer loop
      vertex -3.86222 -0.405936 0
      vertex 2.28266 3.14181 0
      vertex 2.59856 2.886 0
    endloop
  endfacet
  facet normal 0 0 -1
    outer loop
      vertex -3.86222 -0.405936 0
      vertex 2.59856 2.886 0
      vertex 2.886 2.59856 0
    endloop
  endfacet
  facet normal 0 0 -1
    outer loop
      vertex -3.86222 -0.405936 0
      vertex 2.886 2.59856 0
      vertex 3.14181 2.28266 0
    endloop
  endfacet
  facet normal 0 0 -1
    outer loop
      vertex 0.309017 0.951057 0
      vertex 3.14181 2.28266 0
      vertex 3.3632 1.94175 0
    endloop
  endfacet
  facet normal 0 0 -1
    outer loop
      vertex 0.587785 0.809017 0
      vertex 3.3632 1.94175 0
      vertex 3.54775 1.57956 0
    endloop
  endfacet
  facet normal 0 0 -1
    outer loop
      vertex 0.809017 0.587785 0
      vertex 3.54775 1.57956 0
      vertex 3.69342 1.20007 0
    endloop
  endfacet
  facet normal 0 0 -1
    outer loop
      vertex 0.913545 0.406737 0
      vertex 3.69342 1.20007 0
      vertex 3.79863 0.807424 0
    endloop
  endfacet
  facet normal 0 0 -1
    outer loop
      vertex 0.978148 0.207912 0
      vertex 3.79863 0.807424 0
      vertex 3.86222 0.405936 0
    endloop
  endfacet
  facet normal 0 0 -1
    outer loop
      vertex 0.994522 -0.104528 0
      vertex 3.86222 0.405936 0
      vertex 3.88349 0 0
    endloop
  endfacet
  facet normal 0 0 -1
    outer loop
      vertex 0.951057 -0.309017 0
      vertex 3.88349 0 0
      vertex 3.86222 -0.405936 0
    endloop
  endfacet
  facet normal 0 0 -1
    outer loop
      vertex 0.866025 -0.5 0
      vertex 3.86222 -0.405936 0
      vertex 3.79863 -0.807424 0
    endloop
  endfacet
  facet normal 0 0 -1
    outer loop
      vertex 0.669131 -0.743145 0
      vertex 3.79863 -0.807424 0
      vertex 3.69342 -1.20007 0
    endloop
  endfacet
  facet normal 0 0 -1
    outer loop
      vertex 0.406737 -0.913545 0
      vertex 3.69342 -1.20007 0
      vertex 3.54775 -1.57956 0
    endloop
  endfacet
  facet normal 0 0 -1
    outer loop
      vertex -3.86222 -0.405936 0
      vertex 3.54775 -1.57956 0
      vertex 3.3632 -1.94175 0
    endloop
  endfacet
  facet normal 0 0 -1
    outer loop
      vertex -3.86222 -0.405936 0
      vertex 3.3632 -1.94175 0
      vertex 3.14181 -2.28266 0
    endloop
  endfacet
  facet normal 0 0 -1
    outer loop
      vertex -3.86222 -0.405936 0
      vertex 3.14181 -2.28266 0
      vertex 2.886 -2.59856 0
    endloop
  endfacet
  facet normal 0 0 -1
    outer loop
      vertex -3.86222 -0.405936 0
      vertex 2.886 -2.59856 0
      vertex 2.59856 -2.886 0
    endloop
  endfacet
  facet normal 0 0 -1
    outer loop
      vertex -3.86222 -0.405936 0
      vertex 2.59856 -2.886 0
      vertex 2.28266 -3.14181 0
    endloop
  endfacet
  facet normal 0 0 -1
    outer loop
      vertex -3.86222 -0.405936 0
      vertex 2.28266 -3.14181 0
      vertex 1.94175 -3.3632 0
    endloop
  endfacet
  facet normal 0 0 -1
    outer loop
      vertex -3.86222 -0.405936 0
      vertex 1.94175 -3.3632 0
      vertex 1.57956 -3.54775 0
    endloop
  endfacet
  facet normal 0 0 -1
    outer loop
      vertex -3.86222 -0.405936 0
      vertex 1.57956 -3.54775 0
      vertex 1.20007 -3.69342 0
    endloop
  endfacet
  facet normal 0 0 -1
    outer loop
      vertex -3.86222 -0.405936 0
      vertex 1.20007 -3.69342 0
      vertex 0.807424 -3.79863 0
    endloop
  endfacet
  facet normal 0 0 -1
    outer loop
      vertex -3.86222 -0.405936 0
      vertex 0.807424 -3.79863 0
      vertex 0.405936 -3.86222 0
    endloop
  endfacet
  facet normal 0 0 -1
    outer loop
      vertex -3.86222 -0.405936 0
      vertex 0.405936 -3.86222 0
      vertex 0 -3.88349 0
    endloop
  endfacet
  facet normal 0 0 -1
    outer loop
      vertex -3.86222 -0.405936 0
      vertex 0 -3.88349 0
      vertex -0.405936 -3.86222 0
    endloop
  endfacet
  facet normal 0 0 -1
    outer loop
      vertex -3.86222 -0.405936 0
      vertex -0.405936 -3.86222 0
      vertex -0.807424 -3.79863 0
    endloop
  endfacet
  facet normal 0 0 -1
    outer loop
      vertex -3.86222 -0.405936 0
      vertex -0.807424 -3.79863 0
      vertex -1.20007 -3.69342 0
    endloop
  endfacet
  facet normal 0 0 -1
    outer loop
      vertex -3.86222 -0.405936 0
      vertex -1.20007 -3.69342 0
      vertex -1.57956 -3.54775 0
    endloop
  endfacet
  facet normal 0 0 -1
    outer loop
      vertex -3.86222 -0.405936 0
      vertex -1.57956 -3.54775 0
      vertex -1.94175 -3.3632 0
    endloop
  endfacet
  facet normal 0 0 -1
    outer loop
      vertex -3.86222 -0.405936 0
      vertex -1.94175 -3.3632 0
      vertex -2.28266 -3.14181 0
    endloop
  endfacet
  facet normal 0 0 -1
    outer loop
      vertex -3.86222 -0.405936 0
      vertex -2.28266 -3.14181 0
      vertex -2.59856 -2.886 0
    endloop
  endfacet
  facet normal 0 0 -1
    outer loop
      vertex -3.86222 -0.405936 0
      vertex -2.59856 -2.886 0
      vertex -2.886 -2.59856 0
    endloop
  endfacet
  facet normal 0 0 -1
    outer loop
      vertex -3.86222 -0.405936 0
      vertex -2.886 -2.59856 0
      vertex -3.14181 -2.28266 0
    endloop
  endfacet
  facet normal 0 0 -1
    outer loop
      vertex -3.86222 -0.405936 0
      vertex -3.14181 -2.28266 0
      vertex -3.3632 -1.94175 0
    endloop
  endfacet
  facet normal 0 0 -1
    outer loop
      vertex -3.86222 -0.405936 0
      vertex -3.3632 -1.94175 0
      vertex -3.54775 -1.57956 0
    endloop
  endfacet
  facet normal 0 0 -1
    outer loop
      vertex -3.86222 -0.405936 0
      vertex -3.54775 -1.57956 0
      vertex -3.69342 -1.20007 0
    endloop
  endfacet
  facet normal 0 0 -1
    outer loop
      vertex -3.86222 -0.405936 0
      vertex -3.69342 -1.20007 0
      vertex -3.79863 -0.807424 0
    endloop
  endfacet
  facet normal 0 0 -1
    outer loop
      vertex -0.978148 -0.207912 0
      vertex -3.86222 -0.405936 0
      vertex -0.994522 -0.104528 0
    endloop
  endfacet
  facet normal 0 0 -1
    outer loop
      vertex -3.86222 -0.405936 0
      vertex -1 0 0
      vertex -0.994522 -0.104528 0
    endloop
  endfacet
  facet normal 0 0 -1
    outer loop
      vertex 0.978148 0.207912 0
      vertex 3.86222 0.405936 0
      vertex 0.994522 0.104528 0
    endloop
  endfacet
  facet normal 0 0 -1
    outer loop
      vertex -0.913545 -0.406737 0
      vertex -3.86222 -0.405936 0
      vertex -0.951057 -0.309017 0
    endloop
  endfacet
  facet normal 0 0 -1
    outer loop
      vertex -0.809017 -0.587785 0
      vertex -3.86222 -0.405936 0
      vertex -0.866025 -0.5 0
    endloop
  endfacet
  facet normal 0 0 -1
    outer loop
      vertex -3.86222 -0.405936 0
      vertex -0.913545 -0.406737 0
      vertex -0.866025 -0.5 0
    endloop
  endfacet
  facet normal 0 0 -1
    outer loop
      vertex -0.669131 -0.743145 0
      vertex -3.86222 -0.405936 0
      vertex -0.743145 -0.669131 0
    endloop
  endfacet
  facet normal 0 0 -1
    outer loop
      vertex -3.86222 -0.405936 0
      vertex -0.809017 -0.587785 0
      vertex -0.743145 -0.669131 0
    endloop
  endfacet
  facet normal 0 0 -1
    outer loop
      vertex 0 -1 0
      vertex 3.54775 -1.57956 0
      vertex -0.104528 -0.994522 0
    endloop
  endfacet
  facet normal 0 0 -1
    outer loop
      vertex -3.86222 -0.405936 0
      vertex -0.669131 -0.743145 0
      vertex -0.587785 -0.809017 0
    endloop
  endfacet
  facet normal 0 0 -1
    outer loop
      vertex -3.86222 -0.405936 0
      vertex -0.587785 -0.809017 0
      vertex -0.5 -0.866025 0
    endloop
  endfacet
  facet normal 0 0 -1
    outer loop
      vertex -3.86222 -0.405936 0
      vertex -0.5 -0.866025 0
      vertex -0.406737 -0.913545 0
    endloop
  endfacet
  facet normal 0 0 -1
    outer loop
      vertex -3.86222 -0.405936 0
      vertex -0.406737 -0.913545 0
      vertex -0.309017 -0.951057 0
    endloop
  endfacet
  facet normal 0 0 -1
    outer loop
      vertex -3.86222 -0.405936 0
      vertex -0.309017 -0.951057 0
      vertex -0.207912 -0.978148 0
    endloop
  endfacet
  facet normal 0 0 -1
    outer loop
      vertex -3.86222 -0.405936 0
      vertex -0.207912 -0.978148 0
      vertex 3.54775 -1.57956 0
    endloop
  endfacet
  facet normal 0 0 -1
    outer loop
      vertex -0.207912 -0.978148 0
      vertex -0.104528 -0.994522 0
      vertex 3.54775 -1.57956 0
    endloop
  endfacet
  facet normal 0 0 -1
    outer loop
      vertex 0.104528 -0.994522 0
      vertex 3.54775 -1.57956 0
      vertex 0 -1 0
    endloop
  endfacet
  facet normal 0 0 -1
    outer loop
      vertex 0.207912 -0.978148 0
      vertex 3.54775 -1.57956 0
      vertex 0.104528 -0.994522 0
    endloop
  endfacet
  facet normal 0 0 -1
    outer loop
      vertex 0.309017 -0.951057 0
      vertex 3.54775 -1.57956 0
      vertex 0.207912 -0.978148 0
    endloop
  endfacet
  facet normal 0 0 -1
    outer loop
      vertex 0.406737 -0.913545 0
      vertex 3.54775 -1.57956 0
      vertex 0.309017 -0.951057 0
    endloop
  endfacet
  facet normal 0 0 -1
    outer loop
      vertex 0.5 -0.866025 0
      vertex 3.69342 -1.20007 0
      vertex 0.406737 -0.913545 0
    endloop
  endfacet
  facet normal 0 0 -1
    outer loop
      vertex 0.587785 -0.809017 0
      vertex 3.69342 -1.20007 0
      vertex 0.5 -0.866025 0
    endloop
  endfacet
  facet normal 0 0 -1
    outer loop
      vertex 0.669131 -0.743145 0
      vertex 3.69342 -1.20007 0
      vertex 0.587785 -0.809017 0
    endloop
  endfacet
  facet normal 0 0 -1
    outer loop
      vertex 0.743145 -0.669131 0
      vertex 3.79863 -0.807424 0
      vertex 0.669131 -0.743145 0
    endloop
  endfacet
  facet normal 0 0 -1
    outer loop
      vertex 0.809017 -0.587785 0
      vertex 3.79863 -0.807424 0
      vertex 0.743145 -0.669131 0
    endloop
  endfacet
  facet normal 0 0 -1
    outer loop
      vertex 0.866025 -0.5 0
      vertex 3.79863 -0.807424 0
      vertex 0.809017 -0.587785 0
    endloop
  endfacet
  facet normal 0 0 -1
    outer loop
      vertex 0.913545 -0.406737 0
      vertex 3.86222 -0.405936 0
      vertex 0.866025 -0.5 0
    endloop
  endfacet
  facet normal 0 0 -1
    outer loop
      vertex 0.951057 -0.309017 0
      vertex 3.86222 -0.405936 0
      vertex 0.913545 -0.406737 0
    endloop
  endfacet
  facet normal 0 0 -1
    outer loop
      vertex 0.978148 -0.207912 0
      vertex 3.88349 0 0
      vertex 0.951057 -0.309017 0
    endloop
  endfacet
  facet normal 0 0 -1
    outer loop
      vertex 0.994522 -0.104528 0
      vertex 3.88349 0 0
      vertex 0.978148 -0.207912 0
    endloop
  endfacet
  facet normal 0 0 -1
    outer loop
      vertex 1 0 0
      vertex 3.86222 0.405936 0
      vertex 0.994522 -0.104528 0
    endloop
  endfacet
  facet normal 0 0 -1
    outer loop
      vertex 0.994522 0.104528 0
      vertex 3.86222 0.405936 0
      vertex 1 0 0
    endloop
  endfacet
  facet normal 0 0 -1
    outer loop
      vertex -0.951057 -0.309017 0
      vertex -3.86222 -0.405936 0
      vertex -0.978148 -0.207912 0
    endloop
  endfacet
  facet normal 0 0 -1
    outer loop
      vertex 0.951057 0.309017 0
      vertex 3.79863 0.807424 0
      vertex 0.978148 0.207912 0
    endloop
  endfacet
  facet normal 0 0 -1
    outer loop
      vertex 0.913545 0.406737 0
      vertex 3.79863 0.807424 0
      vertex 0.951057 0.309017 0
    endloop
  endfacet
  facet normal 0 0 -1
    outer loop
      vertex 0.866025 0.5 0
      vertex 3.69342 1.20007 0
      vertex 0.913545 0.406737 0
    endloop
  endfacet
  facet normal 0 0 -1
    outer loop
      vertex 0.743145 0.669131 0
      vertex 3.54775 1.57956 0
      vertex 0.809017 0.587785 0
    endloop
  endfacet
  facet normal 0 0 -1
    outer loop
      vertex 0.587785 0.809017 0
      vertex 3.54775 1.57956 0
      vertex 0.669131 0.743145 0
    endloop
  endfacet
  facet normal 0 0 -1
    outer loop
      vertex 0.669131 0.743145 0
      vertex 3.54775 1.57956 0
      vertex 0.743145 0.669131 0
    endloop
  endfacet
  facet normal 0 0 -1
    outer loop
      vertex 0.5 0.866025 0
      vertex 3.3632 1.94175 0
      vertex 0.587785 0.809017 0
    endloop
  endfacet
  facet normal 0 0 -1
    outer loop
      vertex 0.309017 0.951057 0
      vertex 3.3632 1.94175 0
      vertex 0.406737 0.913545 0
    endloop
  endfacet
  facet normal 0 0 -1
    outer loop
      vertex 0.406737 0.913545 0
      vertex 3.3632 1.94175 0
      vertex 0.5 0.866025 0
    endloop
  endfacet
  facet normal 0 0 -1
    outer loop
      vertex 0.207912 0.978148 0
      vertex 3.14181 2.28266 0
      vertex 0.309017 0.951057 0
    endloop
  endfacet
  facet normal 0 0 -1
    outer loop
      vertex -0.5 0.866025 0
      vertex -3.86222 -0.405936 0
      vertex -0.406737 0.913545 0
    endloop
  endfacet
  facet normal 0 0 -1
    outer loop
      vertex 0.104528 0.994522 0
      vertex 3.14181 2.28266 0
      vertex 0.207912 0.978148 0
    endloop
  endfacet
  facet normal 0 0 -1
    outer loop
      vertex 0 1 0
      vertex 3.14181 2.28266 0
      vertex 0.104528 0.994522 0
    endloop
  endfacet
  facet normal 0 0 -1
    outer loop
      vertex -0.104528 0.994522 0
      vertex 3.14181 2.28266 0
      vertex 0 1 0
    endloop
  endfacet
  facet normal 0 0 -1
    outer loop
      vertex -0.207912 0.978148 0
      vertex 3.14181 2.28266 0
      vertex -0.104528 0.994522 0
    endloop
  endfacet
  facet normal 0 0 -1
    outer loop
      vertex -0.309017 0.951057 0
      vertex 3.14181 2.28266 0
      vertex -0.207912 0.978148 0
    endloop
  endfacet
  facet normal 0 0 -1
    outer loop
      vertex -3.86222 -0.405936 0
      vertex 3.14181 2.28266 0
      vertex -0.309017 0.951057 0
    endloop
  endfacet
  facet normal 0 0 -1
    outer loop
      vertex -3.86222 -0.405936 0
      vertex -0.309017 0.951057 0
      vertex -0.406737 0.913545 0
    endloop
  endfacet
  facet normal 0 0 -1
    outer loop
      vertex -0.587785 0.809017 0
      vertex -3.86222 -0.405936 0
      vertex -0.5 0.866025 0
    endloop
  endfacet
  facet normal 0 0 -1
    outer loop
      vertex -0.669131 0.743145 0
      vertex -3.86222 -0.405936 0
      vertex -0.587785 0.809017 0
    endloop
  endfacet
  facet normal 0 0 -1
    outer loop
      vertex -0.743145 0.669131 0
      vertex -3.86222 -0.405936 0
      vertex -0.669131 0.743145 0
    endloop
  endfacet
  facet normal 0 0 -1
    outer loop
      vertex -0.809017 0.587785 0
      vertex -3.86222 -0.405936 0
      vertex -0.743145 0.669131 0
    endloop
  endfacet
  facet normal 0 0 -1
    outer loop
      vertex -0.866025 0.5 0
      vertex -3.86222 -0.405936 0
      vertex -0.809017 0.587785 0
    endloop
  endfacet
  facet normal 0 0 -1
    outer loop
      vertex -0.913545 0.406737 0
      vertex -3.86222 -0.405936 0
      vertex -0.866025 0.5 0
    endloop
  endfacet
  facet normal 0 0 -1
    outer loop
      vertex -0.951057 0.309017 0
      vertex -3.86222 -0.405936 0
      vertex -0.913545 0.406737 0
    endloop
  endfacet
  facet normal 0 0 -1
    outer loop
      vertex -0.978148 0.207912 0
      vertex -3.86222 -0.405936 0
      vertex -0.951057 0.309017 0
    endloop
  endfacet
  facet normal 0 0 -1
    outer loop
      vertex -0.994522 0.104528 0
      vertex -3.86222 -0.405936 0
      vertex -0.978148 0.207912 0
    endloop
  endfacet
  facet normal 0 0 -1
    outer loop
      vertex -1 0 0
      vertex -3.86222 -0.405936 0
      vertex -0.994522 0.104528 0
    endloop
  endfacet
  facet normal 0 0 -1
    outer loop
      vertex 0.809017 0.587785 0
      vertex 3.69342 1.20007 0
      vertex 0.866025 0.5 0
    endloop
  endfacet
  facet normal -0.99863 0.0523355 0
    outer loop
      vertex -3.88349 0 0
      vertex -3.88349 0 8
      vertex -3.86222 0.405936 0
    endloop
  endfacet
  facet normal -0.99863 0.0523355 0
    outer loop
      vertex -3.86222 0.405936 0
      vertex -3.88349 0 8
      vertex -3.86222 0.405936 8
    endloop
  endfacet
  facet normal -0.99863 -0.0523355 0
    outer loop
      vertex -3.88349 0 0
      vertex -3.86222 -0.405936 0
      vertex -3.88349 0 8
    endloop
  endfacet
  facet normal -0.99863 -0.0523355 0
    outer loop
      vertex -3.88349 0 8
      vertex -3.86222 -0.405936 0
      vertex -3.86222 -0.405936 8
    endloop
  endfacet
  facet normal -0.987688 -0.156436 0
    outer loop
      vertex -3.86222 -0.405936 0
      vertex -3.79863 -0.807424 0
      vertex -3.86222 -0.405936 8
    endloop
  endfacet
  facet normal -0.987688 -0.156436 0
    outer loop
      vertex -3.86222 -0.405936 8
      vertex -3.79863 -0.807424 0
      vertex -3.79863 -0.807424 8
    endloop
  endfacet
  facet normal -0.965926 -0.258819 0
    outer loop
      vertex -3.79863 -0.807424 0
      vertex -3.69342 -1.20007 0
      vertex -3.79863 -0.807424 8
    endloop
  endfacet
  facet normal -0.965926 -0.258819 0
    outer loop
      vertex -3.79863 -0.807424 8
      vertex -3.69342 -1.20007 0
      vertex -3.69342 -1.20007 8
    endloop
  endfacet
  facet normal -0.933581 -0.358368 0
    outer loop
      vertex -3.69342 -1.20007 0
      vertex -3.54775 -1.57956 0
      vertex -3.69342 -1.20007 8
    endloop
  endfacet
  facet normal -0.933581 -0.358368 0
    outer loop
      vertex -3.69342 -1.20007 8
      vertex -3.54775 -1.57956 0
      vertex -3.54775 -1.57956 8
    endloop
  endfacet
  facet normal -0.891007 -0.45399 0
    outer loop
      vertex -3.54775 -1.57956 0
      vertex -3.3632 -1.94175 0
      vertex -3.54775 -1.57956 8
    endloop
  endfacet
  facet normal -0.891007 -0.45399 0
    outer loop
      vertex -3.54775 -1.57956 8
      vertex -3.3632 -1.94175 0
      vertex -3.3632 -1.94175 8
    endloop
  endfacet
  facet normal -0.838671 -0.544638 0
    outer loop
      vertex -3.3632 -1.94175 0
      vertex -3.14181 -2.28266 0
      vertex -3.3632 -1.94175 8
    endloop
  endfacet
  facet normal -0.838671 -0.544638 0
    outer loop
      vertex -3.3632 -1.94175 8
      vertex -3.14181 -2.28266 0
      vertex -3.14181 -2.28266 8
    endloop
  endfacet
  facet normal -0.777145 -0.629322 0
    outer loop
      vertex -3.14181 -2.28266 0
      vertex -2.886 -2.59856 0
      vertex -3.14181 -2.28266 8
    endloop
  endfacet
  facet normal -0.777145 -0.629322 0
    outer loop
      vertex -3.14181 -2.28266 8
      vertex -2.886 -2.59856 0
      vertex -2.886 -2.59856 8
    endloop
  endfacet
  facet normal -0.707107 -0.707107 0
    outer loop
      vertex -2.886 -2.59856 8
      vertex -2.886 -2.59856 0
      vertex -2.59856 -2.886 0
    endloop
  endfacet
  facet normal -0.707107 -0.707107 0
    outer loop
      vertex -2.59856 -2.886 8
      vertex -2.886 -2.59856 8
      vertex -2.59856 -2.886 0
    endloop
  endfacet
  facet normal -0.629322 -0.777145 0
    outer loop
      vertex -2.59856 -2.886 8
      vertex -2.59856 -2.886 0
      vertex -2.28266 -3.14181 0
    endloop
  endfacet
  facet normal -0.629322 -0.777145 0
    outer loop
      vertex -2.28266 -3.14181 8
      vertex -2.59856 -2.886 8
      vertex -2.28266 -3.14181 0
    endloop
  endfacet
  facet normal -0.544638 -0.838671 0
    outer loop
      vertex -2.28266 -3.14181 8
      vertex -2.28266 -3.14181 0
      vertex -1.94175 -3.3632 0
    endloop
  endfacet
  facet normal -0.544638 -0.838671 0
    outer loop
      vertex -1.94175 -3.3632 8
      vertex -2.28266 -3.14181 8
      vertex -1.94175 -3.3632 0
    endloop
  endfacet
  facet normal -0.45399 -0.891007 0
    outer loop
      vertex -1.94175 -3.3632 8
      vertex -1.94175 -3.3632 0
      vertex -1.57956 -3.54775 0
    endloop
  endfacet
  facet normal -0.45399 -0.891007 0
    outer loop
      vertex -1.57956 -3.54775 8
      vertex -1.94175 -3.3632 8
      vertex -1.57956 -3.54775 0
    endloop
  endfacet
  facet normal -0.358368 -0.933581 0
    outer loop
      vertex -1.57956 -3.54775 8
      vertex -1.57956 -3.54775 0
      vertex -1.20007 -3.69342 0
    endloop
  endfacet
  facet normal -0.358368 -0.933581 0
    outer loop
      vertex -1.20007 -3.69342 8
      vertex -1.57956 -3.54775 8
      vertex -1.20007 -3.69342 0
    endloop
  endfacet
  facet normal -0.258819 -0.965926 0
    outer loop
      vertex -1.20007 -3.69342 8
      vertex -1.20007 -3.69342 0
      vertex -0.807424 -3.79863 0
    endloop
  endfacet
  facet normal -0.258819 -0.965926 0
    outer loop
      vertex -0.807424 -3.79863 8
      vertex -1.20007 -3.69342 8
      vertex -0.807424 -3.79863 0
    endloop
  endfacet
  facet normal -0.156436 -0.987688 0
    outer loop
      vertex -0.807424 -3.79863 8
      vertex -0.807424 -3.79863 0
      vertex -0.405936 -3.86222 0
    endloop
  endfacet
  facet normal -0.156436 -0.987688 0
    outer loop
      vertex -0.405936 -3.86222 8
      vertex -0.807424 -3.79863 8
      vertex -0.405936 -3.86222 0
    endloop
  endfacet
  facet normal -0.0523355 -0.99863 0
    outer loop
      vertex -0.405936 -3.86222 8
      vertex -0.405936 -3.86222 0
      vertex 0 -3.88349 0
    endloop
  endfacet
  facet normal -0.0523355 -0.99863 0
    outer loop
      vertex 0 -3.88349 8
      vertex -0.405936 -3.86222 8
      vertex 0 -3.88349 0
    endloop
  endfacet
  facet normal 0.0523355 -0.99863 0
    outer loop
      vertex 0 -3.88349 8
      vertex 0 -3.88349 0
      vertex 0.405936 -3.86222 0
    endloop
  endfacet
  facet normal 0.0523355 -0.99863 0
    outer loop
      vertex 0.405936 -3.86222 8
      vertex 0 -3.88349 8
      vertex 0.405936 -3.86222 0
    endloop
  endfacet
  facet normal 0.156436 -0.987688 0
    outer loop
      vertex 0.405936 -3.86222 8
      vertex 0.405936 -3.86222 0
      vertex 0.807424 -3.79863 0
    endloop
  endfacet
  facet normal 0.156436 -0.987688 0
    outer loop
      vertex 0.807424 -3.79863 8
      vertex 0.405936 -3.86222 8
      vertex 0.807424 -3.79863 0
    endloop
  endfacet
  facet normal 0.258819 -0.965926 0
    outer loop
      vertex 0.807424 -3.79863 8
      vertex 0.807424 -3.79863 0
      vertex 1.20007 -3.69342 0
    endloop
  endfacet
  facet normal 0.258819 -0.965926 0
    outer loop
      vertex 1.20007 -3.69342 8
      vertex 0.807424 -3.79863 8
      vertex 1.20007 -3.69342 0
    endloop
  endfacet
  facet normal 0.358368 -0.933581 0
    outer loop
      vertex 1.20007 -3.69342 8
      vertex 1.20007 -3.69342 0
      vertex 1.57956 -3.54775 0
    endloop
  endfacet
  facet normal 0.358368 -0.933581 0
    outer loop
      vertex 1.57956 -3.54775 8
      vertex 1.20007 -3.69342 8
      vertex 1.57956 -3.54775 0
    endloop
  endfacet
  facet normal 0.45399 -0.891007 0
    outer loop
      vertex 1.57956 -3.54775 8
      vertex 1.57956 -3.54775 0
      vertex 1.94175 -3.3632 0
    endloop
  endfacet
  facet normal 0.45399 -0.891007 0
    outer loop
      vertex 1.94175 -3.3632 8
      vertex 1.57956 -3.54775 8
      vertex 1.94175 -3.3632 0
    endloop
  endfacet
  facet normal 0.544638 -0.838671 0
    outer loop
      vertex 1.94175 -3.3632 8
      vertex 1.94175 -3.3632 0
      vertex 2.28266 -3.14181 0
    endloop
  endfacet
  facet normal 0.544638 -0.838671 0
    outer loop
      vertex 2.28266 -3.14181 8
      vertex 1.94175 -3.3632 8
      vertex 2.28266 -3.14181 0
    endloop
  endfacet
  facet normal 0.629322 -0.777145 0
    outer loop
      vertex 2.28266 -3.14181 8
      vertex 2.28266 -3.14181 0
      vertex 2.59856 -2.886 0
    endloop
  endfacet
  facet normal 0.629322 -0.777145 0
    outer loop
      vertex 2.59856 -2.886 8
      vertex 2.28266 -3.14181 8
      vertex 2.59856 -2.886 0
    endloop
  endfacet
  facet normal 0.707107 -0.707107 0
    outer loop
      vertex 2.59856 -2.886 8
      vertex 2.59856 -2.886 0
      vertex 2.886 -2.59856 0
    endloop
  endfacet
  facet normal 0.707107 -0.707107 0
    outer loop
      vertex 2.886 -2.59856 8
      vertex 2.59856 -2.886 8
      vertex 2.886 -2.59856 0
    endloop
  endfacet
  facet normal 0.777145 -0.629322 0
    outer loop
      vertex 2.886 -2.59856 8
      vertex 2.886 -2.59856 0
      vertex 3.14181 -2.28266 0
    endloop
  endfacet
  facet normal 0.777145 -0.629322 0
    outer loop
      vertex 3.14181 -2.28266 8
      vertex 2.886 -2.59856 8
      vertex 3.14181 -2.28266 0
    endloop
  endfacet
  facet normal 0.838671 -0.544638 0
    outer loop
      vertex 3.14181 -2.28266 8
      vertex 3.14181 -2.28266 0
      vertex 3.3632 -1.94175 0
    endloop
  endfacet
  facet normal 0.838671 -0.544638 0
    outer loop
      vertex 3.3632 -1.94175 8
      vertex 3.14181 -2.28266 8
      vertex 3.3632 -1.94175 0
    endloop
  endfacet
  facet normal 0.891007 -0.45399 0
    outer loop
      vertex 3.3632 -1.94175 8
      vertex 3.3632 -1.94175 0
      vertex 3.54775 -1.57956 0
    endloop
  endfacet
  facet normal 0.891007 -0.45399 0
    outer loop
      vertex 3.54775 -1.57956 8
      vertex 3.3632 -1.94175 8
      vertex 3.54775 -1.57956 0
    endloop
  endfacet
  facet normal 0.933581 -0.358368 0
    outer loop
      vertex 3.54775 -1.57956 8
      vertex 3.54775 -1.57956 0
      vertex 3.69342 -1.20007 0
    endloop
  endfacet
  facet normal 0.933581 -0.358368 0
    outer loop
      vertex 3.69342 -1.20007 8
      vertex 3.54775 -1.57956 8
      vertex 3.69342 -1.20007 0
    endloop
  endfacet
  facet normal 0.965926 -0.258819 0
    outer loop
      vertex 3.69342 -1.20007 8
      vertex 3.69342 -1.20007 0
      vertex 3.79863 -0.807424 0
    endloop
  endfacet
  facet normal 0.965926 -0.258819 0
    outer loop
      vertex 3.79863 -0.807424 8
      vertex 3.69342 -1.20007 8
      vertex 3.79863 -0.807424 0
    endloop
  endfacet
  facet normal 0.987688 -0.156436 0
    outer loop
      vertex 3.79863 -0.807424 8
      vertex 3.79863 -0.807424 0
      vertex 3.86222 -0.405936 0
    endloop
  endfacet
  facet normal 0.987688 -0.156436 0
    outer loop
      vertex 3.86222 -0.405936 8
      vertex 3.79863 -0.807424 8
      vertex 3.86222 -0.405936 0
    endloop
  endfacet
  facet normal 0.99863 -0.0523355 0
    outer loop
      vertex 3.86222 -0.405936 8
      vertex 3.86222 -0.405936 0
      vertex 3.88349 0 0
    endloop
  endfacet
  facet normal 0.99863 -0.0523355 0
    outer loop
      vertex 3.88349 0 8
      vertex 3.86222 -0.405936 8
      vertex 3.88349 0 0
    endloop
  endfacet
  facet normal 0.99863 0.0523355 0
    outer loop
      vertex 3.88349 0 0
      vertex 3.86222 0.405936 0
      vertex 3.86222 0.405936 8
    endloop
  endfacet
  facet normal 0.99863 0.0523355 0
    outer loop
      vertex 3.88349 0 8
      vertex 3.88349 0 0
      vertex 3.86222 0.405936 8
    endloop
  endfacet
  facet normal 0.987688 0.156436 0
    outer loop
      vertex 3.86222 0.405936 0
      vertex 3.79863 0.807424 0
      vertex 3.79863 0.807424 8
    endloop
  endfacet
  facet normal 0.987688 0.156436 0
    outer loop
      vertex 3.86222 0.405936 8
      vertex 3.86222 0.405936 0
      vertex 3.79863 0.807424 8
    endloop
  endfacet
  facet normal 0.965926 0.258819 0
    outer loop
      vertex 3.79863 0.807424 0
      vertex 3.69342 1.20007 0
      vertex 3.69342 1.20007 8
    endloop
  endfacet
  facet normal 0.965926 0.258819 0
    outer loop
      vertex 3.79863 0.807424 8
      vertex 3.79863 0.807424 0
      vertex 3.69342 1.20007 8
    endloop
  endfacet
  facet normal 0.933581 0.358368 0
    outer loop
      vertex 3.69342 1.20007 0
      vertex 3.54775 1.57956 0
      vertex 3.54775 1.57956 8
    endloop
  endfacet
  facet normal 0.933581 0.358368 0
    outer loop
      vertex 3.69342 1.20007 8
      vertex 3.69342 1.20007 0
      vertex 3.54775 1.57956 8
    endloop
  endfacet
  facet normal 0.891007 0.45399 0
    outer loop
      vertex 3.54775 1.57956 0
      vertex 3.3632 1.94175 0
      vertex 3.3632 1.94175 8
    endloop
  endfacet
  facet normal 0.891007 0.45399 0
    outer loop
      vertex 3.54775 1.57956 8
      vertex 3.54775 1.57956 0
      vertex 3.3632 1.94175 8
    endloop
  endfacet
  facet normal 0.838671 0.544638 0
    outer loop
      vertex 3.3632 1.94175 0
      vertex 3.14181 2.28266 0
      vertex 3.14181 2.28266 8
    endloop
  endfacet
  facet normal 0.838671 0.544638 0
    outer loop
      vertex 3.3632 1.94175 8
      vertex 3.3632 1.94175 0
      vertex 3.14181 2.28266 8
    endloop
  endfacet
  facet normal 0.777145 0.629322 0
    outer loop
      vertex 3.14181 2.28266 0
      vertex 2.886 2.59856 0
      vertex 2.886 2.59856 8
    endloop
  endfacet
  facet normal 0.777145 0.629322 0
    outer loop
      vertex 3.14181 2.28266 8
      vertex 3.14181 2.28266 0
      vertex 2.886 2.59856 8
    endloop
  endfacet
  facet normal 0.707107 0.707107 0
    outer loop
      vertex 2.59856 2.886 0
      vertex 2.59856 2.886 8
      vertex 2.886 2.59856 0
    endloop
  endfacet
  facet normal 0.707107 0.707107 0
    outer loop
      vertex 2.886 2.59856 0
      vertex 2.59856 2.886 8
      vertex 2.886 2.59856 8
    endloop
  endfacet
  facet normal 0.629322 0.777145 0
    outer loop
      vertex 2.28266 3.14181 0
      vertex 2.28266 3.14181 8
      vertex 2.59856 2.886 0
    endloop
  endfacet
  facet normal 0.629322 0.777145 0
    outer loop
      vertex 2.59856 2.886 0
      vertex 2.28266 3.14181 8
      vertex 2.59856 2.886 8
    endloop
  endfacet
  facet normal 0.544638 0.838671 0
    outer loop
      vertex 1.94175 3.3632 0
      vertex 1.94175 3.3632 8
      vertex 2.28266 3.14181 0
    endloop
  endfacet
  facet normal 0.544638 0.838671 0
    outer loop
      vertex 2.28266 3.14181 0
      vertex 1.94175 3.3632 8
      vertex 2.28266 3.14181 8
    endloop
  endfacet
  facet normal 0.45399 0.891007 0
    outer loop
      vertex 1.57956 3.54775 0
      vertex 1.57956 3.54775 8
      vertex 1.94175 3.3632 0
    endloop
  endfacet
  facet normal 0.45399 0.891007 0
    outer loop
      vertex 1.94175 3.3632 0
      vertex 1.57956 3.54775 8
      vertex 1.94175 3.3632 8
    endloop
  endfacet
  facet normal 0.358368 0.933581 0
    outer loop
      vertex 1.20007 3.69342 0
      vertex 1.20007 3.69342 8
      vertex 1.57956 3.54775 0
    endloop
  endfacet
  facet normal 0.358368 0.933581 0
    outer loop
      vertex 1.57956 3.54775 0
      vertex 1.20007 3.69342 8
      vertex 1.57956 3.54775 8
    endloop
  endfacet
  facet normal 0.258819 0.965926 0
    outer loop
      vertex 0.807424 3.79863 0
      vertex 0.807424 3.79863 8
      vertex 1.20007 3.69342 0
    endloop
  endfacet
  facet normal 0.258819 0.965926 0
    outer loop
      vertex 1.20007 3.69342 0
      vertex 0.807424 3.79863 8
      vertex 1.20007 3.69342 8
    endloop
  endfacet
  facet normal 0.156436 0.987688 0
    outer loop
      vertex 0.405936 3.86222 0
      vertex 0.405936 3.86222 8
      vertex 0.807424 3.79863 0
    endloop
  endfacet
  facet normal 0.156436 0.987688 0
    outer loop
      vertex 0.807424 3.79863 0
      vertex 0.405936 3.86222 8
      vertex 0.807424 3.79863 8
    endloop
  endfacet
  facet normal 0.0523355 0.99863 0
    outer loop
      vertex 0 3.88349 0
      vertex 0 3.88349 8
      vertex 0.405936 3.86222 0
    endloop
  endfacet
  facet normal 0.0523355 0.99863 0
    outer loop
      vertex 0.405936 3.86222 0
      vertex 0 3.88349 8
      vertex 0.405936 3.86222 8
    endloop
  endfacet
  facet normal -0.0523355 0.99863 0
    outer loop
      vertex -0.405936 3.86222 0
      vertex -0.405936 3.86222 8
      vertex 0 3.88349 0
    endloop
  endfacet
  facet normal -0.0523355 0.99863 0
    outer loop
      vertex 0 3.88349 0
      vertex -0.405936 3.86222 8
      vertex 0 3.88349 8
    endloop
  endfacet
  facet normal -0.156436 0.987688 0
    outer loop
      vertex -0.807424 3.79863 0
      vertex -0.807424 3.79863 8
      vertex -0.405936 3.86222 0
    endloop
  endfacet
  facet normal -0.156436 0.987688 0
    outer loop
      vertex -0.405936 3.86222 0
      vertex -0.807424 3.79863 8
      vertex -0.405936 3.86222 8
    endloop
  endfacet
  facet normal -0.258819 0.965926 0
    outer loop
      vertex -1.20007 3.69342 0
      vertex -1.20007 3.69342 8
      vertex -0.807424 3.79863 0
    endloop
  endfacet
  facet normal -0.258819 0.965926 0
    outer loop
      vertex -0.807424 3.79863 0
      vertex -1.20007 3.69342 8
      vertex -0.807424 3.79863 8
    endloop
  endfacet
  facet normal -0.358368 0.933581 0
    outer loop
      vertex -1.57956 3.54775 0
      vertex -1.57956 3.54775 8
      vertex -1.20007 3.69342 0
    endloop
  endfacet
  facet normal -0.358368 0.933581 0
    outer loop
      vertex -1.20007 3.69342 0
      vertex -1.57956 3.54775 8
      vertex -1.20007 3.69342 8
    endloop
  endfacet
  facet normal -0.45399 0.891007 0
    outer loop
      vertex -1.94175 3.3632 0
      vertex -1.94175 3.3632 8
      vertex -1.57956 3.54775 0
    endloop
  endfacet
  facet normal -0.45399 0.891007 0
    outer loop
      vertex -1.57956 3.54775 0
      vertex -1.94175 3.3632 8
      vertex -1.57956 3.54775 8
    endloop
  endfacet
  facet normal -0.544638 0.838671 0
    outer loop
      vertex -2.28266 3.14181 0
      vertex -2.28266 3.14181 8
      vertex -1.94175 3.3632 0
    endloop
  endfacet
  facet normal -0.544638 0.838671 0
    outer loop
      vertex -1.94175 3.3632 0
      vertex -2.28266 3.14181 8
      vertex -1.94175 3.3632 8
    endloop
  endfacet
  facet normal -0.629322 0.777145 0
    outer loop
      vertex -2.59856 2.886 0
      vertex -2.59856 2.886 8
      vertex -2.28266 3.14181 0
    endloop
  endfacet
  facet normal -0.629322 0.777145 0
    outer loop
      vertex -2.28266 3.14181 0
      vertex -2.59856 2.886 8
      vertex -2.28266 3.14181 8
    endloop
  endfacet
  facet normal -0.707107 0.707107 0
    outer loop
      vertex -2.886 2.59856 0
      vertex -2.886 2.59856 8
      vertex -2.59856 2.886 0
    endloop
  endfacet
  facet normal -0.707107 0.707107 0
    outer loop
      vertex -2.59856 2.886 0
      vertex -2.886 2.59856 8
      vertex -2.59856 2.886 8
    endloop
  endfacet
  facet normal -0.777145 0.629322 0
    outer loop
      vertex -3.14181 2.28266 0
      vertex -3.14181 2.28266 8
      vertex -2.886 2.59856 0
    endloop
  endfacet
  facet normal -0.777145 0.629322 0
    outer loop
      vertex -2.886 2.59856 0
      vertex -3.14181 2.28266 8
      vertex -2.886 2.59856 8
    endloop
  endfacet
  facet normal -0.838671 0.544638 0
    outer loop
      vertex -3.3632 1.94175 0
      vertex -3.3632 1.94175 8
      vertex -3.14181 2.28266 0
    endloop
  endfacet
  facet normal -0.838671 0.544638 0
    outer loop
      vertex -3.14181 2.28266 0
      vertex -3.3632 1.94175 8
      vertex -3.14181 2.28266 8
    endloop
  endfacet
  facet normal -0.891007 0.45399 0
    outer loop
      vertex -3.54775 1.57956 0
      vertex -3.54775 1.57956 8
      vertex -3.3632 1.94175 0
    endloop
  endfacet
  facet normal -0.891007 0.45399 0
    outer loop
      vertex -3.3632 1.94175 0
      vertex -3.54775 1.57956 8
      vertex -3.3632 1.94175 8
    endloop
  endfacet
  facet normal -0.933581 0.358368 0
    outer loop
      vertex -3.69342 1.20007 0
      vertex -3.69342 1.20007 8
      vertex -3.54775 1.57956 0
    endloop
  endfacet
  facet normal -0.933581 0.358368 0
    outer loop
      vertex -3.54775 1.57956 0
      vertex -3.69342 1.20007 8
      vertex -3.54775 1.57956 8
    endloop
  endfacet
  facet normal -0.965926 0.258819 0
    outer loop
      vertex -3.79863 0.807424 0
      vertex -3.79863 0.807424 8
      vertex -3.69342 1.20007 0
    endloop
  endfacet
  facet normal -0.965926 0.258819 0
    outer loop
      vertex -3.69342 1.20007 0
      vertex -3.79863 0.807424 8
      vertex -3.69342 1.20007 8
    endloop
  endfacet
  facet normal -0.987688 0.156436 0
    outer loop
      vertex -3.86222 0.405936 0
      vertex -3.86222 0.405936 8
      vertex -3.79863 0.807424 0
    endloop
  endfacet
  facet normal -0.987688 0.156436 0
    outer loop
      vertex -3.79863 0.807424 0
      vertex -3.86222 0.405936 8
      vertex -3.79863 0.807424 8
    endloop
  endfacet
  facet normal 0.99863 -0.0523352 0
    outer loop
      vertex -0.994522 0.104528 0
      vertex -0.994522 0.104528 8
      vertex -1 0 8
    endloop
  endfacet
  facet normal 0.99863 -0.0523352 0
    outer loop
      vertex -1 0 0
      vertex -0.994522 0.104528 0
      vertex -1 0 8
    endloop
  endfacet
  facet normal 0.99863 0.0523352 0
    outer loop
      vertex -1 0 8
      vertex -0.994522 -0.104528 8
      vertex -0.994522 -0.104528 0
    endloop
  endfacet
  facet normal 0.99863 0.0523352 0
    outer loop
      vertex -1 0 0
      vertex -1 0 8
      vertex -0.994522 -0.104528 0
    endloop
  endfacet
  facet normal 0.987689 -0.156431 0
    outer loop
      vertex -0.978148 0.207912 0
      vertex -0.978148 0.207912 8
      vertex -0.994522 0.104528 8
    endloop
  endfacet
  facet normal 0.987689 -0.156431 0
    outer loop
      vertex -0.994522 0.104528 0
      vertex -0.978148 0.207912 0
      vertex -0.994522 0.104528 8
    endloop
  endfacet
  facet normal 0.965926 -0.258819 0
    outer loop
      vertex -0.951057 0.309017 0
      vertex -0.951057 0.309017 8
      vertex -0.978148 0.207912 8
    endloop
  endfacet
  facet normal 0.965926 -0.258819 0
    outer loop
      vertex -0.978148 0.207912 0
      vertex -0.951057 0.309017 0
      vertex -0.978148 0.207912 8
    endloop
  endfacet
  facet normal 0.933578 -0.358375 0
    outer loop
      vertex -0.913545 0.406737 0
      vertex -0.913545 0.406737 8
      vertex -0.951057 0.309017 8
    endloop
  endfacet
  facet normal 0.933578 -0.358375 0
    outer loop
      vertex -0.951057 0.309017 0
      vertex -0.913545 0.406737 0
      vertex -0.951057 0.309017 8
    endloop
  endfacet
  facet normal 0.891006 -0.453991 0
    outer loop
      vertex -0.866025 0.5 0
      vertex -0.866025 0.5 8
      vertex -0.913545 0.406737 8
    endloop
  endfacet
  facet normal 0.891006 -0.453991 0
    outer loop
      vertex -0.913545 0.406737 0
      vertex -0.866025 0.5 0
      vertex -0.913545 0.406737 8
    endloop
  endfacet
  facet normal 0.838672 -0.544637 0
    outer loop
      vertex -0.809017 0.587785 0
      vertex -0.809017 0.587785 8
      vertex -0.866025 0.5 8
    endloop
  endfacet
  facet normal 0.838672 -0.544637 0
    outer loop
      vertex -0.866025 0.5 0
      vertex -0.809017 0.587785 0
      vertex -0.866025 0.5 8
    endloop
  endfacet
  facet normal 0.777149 -0.629316 0
    outer loop
      vertex -0.743145 0.669131 0
      vertex -0.743145 0.669131 8
      vertex -0.809017 0.587785 8
    endloop
  endfacet
  facet normal 0.777149 -0.629316 0
    outer loop
      vertex -0.809017 0.587785 0
      vertex -0.743145 0.669131 0
      vertex -0.809017 0.587785 8
    endloop
  endfacet
  facet normal 0.707107 -0.707107 0
    outer loop
      vertex -0.669131 0.743145 0
      vertex -0.669131 0.743145 8
      vertex -0.743145 0.669131 8
    endloop
  endfacet
  facet normal 0.707107 -0.707107 0
    outer loop
      vertex -0.743145 0.669131 0
      vertex -0.669131 0.743145 0
      vertex -0.743145 0.669131 8
    endloop
  endfacet
  facet normal 0.629316 -0.777149 0
    outer loop
      vertex -0.587785 0.809017 0
      vertex -0.587785 0.809017 8
      vertex -0.669131 0.743145 8
    endloop
  endfacet
  facet normal 0.629316 -0.777149 0
    outer loop
      vertex -0.669131 0.743145 0
      vertex -0.587785 0.809017 0
      vertex -0.669131 0.743145 8
    endloop
  endfacet
  facet normal 0.544637 -0.838672 0
    outer loop
      vertex -0.5 0.866025 0
      vertex -0.5 0.866025 8
      vertex -0.587785 0.809017 8
    endloop
  endfacet
  facet normal 0.544637 -0.838672 0
    outer loop
      vertex -0.587785 0.809017 0
      vertex -0.5 0.866025 0
      vertex -0.587785 0.809017 8
    endloop
  endfacet
  facet normal 0.453991 -0.891006 0
    outer loop
      vertex -0.406737 0.913545 0
      vertex -0.406737 0.913545 8
      vertex -0.5 0.866025 8
    endloop
  endfacet
  facet normal 0.453991 -0.891006 0
    outer loop
      vertex -0.5 0.866025 0
      vertex -0.406737 0.913545 0
      vertex -0.5 0.866025 8
    endloop
  endfacet
  facet normal 0.358375 -0.933578 0
    outer loop
      vertex -0.309017 0.951057 0
      vertex -0.309017 0.951057 8
      vertex -0.406737 0.913545 8
    endloop
  endfacet
  facet normal 0.358375 -0.933578 0
    outer loop
      vertex -0.406737 0.913545 0
      vertex -0.309017 0.951057 0
      vertex -0.406737 0.913545 8
    endloop
  endfacet
  facet normal 0.258819 -0.965926 0
    outer loop
      vertex -0.207912 0.978148 0
      vertex -0.207912 0.978148 8
      vertex -0.309017 0.951057 8
    endloop
  endfacet
  facet normal 0.258819 -0.965926 0
    outer loop
      vertex -0.309017 0.951057 0
      vertex -0.207912 0.978148 0
      vertex -0.309017 0.951057 8
    endloop
  endfacet
  facet normal 0.156431 -0.987689 0
    outer loop
      vertex -0.104528 0.994522 0
      vertex -0.104528 0.994522 8
      vertex -0.207912 0.978148 8
    endloop
  endfacet
  facet normal 0.156431 -0.987689 0
    outer loop
      vertex -0.207912 0.978148 0
      vertex -0.104528 0.994522 0
      vertex -0.207912 0.978148 8
    endloop
  endfacet
  facet normal 0.0523352 -0.99863 0
    outer loop
      vertex 0 1 0
      vertex 0 1 8
      vertex -0.104528 0.994522 8
    endloop
  endfacet
  facet normal 0.0523352 -0.99863 0
    outer loop
      vertex -0.104528 0.994522 0
      vertex 0 1 0
      vertex -0.104528 0.994522 8
    endloop
  endfacet
  facet normal -0.0523352 -0.99863 0
    outer loop
      vertex 0.104528 0.994522 0
      vertex 0.104528 0.994522 8
      vertex 0 1 8
    endloop
  endfacet
  facet normal -0.0523352 -0.99863 0
    outer loop
      vertex 0 1 0
      vertex 0.104528 0.994522 0
      vertex 0 1 8
    endloop
  endfacet
  facet normal -0.156431 -0.987689 0
    outer loop
      vertex 0.207912 0.978148 0
      vertex 0.207912 0.978148 8
      vertex 0.104528 0.994522 8
    endloop
  endfacet
  facet normal -0.156431 -0.987689 0
    outer loop
      vertex 0.104528 0.994522 0
      vertex 0.207912 0.978148 0
      vertex 0.104528 0.994522 8
    endloop
  endfacet
  facet normal -0.258819 -0.965926 0
    outer loop
      vertex 0.309017 0.951057 0
      vertex 0.309017 0.951057 8
      vertex 0.207912 0.978148 8
    endloop
  endfacet
  facet normal -0.258819 -0.965926 0
    outer loop
      vertex 0.207912 0.978148 0
      vertex 0.309017 0.951057 0
      vertex 0.207912 0.978148 8
    endloop
  endfacet
  facet normal -0.358375 -0.933578 0
    outer loop
      vertex 0.406737 0.913545 0
      vertex 0.406737 0.913545 8
      vertex 0.309017 0.951057 8
    endloop
  endfacet
  facet normal -0.358375 -0.933578 0
    outer loop
      vertex 0.309017 0.951057 0
      vertex 0.406737 0.913545 0
      vertex 0.309017 0.951057 8
    endloop
  endfacet
  facet normal -0.453991 -0.891006 0
    outer loop
      vertex 0.5 0.866025 0
      vertex 0.5 0.866025 8
      vertex 0.406737 0.913545 8
    endloop
  endfacet
  facet normal -0.453991 -0.891006 0
    outer loop
      vertex 0.406737 0.913545 0
      vertex 0.5 0.866025 0
      vertex 0.406737 0.913545 8
    endloop
  endfacet
  facet normal -0.544637 -0.838672 0
    outer loop
      vertex 0.587785 0.809017 0
      vertex 0.587785 0.809017 8
      vertex 0.5 0.866025 8
    endloop
  endfacet
  facet normal -0.544637 -0.838672 0
    outer loop
      vertex 0.5 0.866025 0
      vertex 0.587785 0.809017 0
      vertex 0.5 0.866025 8
    endloop
  endfacet
  facet normal -0.629316 -0.777149 0
    outer loop
      vertex 0.669131 0.743145 0
      vertex 0.669131 0.743145 8
      vertex 0.587785 0.809017 8
    endloop
  endfacet
  facet normal -0.629316 -0.777149 0
    outer loop
      vertex 0.587785 0.809017 0
      vertex 0.669131 0.743145 0
      vertex 0.587785 0.809017 8
    endloop
  endfacet
  facet normal -0.707107 -0.707107 0
    outer loop
      vertex 0.743145 0.669131 0
      vertex 0.743145 0.669131 8
      vertex 0.669131 0.743145 8
    endloop
  endfacet
  facet normal -0.707107 -0.707107 0
    outer loop
      vertex 0.669131 0.743145 0
      vertex 0.743145 0.669131 0
      vertex 0.669131 0.743145 8
    endloop
  endfacet
  facet normal -0.777149 -0.629316 0
    outer loop
      vertex 0.809017 0.587785 8
      vertex 0.743145 0.669131 8
      vertex 0.809017 0.587785 0
    endloop
  endfacet
  facet normal -0.777149 -0.629316 0
    outer loop
      vertex 0.809017 0.587785 0
      vertex 0.743145 0.669131 8
      vertex 0.743145 0.669131 0
    endloop
  endfacet
  facet normal -0.838672 -0.544637 0
    outer loop
      vertex 0.866025 0.5 8
      vertex 0.809017 0.587785 8
      vertex 0.866025 0.5 0
    endloop
  endfacet
  facet normal -0.838672 -0.544637 0
    outer loop
      vertex 0.866025 0.5 0
      vertex 0.809017 0.587785 8
      vertex 0.809017 0.587785 0
    endloop
  endfacet
  facet normal -0.891006 -0.453991 0
    outer loop
      vertex 0.913545 0.406737 8
      vertex 0.866025 0.5 8
      vertex 0.913545 0.406737 0
    endloop
  endfacet
  facet normal -0.891006 -0.453991 0
    outer loop
      vertex 0.913545 0.406737 0
      vertex 0.866025 0.5 8
      vertex 0.866025 0.5 0
    endloop
  endfacet
  facet normal -0.933578 -0.358375 0
    outer loop
      vertex 0.951057 0.309017 8
      vertex 0.913545 0.406737 8
      vertex 0.951057 0.309017 0
    endloop
  endfacet
  facet normal -0.933578 -0.358375 0
    outer loop
      vertex 0.951057 0.309017 0
      vertex 0.913545 0.406737 8
      vertex 0.913545 0.406737 0
    endloop
  endfacet
  facet normal -0.965926 -0.258819 0
    outer loop
      vertex 0.978148 0.207912 8
      vertex 0.951057 0.309017 8
      vertex 0.978148 0.207912 0
    endloop
  endfacet
  facet normal -0.965926 -0.258819 0
    outer loop
      vertex 0.978148 0.207912 0
      vertex 0.951057 0.309017 8
      vertex 0.951057 0.309017 0
    endloop
  endfacet
  facet normal -0.987689 -0.156431 0
    outer loop
      vertex 0.994522 0.104528 8
      vertex 0.978148 0.207912 8
      vertex 0.994522 0.104528 0
    endloop
  endfacet
  facet normal -0.987689 -0.156431 0
    outer loop
      vertex 0.994522 0.104528 0
      vertex 0.978148 0.207912 8
      vertex 0.978148 0.207912 0
    endloop
  endfacet
  facet normal -0.99863 -0.0523352 0
    outer loop
      vertex 1 0 8
      vertex 0.994522 0.104528 8
      vertex 1 0 0
    endloop
  endfacet
  facet normal -0.99863 -0.0523352 0
    outer loop
      vertex 1 0 0
      vertex 0.994522 0.104528 8
      vertex 0.994522 0.104528 0
    endloop
  endfacet
  facet normal -0.99863 0.0523352 0
    outer loop
      vertex 1 0 8
      vertex 1 0 0
      vertex 0.994522 -0.104528 8
    endloop
  endfacet
  facet normal -0.99863 0.0523352 0
    outer loop
      vertex 0.994522 -0.104528 8
      vertex 1 0 0
      vertex 0.994522 -0.104528 0
    endloop
  endfacet
  facet normal -0.987689 0.156431 0
    outer loop
      vertex 0.994522 -0.104528 8
      vertex 0.994522 -0.104528 0
      vertex 0.978148 -0.207912 8
    endloop
  endfacet
  facet normal -0.987689 0.156431 0
    outer loop
      vertex 0.978148 -0.207912 8
      vertex 0.994522 -0.104528 0
      vertex 0.978148 -0.207912 0
    endloop
  endfacet
  facet normal -0.965926 0.258819 0
    outer loop
      vertex 0.978148 -0.207912 8
      vertex 0.978148 -0.207912 0
      vertex 0.951057 -0.309017 8
    endloop
  endfacet
  facet normal -0.965926 0.258819 0
    outer loop
      vertex 0.951057 -0.309017 8
      vertex 0.978148 -0.207912 0
      vertex 0.951057 -0.309017 0
    endloop
  endfacet
  facet normal -0.933578 0.358375 0
    outer loop
      vertex 0.951057 -0.309017 8
      vertex 0.951057 -0.309017 0
      vertex 0.913545 -0.406737 8
    endloop
  endfacet
  facet normal -0.933578 0.358375 0
    outer loop
      vertex 0.913545 -0.406737 8
      vertex 0.951057 -0.309017 0
      vertex 0.913545 -0.406737 0
    endloop
  endfacet
  facet normal -0.891006 0.453991 0
    outer loop
      vertex 0.913545 -0.406737 8
      vertex 0.913545 -0.406737 0
      vertex 0.866025 -0.5 8
    endloop
  endfacet
  facet normal -0.891006 0.453991 0
    outer loop
      vertex 0.866025 -0.5 8
      vertex 0.913545 -0.406737 0
      vertex 0.866025 -0.5 0
    endloop
  endfacet
  facet normal -0.838672 0.544637 0
    outer loop
      vertex 0.866025 -0.5 8
      vertex 0.866025 -0.5 0
      vertex 0.809017 -0.587785 8
    endloop
  endfacet
  facet normal -0.838672 0.544637 0
    outer loop
      vertex 0.809017 -0.587785 8
      vertex 0.866025 -0.5 0
      vertex 0.809017 -0.587785 0
    endloop
  endfacet
  facet normal -0.777149 0.629316 0
    outer loop
      vertex 0.809017 -0.587785 8
      vertex 0.809017 -0.587785 0
      vertex 0.743145 -0.669131 8
    endloop
  endfacet
  facet normal -0.777149 0.629316 0
    outer loop
      vertex 0.743145 -0.669131 8
      vertex 0.809017 -0.587785 0
      vertex 0.743145 -0.669131 0
    endloop
  endfacet
  facet normal -0.707107 0.707107 0
    outer loop
      vertex 0.743145 -0.669131 8
      vertex 0.743145 -0.669131 0
      vertex 0.669131 -0.743145 8
    endloop
  endfacet
  facet normal -0.707107 0.707107 0
    outer loop
      vertex 0.669131 -0.743145 8
      vertex 0.743145 -0.669131 0
      vertex 0.669131 -0.743145 0
    endloop
  endfacet
  facet normal -0.629316 0.777149 0
    outer loop
      vertex 0.669131 -0.743145 8
      vertex 0.669131 -0.743145 0
      vertex 0.587785 -0.809017 8
    endloop
  endfacet
  facet normal -0.629316 0.777149 0
    outer loop
      vertex 0.587785 -0.809017 8
      vertex 0.669131 -0.743145 0
      vertex 0.587785 -0.809017 0
    endloop
  endfacet
  facet normal -0.544637 0.838672 0
    outer loop
      vertex 0.587785 -0.809017 8
      vertex 0.587785 -0.809017 0
      vertex 0.5 -0.866025 8
    endloop
  endfacet
  facet normal -0.544637 0.838672 0
    outer loop
      vertex 0.5 -0.866025 8
      vertex 0.587785 -0.809017 0
      vertex 0.5 -0.866025 0
    endloop
  endfacet
  facet normal -0.453991 0.891006 0
    outer loop
      vertex 0.5 -0.866025 8
      vertex 0.5 -0.866025 0
      vertex 0.406737 -0.913545 8
    endloop
  endfacet
  facet normal -0.453991 0.891006 0
    outer loop
      vertex 0.406737 -0.913545 8
      vertex 0.5 -0.866025 0
      vertex 0.406737 -0.913545 0
    endloop
  endfacet
  facet normal -0.358375 0.933578 0
    outer loop
      vertex 0.406737 -0.913545 8
      vertex 0.406737 -0.913545 0
      vertex 0.309017 -0.951057 8
    endloop
  endfacet
  facet normal -0.358375 0.933578 0
    outer loop
      vertex 0.309017 -0.951057 8
      vertex 0.406737 -0.913545 0
      vertex 0.309017 -0.951057 0
    endloop
  endfacet
  facet normal -0.258819 0.965926 0
    outer loop
      vertex 0.309017 -0.951057 8
      vertex 0.309017 -0.951057 0
      vertex 0.207912 -0.978148 8
    endloop
  endfacet
  facet normal -0.258819 0.965926 0
    outer loop
      vertex 0.207912 -0.978148 8
      vertex 0.309017 -0.951057 0
      vertex 0.207912 -0.978148 0
    endloop
  endfacet
  facet normal -0.156431 0.987689 0
    outer loop
      vertex 0.207912 -0.978148 8
      vertex 0.207912 -0.978148 0
      vertex 0.104528 -0.994522 8
    endloop
  endfacet
  facet normal -0.156431 0.987689 0
    outer loop
      vertex 0.104528 -0.994522 8
      vertex 0.207912 -0.978148 0
      vertex 0.104528 -0.994522 0
    endloop
  endfacet
  facet normal -0.0523352 0.99863 0
    outer loop
      vertex 0.104528 -0.994522 8
      vertex 0.104528 -0.994522 0
      vertex 0 -1 8
    endloop
  endfacet
  facet normal -0.0523352 0.99863 0
    outer loop
      vertex 0 -1 8
      vertex 0.104528 -0.994522 0
      vertex 0 -1 0
    endloop
  endfacet
  facet normal 0.0523352 0.99863 0
    outer loop
      vertex 0 -1 8
      vertex 0 -1 0
      vertex -0.104528 -0.994522 8
    endloop
  endfacet
  facet normal 0.0523352 0.99863 0
    outer loop
      vertex -0.104528 -0.994522 8
      vertex 0 -1 0
      vertex -0.104528 -0.994522 0
    endloop
  endfacet
  facet normal 0.156431 0.987689 0
    outer loop
      vertex -0.104528 -0.994522 8
      vertex -0.104528 -0.994522 0
      vertex -0.207912 -0.978148 8
    endloop
  endfacet
  facet normal 0.156431 0.987689 0
    outer loop
      vertex -0.207912 -0.978148 8
      vertex -0.104528 -0.994522 0
      vertex -0.207912 -0.978148 0
    endloop
  endfacet
  facet normal 0.258819 0.965926 0
    outer loop
      vertex -0.207912 -0.978148 8
      vertex -0.207912 -0.978148 0
      vertex -0.309017 -0.951057 8
    endloop
  endfacet
  facet normal 0.258819 0.965926 0
    outer loop
      vertex -0.309017 -0.951057 8
      vertex -0.207912 -0.978148 0
      vertex -0.309017 -0.951057 0
    endloop
  endfacet
  facet normal 0.358375 0.933578 0
    outer loop
      vertex -0.309017 -0.951057 8
      vertex -0.309017 -0.951057 0
      vertex -0.406737 -0.913545 8
    endloop
  endfacet
  facet normal 0.358375 0.933578 0
    outer loop
      vertex -0.406737 -0.913545 8
      vertex -0.309017 -0.951057 0
      vertex -0.406737 -0.913545 0
    endloop
  endfacet
  facet normal 0.453991 0.891006 0
    outer loop
      vertex -0.406737 -0.913545 8
      vertex -0.406737 -0.913545 0
      vertex -0.5 -0.866025 8
    endloop
  endfacet
  facet normal 0.453991 0.891006 0
    outer loop
      vertex -0.5 -0.866025 8
      vertex -0.406737 -0.913545 0
      vertex -0.5 -0.866025 0
    endloop
  endfacet
  facet normal 0.544637 0.838672 0
    outer loop
      vertex -0.5 -0.866025 8
      vertex -0.5 -0.866025 0
      vertex -0.587785 -0.809017 8
    endloop
  endfacet
  facet normal 0.544637 0.838672 0
    outer loop
      vertex -0.587785 -0.809017 8
      vertex -0.5 -0.866025 0
      vertex -0.587785 -0.809017 0
    endloop
  endfacet
  facet normal 0.629316 0.777149 0
    outer loop
      vertex -0.587785 -0.809017 8
      vertex -0.587785 -0.809017 0
      vertex -0.669131 -0.743145 8
    endloop
  endfacet
  facet normal 0.629316 0.777149 0
    outer loop
      vertex -0.669131 -0.743145 8
      vertex -0.587785 -0.809017 0
      vertex -0.669131 -0.743145 0
    endloop
  endfacet
  facet normal 0.707107 0.707107 0
    outer loop
      vertex -0.669131 -0.743145 8
      vertex -0.669131 -0.743145 0
      vertex -0.743145 -0.669131 8
    endloop
  endfacet
  facet normal 0.707107 0.707107 0
    outer loop
      vertex -0.743145 -0.669131 8
      vertex -0.669131 -0.743145 0
      vertex -0.743145 -0.669131 0
    endloop
  endfacet
  facet normal 0.777149 0.629316 0
    outer loop
      vertex -0.809017 -0.587785 8
      vertex -0.743145 -0.669131 8
      vertex -0.743145 -0.669131 0
    endloop
  endfacet
  facet normal 0.777149 0.629316 0
    outer loop
      vertex -0.809017 -0.587785 0
      vertex -0.809017 -0.587785 8
      vertex -0.743145 -0.669131 0
    endloop
  endfacet
  facet normal 0.838672 0.544637 0
    outer loop
      vertex -0.866025 -0.5 8
      vertex -0.809017 -0.587785 8
      vertex -0.809017 -0.587785 0
    endloop
  endfacet
  facet normal 0.838672 0.544637 0
    outer loop
      vertex -0.866025 -0.5 0
      vertex -0.866025 -0.5 8
      vertex -0.809017 -0.587785 0
    endloop
  endfacet
  facet normal 0.891006 0.453991 0
    outer loop
      vertex -0.913545 -0.406737 8
      vertex -0.866025 -0.5 8
      vertex -0.866025 -0.5 0
    endloop
  endfacet
  facet normal 0.891006 0.453991 0
    outer loop
      vertex -0.913545 -0.406737 0
      vertex -0.913545 -0.406737 8
      vertex -0.866025 -0.5 0
    endloop
  endfacet
  facet normal 0.933578 0.358375 0
    outer loop
      vertex -0.951057 -0.309017 8
      vertex -0.913545 -0.406737 8
      vertex -0.913545 -0.406737 0
    endloop
  endfacet
  facet normal 0.933578 0.358375 0
    outer loop
      vertex -0.951057 -0.309017 0
      vertex -0.951057 -0.309017 8
      vertex -0.913545 -0.406737 0
    endloop
  endfacet
  facet normal 0.965926 0.258819 0
    outer loop
      vertex -0.978148 -0.207912 8
      vertex -0.951057 -0.309017 8
      vertex -0.951057 -0.309017 0
    endloop
  endfacet
  facet normal 0.965926 0.258819 0
    outer loop
      vertex -0.978148 -0.207912 0
      vertex -0.978148 -0.207912 8
      vertex -0.951057 -0.309017 0
    endloop
  endfacet
  facet normal 0.987689 0.156431 0
    outer loop
      vertex -0.994522 -0.104528 8
      vertex -0.978148 -0.207912 8
      vertex -0.978148 -0.207912 0
    endloop
  endfacet
  facet normal 0.987689 0.156431 0
    outer loop
      vertex -0.994522 -0.104528 0
      vertex -0.994522 -0.104528 8
      vertex -0.978148 -0.207912 0
    endloop
  endfacet
  facet normal 0 0 1
    outer loop
      vertex -3.86222 0.405936 8
      vertex -3.88349 0 8
      vertex -3.86222 -0.405936 8
    endloop
  endfacet
  facet normal 0 0 1
    outer loop
      vertex -3.69342 -1.20007 8
      vertex -3.86222 0.405936 8
      vertex -3.79863 -0.807424 8
    endloop
  endfacet
  facet normal 0 0 1
    outer loop
      vertex -3.79863 -0.807424 8
      vertex -3.86222 0.405936 8
      vertex -3.86222 -0.405936 8
    endloop
  endfacet
  facet normal 0 0 1
    outer loop
      vertex -3.54775 -1.57956 8
      vertex -3.86222 0.405936 8
      vertex -3.69342 -1.20007 8
    endloop
  endfacet
  facet normal 0 0 1
    outer loop
      vertex -3.3632 -1.94175 8
      vertex -3.86222 0.405936 8
      vertex -3.54775 -1.57956 8
    endloop
  endfacet
  facet normal 0 0 1
    outer loop
      vertex -3.14181 -2.28266 8
      vertex -3.86222 0.405936 8
      vertex -3.3632 -1.94175 8
    endloop
  endfacet
  facet normal 0 0 1
    outer loop
      vertex -2.886 -2.59856 8
      vertex -3.86222 0.405936 8
      vertex -3.14181 -2.28266 8
    endloop
  endfacet
  facet normal 0 0 1
    outer loop
      vertex -2.59856 -2.886 8
      vertex -3.86222 0.405936 8
      vertex -2.886 -2.59856 8
    endloop
  endfacet
  facet normal 0 0 1
    outer loop
      vertex -2.28266 -3.14181 8
      vertex -3.86222 0.405936 8
      vertex -2.59856 -2.886 8
    endloop
  endfacet
  facet normal 0 0 1
    outer loop
      vertex -1.94175 -3.3632 8
      vertex -3.86222 0.405936 8
      vertex -2.28266 -3.14181 8
    endloop
  endfacet
  facet normal 0 0 1
    outer loop
      vertex -1.57956 -3.54775 8
      vertex -3.86222 0.405936 8
      vertex -1.94175 -3.3632 8
    endloop
  endfacet
  facet normal 0 0 1
    outer loop
      vertex -1.20007 -3.69342 8
      vertex -3.86222 0.405936 8
      vertex -1.57956 -3.54775 8
    endloop
  endfacet
  facet normal 0 0 1
    outer loop
      vertex -0.807424 -3.79863 8
      vertex -3.86222 0.405936 8
      vertex -1.20007 -3.69342 8
    endloop
  endfacet
  facet normal 0 0 1
    outer loop
      vertex -0.405936 -3.86222 8
      vertex -3.86222 0.405936 8
      vertex -0.807424 -3.79863 8
    endloop
  endfacet
  facet normal 0 0 1
    outer loop
      vertex 0 -3.88349 8
      vertex -3.86222 0.405936 8
      vertex -0.405936 -3.86222 8
    endloop
  endfacet
  facet normal 0 0 1
    outer loop
      vertex 0.405936 -3.86222 8
      vertex -3.86222 0.405936 8
      vertex 0 -3.88349 8
    endloop
  endfacet
  facet normal 0 0 1
    outer loop
      vertex 0.807424 -3.79863 8
      vertex -3.86222 0.405936 8
      vertex 0.405936 -3.86222 8
    endloop
  endfacet
  facet normal 0 0 1
    outer loop
      vertex 1.20007 -3.69342 8
      vertex -3.86222 0.405936 8
      vertex 0.807424 -3.79863 8
    endloop
  endfacet
  facet normal 0 0 1
    outer loop
      vertex 1.57956 -3.54775 8
      vertex -3.86222 0.405936 8
      vertex 1.20007 -3.69342 8
    endloop
  endfacet
  facet normal 0 0 1
    outer loop
      vertex 1.94175 -3.3632 8
      vertex -3.86222 0.405936 8
      vertex 1.57956 -3.54775 8
    endloop
  endfacet
  facet normal 0 0 1
    outer loop
      vertex 2.28266 -3.14181 8
      vertex -3.86222 0.405936 8
      vertex 1.94175 -3.3632 8
    endloop
  endfacet
  facet normal 0 0 1
    outer loop
      vertex 2.59856 -2.886 8
      vertex -3.86222 0.405936 8
      vertex 2.28266 -3.14181 8
    endloop
  endfacet
  facet normal 0 0 1
    outer loop
      vertex 2.886 -2.59856 8
      vertex -3.86222 0.405936 8
      vertex 2.59856 -2.886 8
    endloop
  endfacet
  facet normal 0 0 1
    outer loop
      vertex 3.14181 -2.28266 8
      vertex -3.86222 0.405936 8
      vertex 2.886 -2.59856 8
    endloop
  endfacet
  facet normal 0 0 1
    outer loop
      vertex -0.309017 -0.951057 8
      vertex -3.86222 0.405936 8
      vertex 3.14181 -2.28266 8
    endloop
  endfacet
  facet normal 0 0 1
    outer loop
      vertex -0.406737 -0.913545 8
      vertex -0.5 -0.866025 8
      vertex -3.86222 0.405936 8
    endloop
  endfacet
  facet normal 0 0 1
    outer loop
      vertex 0.406737 -0.913545 8
      vertex 0.309017 -0.951057 8
      vertex 3.3632 -1.94175 8
    endloop
  endfacet
  facet normal 0 0 1
    outer loop
      vertex 0.866025 -0.5 8
      vertex 0.809017 -0.587785 8
      vertex 3.69342 -1.20007 8
    endloop
  endfacet
  facet normal 0 0 1
    outer loop
      vertex 0.951057 -0.309017 8
      vertex 0.913545 -0.406737 8
      vertex 3.79863 -0.807424 8
    endloop
  endfacet
  facet normal 0 0 1
    outer loop
      vertex -0.978148 0.207912 8
      vertex -0.951057 0.309017 8
      vertex -3.86222 0.405936 8
    endloop
  endfacet
  facet normal 0 0 1
    outer loop
      vertex 0.809017 0.587785 8
      vertex 0.866025 0.5 8
      vertex 3.79863 0.807424 8
    endloop
  endfacet
  facet normal 0 0 1
    outer loop
      vertex 0.587785 0.809017 8
      vertex 0.669131 0.743145 8
      vertex 3.69342 1.20007 8
    endloop
  endfacet
  facet normal 0 0 1
    outer loop
      vertex 3.3632 1.94175 8
      vertex -3.86222 0.405936 8
      vertex 3.54775 1.57956 8
    endloop
  endfacet
  facet normal 0 0 1
    outer loop
      vertex 3.14181 2.28266 8
      vertex -3.86222 0.405936 8
      vertex 3.3632 1.94175 8
    endloop
  endfacet
  facet normal 0 0 1
    outer loop
      vertex 2.886 2.59856 8
      vertex -3.86222 0.405936 8
      vertex 3.14181 2.28266 8
    endloop
  endfacet
  facet normal 0 0 1
    outer loop
      vertex 2.59856 2.886 8
      vertex -3.86222 0.405936 8
      vertex 2.886 2.59856 8
    endloop
  endfacet
  facet normal 0 0 1
    outer loop
      vertex 2.28266 3.14181 8
      vertex -3.86222 0.405936 8
      vertex 2.59856 2.886 8
    endloop
  endfacet
  facet normal 0 0 1
    outer loop
      vertex 1.94175 3.3632 8
      vertex -3.86222 0.405936 8
      vertex 2.28266 3.14181 8
    endloop
  endfacet
  facet normal 0 0 1
    outer loop
      vertex 1.57956 3.54775 8
      vertex -3.86222 0.405936 8
      vertex 1.94175 3.3632 8
    endloop
  endfacet
  facet normal 0 0 1
    outer loop
      vertex 1.20007 3.69342 8
      vertex -3.86222 0.405936 8
      vertex 1.57956 3.54775 8
    endloop
  endfacet
  facet normal 0 0 1
    outer loop
      vertex 0.807424 3.79863 8
      vertex -3.86222 0.405936 8
      vertex 1.20007 3.69342 8
    endloop
  endfacet
  facet normal 0 0 1
    outer loop
      vertex 0.405936 3.86222 8
      vertex -3.86222 0.405936 8
      vertex 0.807424 3.79863 8
    endloop
  endfacet
  facet normal 0 0 1
    outer loop
      vertex 0 3.88349 8
      vertex -3.86222 0.405936 8
      vertex 0.405936 3.86222 8
    endloop
  endfacet
  facet normal 0 0 1
    outer loop
      vertex -0.405936 3.86222 8
      vertex -3.86222 0.405936 8
      vertex 0 3.88349 8
    endloop
  endfacet
  facet normal 0 0 1
    outer loop
      vertex -0.807424 3.79863 8
      vertex -3.86222 0.405936 8
      vertex -0.405936 3.86222 8
    endloop
  endfacet
  facet normal 0 0 1
    outer loop
      vertex -1.20007 3.69342 8
      vertex -3.86222 0.405936 8
      vertex -0.807424 3.79863 8
    endloop
  endfacet
  facet normal 0 0 1
    outer loop
      vertex -1.57956 3.54775 8
      vertex -3.86222 0.405936 8
      vertex -1.20007 3.69342 8
    endloop
  endfacet
  facet normal 0 0 1
    outer loop
      vertex -1.94175 3.3632 8
      vertex -3.86222 0.405936 8
      vertex -1.57956 3.54775 8
    endloop
  endfacet
  facet normal 0 0 1
    outer loop
      vertex -2.28266 3.14181 8
      vertex -3.86222 0.405936 8
      vertex -1.94175 3.3632 8
    endloop
  endfacet
  facet normal 0 0 1
    outer loop
      vertex -2.59856 2.886 8
      vertex -3.86222 0.405936 8
      vertex -2.28266 3.14181 8
    endloop
  endfacet
  facet normal 0 0 1
    outer loop
      vertex -2.886 2.59856 8
      vertex -3.86222 0.405936 8
      vertex -2.59856 2.886 8
    endloop
  endfacet
  facet normal 0 0 1
    outer loop
      vertex -3.14181 2.28266 8
      vertex -3.86222 0.405936 8
      vertex -2.886 2.59856 8
    endloop
  endfacet
  facet normal 0 0 1
    outer loop
      vertex -3.3632 1.94175 8
      vertex -3.86222 0.405936 8
      vertex -3.14181 2.28266 8
    endloop
  endfacet
  facet normal 0 0 1
    outer loop
      vertex -3.54775 1.57956 8
      vertex -3.86222 0.405936 8
      vertex -3.3632 1.94175 8
    endloop
  endfacet
  facet normal 0 0 1
    outer loop
      vertex -3.69342 1.20007 8
      vertex -3.86222 0.405936 8
      vertex -3.54775 1.57956 8
    endloop
  endfacet
  facet normal 0 0 1
    outer loop
      vertex -3.79863 0.807424 8
      vertex -3.86222 0.405936 8
      vertex -3.69342 1.20007 8
    endloop
  endfacet
  facet normal 0 0 1
    outer loop
      vertex 0.669131 -0.743145 8
      vertex 0.587785 -0.809017 8
      vertex 3.54775 -1.57956 8
    endloop
  endfacet
  facet normal 0 0 1
    outer loop
      vertex -0.809017 -0.587785 8
      vertex -0.866025 -0.5 8
      vertex -3.86222 0.405936 8
    endloop
  endfacet
  facet normal 0 0 1
    outer loop
      vertex -0.994522 0.104528 8
      vertex -3.86222 0.405936 8
      vertex -1 0 8
    endloop
  endfacet
  facet normal 0 0 1
    outer loop
      vertex 0.5 0.866025 8
      vertex 0.587785 0.809017 8
      vertex 3.69342 1.20007 8
    endloop
  endfacet
  facet normal 0 0 1
    outer loop
      vertex -0.951057 0.309017 8
      vertex -0.913545 0.406737 8
      vertex -3.86222 0.405936 8
    endloop
  endfacet
  facet normal 0 0 1
    outer loop
      vertex 0.994522 -0.104528 8
      vertex 0.978148 -0.207912 8
      vertex 3.86222 -0.405936 8
    endloop
  endfacet
  facet normal 0 0 1
    outer loop
      vertex -0.866025 0.5 8
      vertex -0.809017 0.587785 8
      vertex -3.86222 0.405936 8
    endloop
  endfacet
  facet normal 0 0 1
    outer loop
      vertex 0.978148 0.207912 8
      vertex 0.994522 0.104528 8
      vertex 3.88349 0 8
    endloop
  endfacet
  facet normal 0 0 1
    outer loop
      vertex -0.866025 0.5 8
      vertex -3.86222 0.405936 8
      vertex -0.913545 0.406737 8
    endloop
  endfacet
  facet normal 0 0 1
    outer loop
      vertex -0.743145 0.669131 8
      vertex -0.669131 0.743145 8
      vertex -3.86222 0.405936 8
    endloop
  endfacet
  facet normal 0 0 1
    outer loop
      vertex 0.913545 0.406737 8
      vertex 0.951057 0.309017 8
      vertex 3.86222 0.405936 8
    endloop
  endfacet
  facet normal 0 0 1
    outer loop
      vertex -0.743145 0.669131 8
      vertex -3.86222 0.405936 8
      vertex -0.809017 0.587785 8
    endloop
  endfacet
  facet normal 0 0 1
    outer loop
      vertex -0.104528 0.994522 8
      vertex 0 1 8
      vertex 3.54775 1.57956 8
    endloop
  endfacet
  facet normal 0 0 1
    outer loop
      vertex 0.743145 0.669131 8
      vertex 0.809017 0.587785 8
      vertex 3.79863 0.807424 8
    endloop
  endfacet
  facet normal 0 0 1
    outer loop
      vertex -0.587785 0.809017 8
      vertex -3.86222 0.405936 8
      vertex -0.669131 0.743145 8
    endloop
  endfacet
  facet normal 0 0 1
    outer loop
      vertex -0.5 0.866025 8
      vertex -3.86222 0.405936 8
      vertex -0.587785 0.809017 8
    endloop
  endfacet
  facet normal 0 0 1
    outer loop
      vertex -0.406737 0.913545 8
      vertex -3.86222 0.405936 8
      vertex -0.5 0.866025 8
    endloop
  endfacet
  facet normal 0 0 1
    outer loop
      vertex -0.309017 0.951057 8
      vertex -3.86222 0.405936 8
      vertex -0.406737 0.913545 8
    endloop
  endfacet
  facet normal 0 0 1
    outer loop
      vertex -0.207912 0.978148 8
      vertex -3.86222 0.405936 8
      vertex -0.309017 0.951057 8
    endloop
  endfacet
  facet normal 0 0 1
    outer loop
      vertex 3.54775 1.57956 8
      vertex -3.86222 0.405936 8
      vertex -0.207912 0.978148 8
    endloop
  endfacet
  facet normal 0 0 1
    outer loop
      vertex 0 1 8
      vertex 0.104528 0.994522 8
      vertex 3.54775 1.57956 8
    endloop
  endfacet
  facet normal 0 0 1
    outer loop
      vertex 3.54775 1.57956 8
      vertex -0.207912 0.978148 8
      vertex -0.104528 0.994522 8
    endloop
  endfacet
  facet normal 0 0 1
    outer loop
      vertex 0.104528 0.994522 8
      vertex 0.207912 0.978148 8
      vertex 3.54775 1.57956 8
    endloop
  endfacet
  facet normal 0 0 1
    outer loop
      vertex 0.207912 0.978148 8
      vertex 0.309017 0.951057 8
      vertex 3.54775 1.57956 8
    endloop
  endfacet
  facet normal 0 0 1
    outer loop
      vertex 0.309017 0.951057 8
      vertex 0.406737 0.913545 8
      vertex 3.54775 1.57956 8
    endloop
  endfacet
  facet normal 0 0 1
    outer loop
      vertex 3.54775 1.57956 8
      vertex 0.406737 0.913545 8
      vertex 3.69342 1.20007 8
    endloop
  endfacet
  facet normal 0 0 1
    outer loop
      vertex 0.406737 0.913545 8
      vertex 0.5 0.866025 8
      vertex 3.69342 1.20007 8
    endloop
  endfacet
  facet normal 0 0 1
    outer loop
      vertex 3.69342 1.20007 8
      vertex 0.669131 0.743145 8
      vertex 3.79863 0.807424 8
    endloop
  endfacet
  facet normal 0 0 1
    outer loop
      vertex 0.669131 0.743145 8
      vertex 0.743145 0.669131 8
      vertex 3.79863 0.807424 8
    endloop
  endfacet
  facet normal 0 0 1
    outer loop
      vertex 3.79863 0.807424 8
      vertex 0.866025 0.5 8
      vertex 3.86222 0.405936 8
    endloop
  endfacet
  facet normal 0 0 1
    outer loop
      vertex 0.866025 0.5 8
      vertex 0.913545 0.406737 8
      vertex 3.86222 0.405936 8
    endloop
  endfacet
  facet normal 0 0 1
    outer loop
      vertex 3.86222 0.405936 8
      vertex 0.951057 0.309017 8
      vertex 3.88349 0 8
    endloop
  endfacet
  facet normal 0 0 1
    outer loop
      vertex 0.951057 0.309017 8
      vertex 0.978148 0.207912 8
      vertex 3.88349 0 8
    endloop
  endfacet
  facet normal 0 0 1
    outer loop
      vertex 3.88349 0 8
      vertex 0.994522 0.104528 8
      vertex 3.86222 -0.405936 8
    endloop
  endfacet
  facet normal 0 0 1
    outer loop
      vertex 0.994522 0.104528 8
      vertex 1 0 8
      vertex 3.86222 -0.405936 8
    endloop
  endfacet
  facet normal 0 0 1
    outer loop
      vertex 1 0 8
      vertex 0.994522 -0.104528 8
      vertex 3.86222 -0.405936 8
    endloop
  endfacet
  facet normal 0 0 1
    outer loop
      vertex 3.86222 -0.405936 8
      vertex 0.978148 -0.207912 8
      vertex 3.79863 -0.807424 8
    endloop
  endfacet
  facet normal 0 0 1
    outer loop
      vertex 0.978148 -0.207912 8
      vertex 0.951057 -0.309017 8
      vertex 3.79863 -0.807424 8
    endloop
  endfacet
  facet normal 0 0 1
    outer loop
      vertex 3.79863 -0.807424 8
      vertex 0.913545 -0.406737 8
      vertex 3.69342 -1.20007 8
    endloop
  endfacet
  facet normal 0 0 1
    outer loop
      vertex 0.913545 -0.406737 8
      vertex 0.866025 -0.5 8
      vertex 3.69342 -1.20007 8
    endloop
  endfacet
  facet normal 0 0 1
    outer loop
      vertex 3.69342 -1.20007 8
      vertex 0.809017 -0.587785 8
      vertex 3.54775 -1.57956 8
    endloop
  endfacet
  facet normal 0 0 1
    outer loop
      vertex -0.994522 -0.104528 8
      vertex -1 0 8
      vertex -3.86222 0.405936 8
    endloop
  endfacet
  facet normal 0 0 1
    outer loop
      vertex 0.809017 -0.587785 8
      vertex 0.743145 -0.669131 8
      vertex 3.54775 -1.57956 8
    endloop
  endfacet
  facet normal 0 0 1
    outer loop
      vertex 0.743145 -0.669131 8
      vertex 0.669131 -0.743145 8
      vertex 3.54775 -1.57956 8
    endloop
  endfacet
  facet normal 0 0 1
    outer loop
      vertex 3.54775 -1.57956 8
      vertex 0.587785 -0.809017 8
      vertex 3.3632 -1.94175 8
    endloop
  endfacet
  facet normal 0 0 1
    outer loop
      vertex -0.866025 -0.5 8
      vertex -0.913545 -0.406737 8
      vertex -3.86222 0.405936 8
    endloop
  endfacet
  facet normal 0 0 1
    outer loop
      vertex 0.587785 -0.809017 8
      vertex 0.5 -0.866025 8
      vertex 3.3632 -1.94175 8
    endloop
  endfacet
  facet normal 0 0 1
    outer loop
      vertex 0.5 -0.866025 8
      vertex 0.406737 -0.913545 8
      vertex 3.3632 -1.94175 8
    endloop
  endfacet
  facet normal 0 0 1
    outer loop
      vertex 3.3632 -1.94175 8
      vertex 0.309017 -0.951057 8
      vertex 3.14181 -2.28266 8
    endloop
  endfacet
  facet normal 0 0 1
    outer loop
      vertex 0.309017 -0.951057 8
      vertex 0.207912 -0.978148 8
      vertex 3.14181 -2.28266 8
    endloop
  endfacet
  facet normal 0 0 1
    outer loop
      vertex 0.207912 -0.978148 8
      vertex 0.104528 -0.994522 8
      vertex 3.14181 -2.28266 8
    endloop
  endfacet
  facet normal 0 0 1
    outer loop
      vertex 0.104528 -0.994522 8
      vertex 0 -1 8
      vertex 3.14181 -2.28266 8
    endloop
  endfacet
  facet normal 0 0 1
    outer loop
      vertex 0 -1 8
      vertex -0.104528 -0.994522 8
      vertex 3.14181 -2.28266 8
    endloop
  endfacet
  facet normal 0 0 1
    outer loop
      vertex -0.104528 -0.994522 8
      vertex -0.207912 -0.978148 8
      vertex 3.14181 -2.28266 8
    endloop
  endfacet
  facet normal 0 0 1
    outer loop
      vertex -0.207912 -0.978148 8
      vertex -0.309017 -0.951057 8
      vertex 3.14181 -2.28266 8
    endloop
  endfacet
  facet normal 0 0 1
    outer loop
      vertex -0.406737 -0.913545 8
      vertex -3.86222 0.405936 8
      vertex -0.309017 -0.951057 8
    endloop
  endfacet
  facet normal 0 0 1
    outer loop
      vertex -0.5 -0.866025 8
      vertex -0.587785 -0.809017 8
      vertex -3.86222 0.405936 8
    endloop
  endfacet
  facet normal 0 0 1
    outer loop
      vertex -0.587785 -0.809017 8
      vertex -0.669131 -0.743145 8
      vertex -3.86222 0.405936 8
    endloop
  endfacet
  facet normal 0 0 1
    outer loop
      vertex -0.669131 -0.743145 8
      vertex -0.743145 -0.669131 8
      vertex -3.86222 0.405936 8
    endloop
  endfacet
  facet normal 0 0 1
    outer loop
      vertex -0.743145 -0.669131 8
      vertex -0.809017 -0.587785 8
      vertex -3.86222 0.405936 8
    endloop
  endfacet
  facet normal 0 0 1
    outer loop
      vertex -0.913545 -0.406737 8
      vertex -0.951057 -0.309017 8
      vertex -3.86222 0.405936 8
    endloop
  endfacet
  facet normal 0 0 1
    outer loop
      vertex -0.994522 0.104528 8
      vertex -0.978148 0.207912 8
      vertex -3.86222 0.405936 8
    endloop
  endfacet
  facet normal 0 0 1
    outer loop
      vertex -0.951057 -0.309017 8
      vertex -0.978148 -0.207912 8
      vertex -3.86222 0.405936 8
    endloop
  endfacet
  facet normal 0 0 1
    outer loop
      vertex -0.978148 -0.207912 8
      vertex -0.994522 -0.104528 8
      vertex -3.86222 0.405936 8
    endloop
  endfacet
endsolid OpenSCAD_Model
