solid lamp_foot
facet normal -0.22841240989098335 0.9735643503463965 -0.0004761747493991457
  outer loop
    vertex -1.6543389469720144 2.355617452128639 16.149350000000016
    vertex -1.4419771960577468 2.379928717258983 6.102950000000013
    vertex -1.6266395881571096 2.355617452128639 6.102950000000013
  endloop
endfacet
facet normal -0.9646581818901641 -0.2611237542538789 -0.035340869778814656
  outer loop
    vertex -3.846601327692276 -1.4894690716052528 6.102950000000013
    vertex -3.532963951238992 -2.246656679505889 6.102950000000013
    vertex -4.207294947437455 -1.4894690716052528 16.149350000000016
  endloop
endfacet
facet normal -0.23057144920363068 -0.9730525048945329 -0.0023726631898565317
  outer loop
    vertex -1.6543389469720173 -3.709430811140419 16.149350000000016
    vertex -2.3838271960577475 -3.395793434687134 6.102950000000013
    vertex -1.6266395881571125 -3.709430811140419 6.102950000000013
  endloop
endfacet
facet normal -0.4541258043792692 0.8909252510278268 -0.004685176398552238
  outer loop
    vertex -2.525104696057745 2.041980075675354 16.149350000000016
    vertex -1.6266395881571096 2.355617452128639 6.102950000000013
    vertex -2.3838271960577453 2.041980075675354 6.102950000000013
  endloop
endfacet
facet normal -0.4550026816502398 -0.8904458275194419 -0.008876257336668147
  outer loop
    vertex -2.5251046960577477 -3.395793434687134 16.149350000000016
    vertex -3.0340389355929127 -2.8968684190410547 6.102950000000013
    vertex -2.3838271960577475 -3.395793434687134 6.102950000000013
  endloop
endfacet
facet normal -0.8625718187921476 0.5053549450059822 -0.024212331230323507
  outer loop
    vertex -3.5329639512389908 0.8928433204941096 6.102950000000013
    vertex -3.8466013276922753 0.13565571259347406 6.102950000000013
    vertex -3.846611964516176 0.8928433204941096 16.149350000000016
  endloop
endfacet
facet normal -0.8371641095068182 0.5462297238732949 -0.028095240005380877
  outer loop
    vertex -3.846611964516176 0.8928433204941096 16.149350000000016
    vertex -3.8466013276922753 0.13565571259347406 6.102950000000013
    vertex -4.207294947437453 0.13565571259347406 16.149350000000016
  endloop
endfacet
facet normal -0.11413403877015395 -0.9934653126506556 -0.00030619266547152375
  outer loop
    vertex -1.4419771960577468 -3.7337420762707643 16.149350000000016
    vertex -1.6266395881571125 -3.709430811140419 6.102950000000013
    vertex -1.4419771960577468 -3.7337420762707643 6.102950000000013
  endloop
endfacet
facet normal -0.9993236772224248 0.0009830718046223744 -0.036758967783086835
  outer loop
    vertex -4.330317196057746 -0.6769066795058905 16.149350000000016
    vertex -3.846601327692276 -1.4894690716052528 6.102950000000013
    vertex -4.207294947437455 -1.4894690716052528 16.149350000000016
  endloop
endfacet
facet normal -0.22841240989098335 0.9735643503463965 -0.0004761747493991457
  outer loop
    vertex -1.6543389469720144 2.355617452128639 16.149350000000016
    vertex -1.6266395881571096 2.355617452128639 6.102950000000013
    vertex -2.525104696057745 2.041980075675354 16.149350000000016
  endloop
endfacet
facet normal -0.6652247007872492 0.7464712983729008 -0.01602180289450633
  outer loop
    vertex -3.272848196523186 1.5430550600292758 16.149350000000016
    vertex -2.3838271960577453 2.041980075675354 6.102950000000013
    vertex -3.034038935592911 1.5430550600292758 6.102950000000013
  endloop
endfacet
facet normal -0.8629862865080347 -0.5044028435644539 -0.028852048508994227
  outer loop
    vertex -3.532963951238992 -2.246656679505889 6.102950000000013
    vertex -3.0340389355929127 -2.8968684190410547 6.102950000000013
    vertex -3.8466119645161787 -2.246656679505889 16.149350000000016
  endloop
endfacet
facet normal -0.23057144920363068 -0.9730525048945329 -0.0023726631898565317
  outer loop
    vertex -1.6543389469720173 -3.709430811140419 16.149350000000016
    vertex -1.6266395881571125 -3.709430811140419 6.102950000000013
    vertex -1.4419771960577468 -3.7337420762707643 16.149350000000016
  endloop
endfacet
facet normal -0.9563663718920413 0.29005866290486587 -0.03506187085560159
  outer loop
    vertex -4.207294947437453 0.13565571259347406 16.149350000000016
    vertex -3.9535771960577453 -0.6769066795058905 6.102950000000013
    vertex -4.330317196057746 -0.6769066795058905 16.149350000000016
  endloop
endfacet
facet normal -0.6600712027705693 -0.7510391610893207 -0.015690308577699222
  outer loop
    vertex -3.272848196523188 -2.8968684190410547 16.149350000000016
    vertex -3.0340389355929127 -2.8968684190410547 6.102950000000013
    vertex -2.5251046960577477 -3.395793434687134 16.149350000000016
  endloop
endfacet
facet normal 1.0 0.0 0.0
  outer loop
    vertex -1.4419771960577468 2.379928717258983 6.102950000000013
    vertex -1.4419771960577468 -3.7337420762707643 16.149350000000016
    vertex -1.4419771960577468 -3.7337420762707643 6.102950000000013
  endloop
endfacet
facet normal 1.0 0.0 0.0
  outer loop
    vertex -1.4419771960577468 -3.7337420762707643 16.149350000000016
    vertex -1.4419771960577468 2.379928717258983 6.102950000000013
    vertex -1.4419771960577468 2.379928717258983 16.149350000000016
  endloop
endfacet
facet normal -0.8377102002961679 -0.5456012289542174 -0.023683734574634872
  outer loop
    vertex -3.8466119645161787 -2.246656679505889 16.149350000000016
    vertex -3.0340389355929127 -2.8968684190410547 6.102950000000013
    vertex -3.272848196523188 -2.8968684190410547 16.149350000000016
  endloop
endfacet
facet normal -0.9569256354346342 -0.28851195613342456 -0.03246812923601706
  outer loop
    vertex -4.207294947437455 -1.4894690716052528 16.149350000000016
    vertex -3.532963951238992 -2.246656679505889 6.102950000000013
    vertex -3.8466119645161787 -2.246656679505889 16.149350000000016
  endloop
endfacet
facet normal -0.11373754972160058 0.9935108302295083 -4.509055108450788e-19
  outer loop
    vertex -1.4419771960577468 2.379928717258983 16.149350000000016
    vertex -1.4419771960577468 2.379928717258983 6.102950000000013
    vertex -1.6543389469720144 2.355617452128639 16.149350000000016
  endloop
endfacet
facet normal -0.9642881801431272 0.2628361427840528 -0.0326415024571001
  outer loop
    vertex -3.8466013276922753 0.13565571259347406 6.102950000000013
    vertex -3.9535771960577453 -0.6769066795058905 6.102950000000013
    vertex -4.207294947437453 0.13565571259347406 16.149350000000016
  endloop
endfacet
facet normal -0.4550026816502398 -0.8904458275194419 -0.008876257336668147
  outer loop
    vertex -2.5251046960577477 -3.395793434687134 16.149350000000016
    vertex -2.3838271960577475 -3.395793434687134 6.102950000000013
    vertex -1.6543389469720173 -3.709430811140419 16.149350000000016
  endloop
endfacet
facet normal -0.4541258043792692 0.8909252510278268 -0.004685176398552238
  outer loop
    vertex -2.525104696057745 2.041980075675354 16.149350000000016
    vertex -2.3838271960577453 2.041980075675354 6.102950000000013
    vertex -3.272848196523186 1.5430550600292758 16.149350000000016
  endloop
endfacet
facet normal -0.7050234980137614 0.7089859011965602 -0.01675885297212373
  outer loop
    vertex -3.034038935592911 1.5430550600292758 6.102950000000013
    vertex -3.5329639512389908 0.8928433204941096 6.102950000000013
    vertex -3.272848196523186 1.5430550600292758 16.149350000000016
  endloop
endfacet
facet normal -0.6652247007872492 0.7464712983729008 -0.01602180289450633
  outer loop
    vertex -3.272848196523186 1.5430550600292758 16.149350000000016
    vertex -3.5329639512389908 0.8928433204941096 6.102950000000013
    vertex -3.846611964516176 0.8928433204941096 16.149350000000016
  endloop
endfacet
facet normal -0.9993236847859871 0.0010051012340407518 -0.03675816640239597
  outer loop
    vertex -3.9535771960577453 -0.6769066795058905 6.102950000000013
    vertex -3.846601327692276 -1.4894690716052528 6.102950000000013
    vertex -4.330317196057746 -0.6769066795058905 16.149350000000016
  endloop
endfacet
facet normal 0.0 0.0 1.0
  outer loop
    vertex 0.026184554856519812 -3.7094308111404204 16.149350000000016
    vertex -0.1861771960577466 2.3799287172589842 16.149350000000016
    vertex -0.1861771960577466 -3.733742076270764 16.149350000000016
  endloop
endfacet
facet normal 0.0 0.0 1.0
  outer loop
    vertex -0.1861771960577466 2.3799287172589842 16.149350000000016
    vertex 0.026184554856519812 -3.7094308111404204 16.149350000000016
    vertex 0.026184554856522633 2.355617452128639 16.149350000000016
  endloop
endfacet
facet normal 0.0 0.0 1.0
  outer loop
    vertex 0.026184554856522633 2.355617452128639 16.149350000000016
    vertex 0.026184554856519812 -3.7094308111404204 16.149350000000016
    vertex 0.896950303942251 -3.3957934346871363 16.149350000000016
  endloop
endfacet
facet normal 0.0 0.0 1.0
  outer loop
    vertex 0.026184554856522633 2.355617452128639 16.149350000000016
    vertex 0.896950303942251 -3.3957934346871363 16.149350000000016
    vertex 0.8969503039422537 2.041980075675354 16.149350000000016
  endloop
endfacet
facet normal 0.0 0.0 1.0
  outer loop
    vertex 0.8969503039422537 2.041980075675354 16.149350000000016
    vertex 0.896950303942251 -3.3957934346871363 16.149350000000016
    vertex 1.6446938044076922 -2.8968684190410565 16.149350000000016
  endloop
endfacet
facet normal 0.0 0.0 1.0
  outer loop
    vertex 0.8969503039422537 2.041980075675354 16.149350000000016
    vertex 1.6446938044076922 -2.8968684190410565 16.149350000000016
    vertex 1.6446938044076922 1.5430550600292745 16.149350000000016
  endloop
endfacet
facet normal 0.0 0.0 1.0
  outer loop
    vertex 1.6446938044076922 1.5430550600292745 16.149350000000016
    vertex 1.6446938044076922 -2.8968684190410565 16.149350000000016
    vertex 2.2184575724006828 -2.2466566795058913 16.149350000000016
  endloop
endfacet
facet normal 0.0 0.0 1.0
  outer loop
    vertex 1.6446938044076922 1.5430550600292745 16.149350000000016
    vertex 2.2184575724006828 -2.2466566795058913 16.149350000000016
    vertex 2.2184575724006854 0.8928433204941096 16.149350000000016
  endloop
endfacet
facet normal 0.0 0.0 1.0
  outer loop
    vertex 2.2184575724006854 0.8928433204941096 16.149350000000016
    vertex 2.2184575724006828 -2.2466566795058913 16.149350000000016
    vertex 2.579140555321961 -1.4894690716052563 16.149350000000016
  endloop
endfacet
facet normal 0.0 0.0 1.0
  outer loop
    vertex 2.2184575724006854 0.8928433204941096 16.149350000000016
    vertex 2.579140555321961 -1.4894690716052563 16.149350000000016
    vertex 2.5791405553219624 0.13565571259347406 16.149350000000016
  endloop
endfacet
facet normal 0.0 0.0 1.0
  outer loop
    vertex 2.5791405553219624 0.13565571259347406 16.149350000000016
    vertex 2.579140555321961 -1.4894690716052563 16.149350000000016
    vertex 2.702162803942254 -0.6769066795058905 16.149350000000016
  endloop
endfacet
facet normal 0.1094777152549513 -0.9939892503757554 0.0
  outer loop
    vertex -0.12666662197190875 -6.918165182615259 6.102950000000013
    vertex -1.7654461352967958 -6.8834144045837515 2.3355500000000133
    vertex -0.12666662197190875 -6.918165182615259 2.3355500000000133
  endloop
endfacet
facet normal -0.1515159960565457 -0.9884548057139451 0.0
  outer loop
    vertex -1.7654461352967958 -6.8834144045837515 2.3355500000000133
    vertex -0.12666662197190875 -6.918165182615259 6.102950000000013
    vertex -1.7654461352967958 -6.8834144045837515 6.102950000000013
  endloop
endfacet
facet normal 0.0 0.0 1.0
  outer loop
    vertex -0.0015148039583849915 -3.7094308111404204 6.102950000000013
    vertex -0.1861771960577466 2.3799287172589842 6.102950000000013
    vertex -0.1861771960577466 -3.733742076270764 6.102950000000013
  endloop
endfacet
facet normal 0.0 0.0 1.0
  outer loop
    vertex -0.1861771960577466 2.3799287172589842 6.102950000000013
    vertex -0.0015148039583849915 -3.7094308111404204 6.102950000000013
    vertex -0.0015148039583821715 2.355617452128639 6.102950000000013
  endloop
endfacet
facet normal 0.0 0.0 1.0
  outer loop
    vertex -0.0015148039583821715 2.355617452128639 6.102950000000013
    vertex -0.0015148039583849915 -3.7094308111404204 6.102950000000013
    vertex 0.7556728039422507 -3.3957934346871363 6.102950000000013
  endloop
endfacet
facet normal 0.0 0.0 1.0
  outer loop
    vertex -0.0015148039583821715 2.355617452128639 6.102950000000013
    vertex 0.7556728039422507 -3.3957934346871363 6.102950000000013
    vertex 0.7556728039422534 2.041980075675354 6.102950000000013
  endloop
endfacet
facet normal 0.0 0.0 1.0
  outer loop
    vertex 0.7556728039422534 2.041980075675354 6.102950000000013
    vertex 0.7556728039422507 -3.3957934346871363 6.102950000000013
    vertex 1.4058845434774183 -2.8968684190410565 6.102950000000013
  endloop
endfacet
facet normal 0.0 0.0 1.0
  outer loop
    vertex 0.7556728039422534 2.041980075675354 6.102950000000013
    vertex 1.4058845434774183 -2.8968684190410565 6.102950000000013
    vertex 1.4058845434774183 1.5430550600292745 6.102950000000013
  endloop
endfacet
facet normal 0.0 0.0 1.0
  outer loop
    vertex 1.4058845434774183 1.5430550600292745 6.102950000000013
    vertex 1.4058845434774183 -2.8968684190410565 6.102950000000013
    vertex 1.9048095591234966 -2.2466566795058913 6.102950000000013
  endloop
endfacet
facet normal 0.0 0.0 1.0
  outer loop
    vertex 1.4058845434774183 1.5430550600292745 6.102950000000013
    vertex 1.9048095591234966 -2.2466566795058913 6.102950000000013
    vertex 1.904809559123498 0.8928433204941096 6.102950000000013
  endloop
endfacet
facet normal 0.0 0.0 1.0
  outer loop
    vertex 1.904809559123498 0.8928433204941096 6.102950000000013
    vertex 1.9048095591234966 -2.2466566795058913 6.102950000000013
    vertex 2.218446935576781 -1.4894690716052563 6.102950000000013
  endloop
endfacet
facet normal 0.0 0.0 1.0
  outer loop
    vertex 1.904809559123498 0.8928433204941096 6.102950000000013
    vertex 2.218446935576781 -1.4894690716052563 6.102950000000013
    vertex 2.218446935576783 0.13565571259347406 6.102950000000013
  endloop
endfacet
facet normal 0.0 0.0 1.0
  outer loop
    vertex 2.218446935576783 0.13565571259347406 6.102950000000013
    vertex 2.218446935576781 -1.4894690716052563 6.102950000000013
    vertex 2.3254228039422538 -0.6769066795058905 6.102950000000013
  endloop
endfacet
facet normal 0.36301070119230205 -0.9317849702693607 0.0
  outer loop
    vertex 1.4652669967287133 -6.527584507827207 6.102950000000013
    vertex -0.12666662197190875 -6.918165182615259 2.3355500000000133
    vertex 1.4652669967287133 -6.527584507827207 2.3355500000000133
  endloop
endfacet
facet normal 0.1094777152549513 -0.9939892503757554 0.0
  outer loop
    vertex -0.12666662197190875 -6.918165182615259 2.3355500000000133
    vertex 1.4652669967287133 -6.527584507827207 6.102950000000013
    vertex -0.12666662197190875 -6.918165182615259 6.102950000000013
  endloop
endfacet
facet normal 0.0 0.0 1.0
  outer loop
    vertex -3.846601327692276 -1.4894690716052528 6.102950000000013
    vertex -3.8466013276922753 0.13565571259347406 6.102950000000013
    vertex -3.9535771960577453 -0.6769066795058905 6.102950000000013
  endloop
endfacet
facet normal 0.0 0.0 1.0
  outer loop
    vertex -3.8466013276922753 0.13565571259347406 6.102950000000013
    vertex -3.846601327692276 -1.4894690716052528 6.102950000000013
    vertex -3.532963951238992 -2.246656679505889 6.102950000000013
  endloop
endfacet
facet normal 0.0 0.0 1.0
  outer loop
    vertex -3.8466013276922753 0.13565571259347406 6.102950000000013
    vertex -3.532963951238992 -2.246656679505889 6.102950000000013
    vertex -3.5329639512389908 0.8928433204941096 6.102950000000013
  endloop
endfacet
facet normal 0.0 0.0 1.0
  outer loop
    vertex -3.5329639512389908 0.8928433204941096 6.102950000000013
    vertex -3.532963951238992 -2.246656679505889 6.102950000000013
    vertex -3.0340389355929127 -2.8968684190410547 6.102950000000013
  endloop
endfacet
facet normal 0.0 0.0 1.0
  outer loop
    vertex -3.5329639512389908 0.8928433204941096 6.102950000000013
    vertex -3.0340389355929127 -2.8968684190410547 6.102950000000013
    vertex -3.034038935592911 1.5430550600292758 6.102950000000013
  endloop
endfacet
facet normal 0.0 0.0 1.0
  outer loop
    vertex -3.034038935592911 1.5430550600292758 6.102950000000013
    vertex -3.0340389355929127 -2.8968684190410547 6.102950000000013
    vertex -2.3838271960577475 -3.395793434687134 6.102950000000013
  endloop
endfacet
facet normal 0.0 0.0 1.0
  outer loop
    vertex -3.034038935592911 1.5430550600292758 6.102950000000013
    vertex -2.3838271960577475 -3.395793434687134 6.102950000000013
    vertex -2.3838271960577453 2.041980075675354 6.102950000000013
  endloop
endfacet
facet normal 0.0 0.0 1.0
  outer loop
    vertex -2.3838271960577453 2.041980075675354 6.102950000000013
    vertex -2.3838271960577475 -3.395793434687134 6.102950000000013
    vertex -1.6266395881571125 -3.709430811140419 6.102950000000013
  endloop
endfacet
facet normal 0.0 0.0 1.0
  outer loop
    vertex -2.3838271960577453 2.041980075675354 6.102950000000013
    vertex -1.6266395881571125 -3.709430811140419 6.102950000000013
    vertex -1.6266395881571096 2.355617452128639 6.102950000000013
  endloop
endfacet
facet normal 0.0 0.0 1.0
  outer loop
    vertex -1.6266395881571096 2.355617452128639 6.102950000000013
    vertex -1.6266395881571125 -3.709430811140419 6.102950000000013
    vertex -1.4419771960577468 -3.7337420762707643 6.102950000000013
  endloop
endfacet
facet normal 0.0 0.0 1.0
  outer loop
    vertex -1.6266395881571096 2.355617452128639 6.102950000000013
    vertex -1.4419771960577468 -3.7337420762707643 6.102950000000013
    vertex -1.4419771960577468 2.379928717258983 6.102950000000013
  endloop
endfacet
facet normal -0.9317849702693608 -0.36301070119230194 0.0
  outer loop
    vertex -6.664755024379063 -2.9562508722923524 6.102950000000013
    vertex -5.875460324293178 -4.392850951048954 2.3355500000000133
    vertex -5.875460324293178 -4.392850951048954 6.102950000000013
  endloop
endfacet
facet normal -0.8060810842865794 -0.5918051077469447 0.0
  outer loop
    vertex -5.875460324293178 -4.392850951048954 2.3355500000000133
    vertex -6.664755024379063 -2.9562508722923524 6.102950000000013
    vertex -6.664755024379063 -2.9562508722923524 2.3355500000000133
  endloop
endfacet
facet normal 0.8060810842865795 0.5918051077469443 0.0
  outer loop
    vertex 4.247305932177685 3.039037592037172 2.3355500000000133
    vertex 5.0366006322635695 1.6024375132805724 6.102950000000013
    vertex 5.0366006322635695 1.6024375132805724 2.3355500000000133
  endloop
endfacet
facet normal 0.9317849702693609 0.36301070119230167 0.0
  outer loop
    vertex 5.0366006322635695 1.6024375132805724 6.102950000000013
    vertex 4.247305932177685 3.039037592037172 2.3355500000000133
    vertex 4.247305932177685 3.039037592037172 6.102950000000013
  endloop
endfacet
facet normal 0.9939892503757554 0.10947771525495091 0.0
  outer loop
    vertex 5.4271813070516215 0.01050389457994465 2.3355500000000133
    vertex 5.392430529020114 -1.6282756187449396 6.102950000000013
    vertex 5.392430529020114 -1.6282756187449396 2.3355500000000133
  endloop
endfacet
facet normal 0.9884548057139452 -0.15151599605654575 0.0
  outer loop
    vertex 5.392430529020114 -1.6282756187449396 6.102950000000013
    vertex 5.4271813070516215 0.01050389457994465 2.3355500000000133
    vertex 5.4271813070516215 0.01050389457994465 6.102950000000013
  endloop
endfacet
facet normal -0.4021841426288107 -0.9155587995415307 0.0
  outer loop
    vertex -3.339391427624048 -6.42570038182716 6.102950000000013
    vertex -4.741240728349148 -5.576215568588159 2.3355500000000133
    vertex -3.339391427624048 -6.42570038182716 2.3355500000000133
  endloop
endfacet
facet normal -0.6254441045216436 -0.7802689742128156 0.0
  outer loop
    vertex -4.741240728349148 -5.576215568588159 2.3355500000000133
    vertex -3.339391427624048 -6.42570038182716 6.102950000000013
    vertex -4.741240728349148 -5.576215568588159 6.102950000000013
  endloop
endfacet
facet normal 0.40218414262881036 0.9155587995415309 0.0
  outer loop
    vertex 1.7112370355085533 5.071887022815381 6.102950000000013
    vertex 3.113086336233657 4.2224022095763765 2.3355500000000133
    vertex 1.7112370355085533 5.071887022815381 2.3355500000000133
  endloop
endfacet
facet normal 0.625444104521644 0.7802689742128152 0.0
  outer loop
    vertex 3.113086336233657 4.2224022095763765 2.3355500000000133
    vertex 1.7112370355085533 5.071887022815381 6.102950000000013
    vertex 3.113086336233657 4.2224022095763765 6.102950000000013
  endloop
endfacet
facet normal 0.0 0.0 -1.0
  outer loop
    vertex -0.8140771960577466 2.46259332049411 6.102950000000013
    vertex -1.4419771960577468 -3.7337420762707643 6.102950000000013
    vertex -1.4419771960577468 2.379928717258983 6.102950000000013
  endloop
endfacet
facet normal 0.0 0.0 -1.0
  outer loop
    vertex -1.4419771960577468 -3.7337420762707643 6.102950000000013
    vertex -0.8140771960577466 2.46259332049411 6.102950000000013
    vertex -0.8140771960577473 -3.81640667950589 6.102950000000013
  endloop
endfacet
facet normal 0.0 0.0 -1.0
  outer loop
    vertex -0.8140771960577473 -3.81640667950589 6.102950000000013
    vertex -0.8140771960577466 2.46259332049411 6.102950000000013
    vertex -0.1861771960577466 -3.733742076270764 6.102950000000013
  endloop
endfacet
facet normal 0.0 0.0 -1.0
  outer loop
    vertex -0.1861771960577466 -3.733742076270764 6.102950000000013
    vertex -0.8140771960577466 2.46259332049411 6.102950000000013
    vertex -0.1861771960577466 2.3799287172589842 6.102950000000013
  endloop
endfacet
facet normal 0.0 0.0 1.0
  outer loop
    vertex -4.207294947437455 -1.4894690716052528 16.149350000000016
    vertex -4.207294947437453 0.13565571259347406 16.149350000000016
    vertex -4.330317196057746 -0.6769066795058905 16.149350000000016
  endloop
endfacet
facet normal 0.0 0.0 1.0
  outer loop
    vertex -4.207294947437453 0.13565571259347406 16.149350000000016
    vertex -4.207294947437455 -1.4894690716052528 16.149350000000016
    vertex -3.8466119645161787 -2.246656679505889 16.149350000000016
  endloop
endfacet
facet normal 0.0 0.0 1.0
  outer loop
    vertex -4.207294947437453 0.13565571259347406 16.149350000000016
    vertex -3.8466119645161787 -2.246656679505889 16.149350000000016
    vertex -3.846611964516176 0.8928433204941096 16.149350000000016
  endloop
endfacet
facet normal 0.0 0.0 1.0
  outer loop
    vertex -3.846611964516176 0.8928433204941096 16.149350000000016
    vertex -3.8466119645161787 -2.246656679505889 16.149350000000016
    vertex -3.272848196523188 -2.8968684190410547 16.149350000000016
  endloop
endfacet
facet normal 0.0 0.0 1.0
  outer loop
    vertex -3.846611964516176 0.8928433204941096 16.149350000000016
    vertex -3.272848196523188 -2.8968684190410547 16.149350000000016
    vertex -3.272848196523186 1.5430550600292758 16.149350000000016
  endloop
endfacet
facet normal 0.0 0.0 1.0
  outer loop
    vertex -3.272848196523186 1.5430550600292758 16.149350000000016
    vertex -3.272848196523188 -2.8968684190410547 16.149350000000016
    vertex -2.5251046960577477 -3.395793434687134 16.149350000000016
  endloop
endfacet
facet normal 0.0 0.0 1.0
  outer loop
    vertex -3.272848196523186 1.5430550600292758 16.149350000000016
    vertex -2.5251046960577477 -3.395793434687134 16.149350000000016
    vertex -2.525104696057745 2.041980075675354 16.149350000000016
  endloop
endfacet
facet normal 0.0 0.0 1.0
  outer loop
    vertex -2.525104696057745 2.041980075675354 16.149350000000016
    vertex -2.5251046960577477 -3.395793434687134 16.149350000000016
    vertex -1.6543389469720173 -3.709430811140419 16.149350000000016
  endloop
endfacet
facet normal 0.0 0.0 1.0
  outer loop
    vertex -2.525104696057745 2.041980075675354 16.149350000000016
    vertex -1.6543389469720173 -3.709430811140419 16.149350000000016
    vertex -1.6543389469720144 2.355617452128639 16.149350000000016
  endloop
endfacet
facet normal 0.0 0.0 1.0
  outer loop
    vertex -1.6543389469720144 2.355617452128639 16.149350000000016
    vertex -1.6543389469720173 -3.709430811140419 16.149350000000016
    vertex -1.4419771960577468 -3.7337420762707643 16.149350000000016
  endloop
endfacet
facet normal 0.0 0.0 1.0
  outer loop
    vertex -1.6543389469720144 2.355617452128639 16.149350000000016
    vertex -1.4419771960577468 -3.7337420762707643 16.149350000000016
    vertex -1.4419771960577468 2.379928717258983 16.149350000000016
  endloop
endfacet
facet normal 0.625444104521644 0.7802689742128152 0.0
  outer loop
    vertex 3.113086336233657 4.2224022095763765 2.3355500000000133
    vertex 4.247305932177685 3.039037592037172 6.102950000000013
    vertex 4.247305932177685 3.039037592037172 2.3355500000000133
  endloop
endfacet
facet normal 0.8060810842865795 0.5918051077469443 0.0
  outer loop
    vertex 4.247305932177685 3.039037592037172 6.102950000000013
    vertex 3.113086336233657 4.2224022095763765 2.3355500000000133
    vertex 3.113086336233657 4.2224022095763765 6.102950000000013
  endloop
endfacet
facet normal -0.9884548057139452 0.1515159960565456 0.0
  outer loop
    vertex -7.020584921135607 0.27446225973315747 6.102950000000013
    vertex -7.055335699167115 -1.3643172535917283 2.3355500000000133
    vertex -7.055335699167115 -1.3643172535917283 6.102950000000013
  endloop
endfacet
facet normal -0.9939892503757554 -0.10947771525495113 0.0
  outer loop
    vertex -7.055335699167115 -1.3643172535917283 2.3355500000000133
    vertex -7.020584921135607 0.27446225973315747 6.102950000000013
    vertex -7.020584921135607 0.27446225973315747 2.3355500000000133
  endloop
endfacet
facet normal -0.5918051077469447 0.8060810842865794 0.0
  outer loop
    vertex -4.530021467600812 4.384476448729542 6.102950000000013
    vertex -3.0934213888442086 5.173771148815426 2.3355500000000133
    vertex -4.530021467600812 4.384476448729542 2.3355500000000133
  endloop
endfacet
facet normal -0.3630107011923016 0.9317849702693608 0.0
  outer loop
    vertex -3.0934213888442086 5.173771148815426 2.3355500000000133
    vertex -4.530021467600812 4.384476448729542 6.102950000000013
    vertex -3.0934213888442086 5.173771148815426 6.102950000000013
  endloop
endfacet
facet normal 0.9884548057139452 -0.15151599605654575 0.0
  outer loop
    vertex 5.392430529020114 -1.6282756187449396 2.3355500000000133
    vertex 4.934716506263523 -3.202220911072192 6.102950000000013
    vertex 4.934716506263523 -3.202220911072192 2.3355500000000133
  endloop
endfacet
facet normal 0.9155587995415307 -0.40218414262881075 0.0
  outer loop
    vertex 4.934716506263523 -3.202220911072192 6.102950000000013
    vertex 5.392430529020114 -1.6282756187449396 2.3355500000000133
    vertex 5.392430529020114 -1.6282756187449396 6.102950000000013
  endloop
endfacet
facet normal 4.970131851683476e-32 -2.982079111010086e-32 -1.0
  outer loop
    vertex -7.020584921135607 0.27446225973315747 2.3355500000000133
    vertex -6.664755024379063 -2.9562508722923524 2.3355500000000133
    vertex -7.055335699167115 -1.3643172535917283 2.3355500000000133
  endloop
endfacet
facet normal 4.970131851683476e-32 -2.982079111010086e-32 -1.0
  outer loop
    vertex -6.664755024379063 -2.9562508722923524 2.3355500000000133
    vertex -7.020584921135607 0.27446225973315747 2.3355500000000133
    vertex -6.562870898379017 1.8484075520604109 2.3355500000000133
  endloop
endfacet
facet normal 4.970131851683476e-32 -2.982079111010086e-32 -1.0
  outer loop
    vertex -6.664755024379063 -2.9562508722923524 2.3355500000000133
    vertex -6.562870898379017 1.8484075520604109 2.3355500000000133
    vertex -5.875460324293178 -4.392850951048954 2.3355500000000133
  endloop
endfacet
facet normal 4.970131851683476e-32 -2.982079111010086e-32 -1.0
  outer loop
    vertex -5.875460324293178 -4.392850951048954 2.3355500000000133
    vertex -6.562870898379017 1.8484075520604109 2.3355500000000133
    vertex -5.713386085140016 3.2502568527855105 2.3355500000000133
  endloop
endfacet
facet normal 4.970131851683476e-32 -2.982079111010086e-32 -1.0
  outer loop
    vertex -5.875460324293178 -4.392850951048954 2.3355500000000133
    vertex -5.713386085140016 3.2502568527855105 2.3355500000000133
    vertex -4.741240728349148 -5.576215568588159 2.3355500000000133
  endloop
endfacet
facet normal 4.970131851683476e-32 -2.982079111010086e-32 -1.0
  outer loop
    vertex -4.741240728349148 -5.576215568588159 2.3355500000000133
    vertex -5.713386085140016 3.2502568527855105 2.3355500000000133
    vertex -4.530021467600812 4.384476448729542 2.3355500000000133
  endloop
endfacet
facet normal 4.970131851683476e-32 -2.982079111010086e-32 -1.0
  outer loop
    vertex -4.741240728349148 -5.576215568588159 2.3355500000000133
    vertex -4.530021467600812 4.384476448729542 2.3355500000000133
    vertex -3.339391427624048 -6.42570038182716 2.3355500000000133
  endloop
endfacet
facet normal 4.970131851683476e-32 -2.982079111010086e-32 -1.0
  outer loop
    vertex -3.339391427624048 -6.42570038182716 2.3355500000000133
    vertex -4.530021467600812 4.384476448729542 2.3355500000000133
    vertex -3.0934213888442086 5.173771148815426 2.3355500000000133
  endloop
endfacet
facet normal 4.970131851683476e-32 -2.982079111010086e-32 -1.0
  outer loop
    vertex -3.339391427624048 -6.42570038182716 2.3355500000000133
    vertex -3.0934213888442086 5.173771148815426 2.3355500000000133
    vertex -1.7654461352967958 -6.8834144045837515 2.3355500000000133
  endloop
endfacet
facet normal 4.970131851683476e-32 -2.982079111010086e-32 -1.0
  outer loop
    vertex -1.7654461352967958 -6.8834144045837515 2.3355500000000133
    vertex -3.0934213888442086 5.173771148815426 2.3355500000000133
    vertex -1.5014877701435867 5.564351823603478 2.3355500000000133
  endloop
endfacet
facet normal 4.970131851683476e-32 -2.982079111010086e-32 -1.0
  outer loop
    vertex -1.7654461352967958 -6.8834144045837515 2.3355500000000133
    vertex -1.5014877701435867 5.564351823603478 2.3355500000000133
    vertex -0.12666662197190875 -6.918165182615259 2.3355500000000133
  endloop
endfacet
facet normal 4.970131851683476e-32 -2.982079111010086e-32 -1.0
  outer loop
    vertex -0.12666662197190875 -6.918165182615259 2.3355500000000133
    vertex -1.5014877701435867 5.564351823603478 2.3355500000000133
    vertex 0.1372917431812998 5.529601045571971 2.3355500000000133
  endloop
endfacet
facet normal 4.970131851683476e-32 -2.982079111010086e-32 -1.0
  outer loop
    vertex -0.12666662197190875 -6.918165182615259 2.3355500000000133
    vertex 0.1372917431812998 5.529601045571971 2.3355500000000133
    vertex 1.4652669967287133 -6.527584507827207 2.3355500000000133
  endloop
endfacet
facet normal 4.970131851683476e-32 -2.982079111010086e-32 -1.0
  outer loop
    vertex 1.4652669967287133 -6.527584507827207 2.3355500000000133
    vertex 0.1372917431812998 5.529601045571971 2.3355500000000133
    vertex 1.7112370355085533 5.071887022815381 2.3355500000000133
  endloop
endfacet
facet normal 4.970131851683476e-32 -2.982079111010086e-32 -1.0
  outer loop
    vertex 1.4652669967287133 -6.527584507827207 2.3355500000000133
    vertex 1.7112370355085533 5.071887022815381 2.3355500000000133
    vertex 2.901867075485316 -5.738289807741322 2.3355500000000133
  endloop
endfacet
facet normal 4.970131851683476e-32 -2.982079111010086e-32 -1.0
  outer loop
    vertex 2.901867075485316 -5.738289807741322 2.3355500000000133
    vertex 1.7112370355085533 5.071887022815381 2.3355500000000133
    vertex 3.113086336233657 4.2224022095763765 2.3355500000000133
  endloop
endfacet
facet normal 4.970131851683476e-32 -2.982079111010086e-32 -1.0
  outer loop
    vertex 2.901867075485316 -5.738289807741322 2.3355500000000133
    vertex 3.113086336233657 4.2224022095763765 2.3355500000000133
    vertex 4.08523169302452 -4.604070211797293 2.3355500000000133
  endloop
endfacet
facet normal 4.970131851683476e-32 -2.982079111010086e-32 -1.0
  outer loop
    vertex 4.08523169302452 -4.604070211797293 2.3355500000000133
    vertex 3.113086336233657 4.2224022095763765 2.3355500000000133
    vertex 4.247305932177685 3.039037592037172 2.3355500000000133
  endloop
endfacet
facet normal 4.970131851683476e-32 -2.982079111010086e-32 -1.0
  outer loop
    vertex 4.08523169302452 -4.604070211797293 2.3355500000000133
    vertex 4.247305932177685 3.039037592037172 2.3355500000000133
    vertex 4.934716506263523 -3.202220911072192 2.3355500000000133
  endloop
endfacet
facet normal 4.970131851683476e-32 -2.982079111010086e-32 -1.0
  outer loop
    vertex 4.934716506263523 -3.202220911072192 2.3355500000000133
    vertex 4.247305932177685 3.039037592037172 2.3355500000000133
    vertex 5.0366006322635695 1.6024375132805724 2.3355500000000133
  endloop
endfacet
facet normal 4.970131851683476e-32 -2.982079111010086e-32 -1.0
  outer loop
    vertex 4.934716506263523 -3.202220911072192 2.3355500000000133
    vertex 5.0366006322635695 1.6024375132805724 2.3355500000000133
    vertex 5.392430529020114 -1.6282756187449396 2.3355500000000133
  endloop
endfacet
facet normal 4.970131851683476e-32 -2.982079111010086e-32 -1.0
  outer loop
    vertex 5.392430529020114 -1.6282756187449396 2.3355500000000133
    vertex 5.0366006322635695 1.6024375132805724 2.3355500000000133
    vertex 5.4271813070516215 0.01050389457994465 2.3355500000000133
  endloop
endfacet
facet normal -0.8060810842865794 -0.5918051077469447 0.0
  outer loop
    vertex -5.875460324293178 -4.392850951048954 6.102950000000013
    vertex -4.741240728349148 -5.576215568588159 2.3355500000000133
    vertex -4.741240728349148 -5.576215568588159 6.102950000000013
  endloop
endfacet
facet normal -0.6254441045216436 -0.7802689742128156 0.0
  outer loop
    vertex -4.741240728349148 -5.576215568588159 2.3355500000000133
    vertex -5.875460324293178 -4.392850951048954 6.102950000000013
    vertex -5.875460324293178 -4.392850951048954 2.3355500000000133
  endloop
endfacet
facet normal 0.9317849702693609 0.36301070119230167 0.0
  outer loop
    vertex 5.0366006322635695 1.6024375132805724 2.3355500000000133
    vertex 5.4271813070516215 0.01050389457994465 6.102950000000013
    vertex 5.4271813070516215 0.01050389457994465 2.3355500000000133
  endloop
endfacet
facet normal 0.9939892503757554 0.10947771525495091 0.0
  outer loop
    vertex 5.4271813070516215 0.01050389457994465 6.102950000000013
    vertex 5.0366006322635695 1.6024375132805724 2.3355500000000133
    vertex 5.0366006322635695 1.6024375132805724 6.102950000000013
  endloop
endfacet
facet normal 0.7802689742128155 -0.6254441045216438 0.0
  outer loop
    vertex 4.08523169302452 -4.604070211797293 6.102950000000013
    vertex 2.901867075485316 -5.738289807741322 2.3355500000000133
    vertex 4.08523169302452 -4.604070211797293 2.3355500000000133
  endloop
endfacet
facet normal 0.5918051077469443 -0.8060810842865797 0.0
  outer loop
    vertex 2.901867075485316 -5.738289807741322 2.3355500000000133
    vertex 4.08523169302452 -4.604070211797293 6.102950000000013
    vertex 2.901867075485316 -5.738289807741322 6.102950000000013
  endloop
endfacet
facet normal -0.10947771525495126 0.9939892503757554 0.0
  outer loop
    vertex -1.5014877701435867 5.564351823603478 6.102950000000013
    vertex 0.1372917431812998 5.529601045571971 2.3355500000000133
    vertex -1.5014877701435867 5.564351823603478 2.3355500000000133
  endloop
endfacet
facet normal 0.1515159960565453 0.9884548057139452 0.0
  outer loop
    vertex 0.1372917431812998 5.529601045571971 2.3355500000000133
    vertex -1.5014877701435867 5.564351823603478 6.102950000000013
    vertex 0.1372917431812998 5.529601045571971 6.102950000000013
  endloop
endfacet
facet normal -0.7802689742128158 0.6254441045216435 0.0
  outer loop
    vertex -5.713386085140016 3.2502568527855105 6.102950000000013
    vertex -4.530021467600812 4.384476448729542 2.3355500000000133
    vertex -5.713386085140016 3.2502568527855105 2.3355500000000133
  endloop
endfacet
facet normal -0.5918051077469447 0.8060810842865794 0.0
  outer loop
    vertex -4.530021467600812 4.384476448729542 2.3355500000000133
    vertex -5.713386085140016 3.2502568527855105 6.102950000000013
    vertex -4.530021467600812 4.384476448729542 6.102950000000013
  endloop
endfacet
facet normal -0.9155587995415309 0.4021841426288104 0.0
  outer loop
    vertex -6.562870898379017 1.8484075520604109 6.102950000000013
    vertex -7.020584921135607 0.27446225973315747 2.3355500000000133
    vertex -7.020584921135607 0.27446225973315747 6.102950000000013
  endloop
endfacet
facet normal -0.9884548057139452 0.1515159960565456 0.0
  outer loop
    vertex -7.020584921135607 0.27446225973315747 2.3355500000000133
    vertex -6.562870898379017 1.8484075520604109 6.102950000000013
    vertex -6.562870898379017 1.8484075520604109 2.3355500000000133
  endloop
endfacet
facet normal -0.7802689742128158 0.6254441045216435 0.0
  outer loop
    vertex -5.713386085140016 3.2502568527855105 6.102950000000013
    vertex -6.562870898379017 1.8484075520604109 2.3355500000000133
    vertex -6.562870898379017 1.8484075520604109 6.102950000000013
  endloop
endfacet
facet normal -0.9155587995415309 0.4021841426288104 0.0
  outer loop
    vertex -6.562870898379017 1.8484075520604109 2.3355500000000133
    vertex -5.713386085140016 3.2502568527855105 6.102950000000013
    vertex -5.713386085140016 3.2502568527855105 2.3355500000000133
  endloop
endfacet
facet normal -0.9939892503757554 -0.10947771525495113 0.0
  outer loop
    vertex -7.055335699167115 -1.3643172535917283 6.102950000000013
    vertex -6.664755024379063 -2.9562508722923524 2.3355500000000133
    vertex -6.664755024379063 -2.9562508722923524 6.102950000000013
  endloop
endfacet
facet normal -0.9317849702693608 -0.36301070119230194 0.0
  outer loop
    vertex -6.664755024379063 -2.9562508722923524 2.3355500000000133
    vertex -7.055335699167115 -1.3643172535917283 6.102950000000013
    vertex -7.055335699167115 -1.3643172535917283 2.3355500000000133
  endloop
endfacet
facet normal 0.9155587995415307 -0.40218414262881075 0.0
  outer loop
    vertex 4.934716506263523 -3.202220911072192 2.3355500000000133
    vertex 4.08523169302452 -4.604070211797293 6.102950000000013
    vertex 4.08523169302452 -4.604070211797293 2.3355500000000133
  endloop
endfacet
facet normal 0.7802689742128155 -0.6254441045216438 0.0
  outer loop
    vertex 4.08523169302452 -4.604070211797293 6.102950000000013
    vertex 4.934716506263523 -3.202220911072192 2.3355500000000133
    vertex 4.934716506263523 -3.202220911072192 6.102950000000013
  endloop
endfacet
facet normal -0.1515159960565457 -0.9884548057139451 0.0
  outer loop
    vertex -1.7654461352967958 -6.8834144045837515 6.102950000000013
    vertex -3.339391427624048 -6.42570038182716 2.3355500000000133
    vertex -1.7654461352967958 -6.8834144045837515 2.3355500000000133
  endloop
endfacet
facet normal -0.4021841426288107 -0.9155587995415307 0.0
  outer loop
    vertex -3.339391427624048 -6.42570038182716 2.3355500000000133
    vertex -1.7654461352967958 -6.8834144045837515 6.102950000000013
    vertex -3.339391427624048 -6.42570038182716 6.102950000000013
  endloop
endfacet
facet normal 0.5918051077469443 -0.8060810842865797 0.0
  outer loop
    vertex 2.901867075485316 -5.738289807741322 6.102950000000013
    vertex 1.4652669967287133 -6.527584507827207 2.3355500000000133
    vertex 2.901867075485316 -5.738289807741322 2.3355500000000133
  endloop
endfacet
facet normal 0.36301070119230205 -0.9317849702693607 0.0
  outer loop
    vertex 1.4652669967287133 -6.527584507827207 2.3355500000000133
    vertex 2.901867075485316 -5.738289807741322 6.102950000000013
    vertex 1.4652669967287133 -6.527584507827207 6.102950000000013
  endloop
endfacet
facet normal 0.0 0.0 -1.0
  outer loop
    vertex -4.530021467600812 4.384476448729542 6.102950000000013
    vertex -3.8466013276922753 0.13565571259347406 6.102950000000013
    vertex -3.9535771960577453 -0.6769066795058905 6.102950000000013
  endloop
endfacet
facet normal 0.0 0.0 -1.0
  outer loop
    vertex -3.8466013276922753 0.13565571259347406 6.102950000000013
    vertex -4.530021467600812 4.384476448729542 6.102950000000013
    vertex -3.0934213888442086 5.173771148815426 6.102950000000013
  endloop
endfacet
facet normal 0.0 0.0 -1.0
  outer loop
    vertex -3.8466013276922753 0.13565571259347406 6.102950000000013
    vertex -3.0934213888442086 5.173771148815426 6.102950000000013
    vertex -3.5329639512389908 0.8928433204941096 6.102950000000013
  endloop
endfacet
facet normal 0.0 0.0 -1.0
  outer loop
    vertex -3.5329639512389908 0.8928433204941096 6.102950000000013
    vertex -3.0934213888442086 5.173771148815426 6.102950000000013
    vertex -3.034038935592911 1.5430550600292758 6.102950000000013
  endloop
endfacet
facet normal 0.0 0.0 -1.0
  outer loop
    vertex -3.034038935592911 1.5430550600292758 6.102950000000013
    vertex -3.0934213888442086 5.173771148815426 6.102950000000013
    vertex -1.5014877701435867 5.564351823603478 6.102950000000013
  endloop
endfacet
facet normal 0.0 0.0 -1.0
  outer loop
    vertex -3.034038935592911 1.5430550600292758 6.102950000000013
    vertex -1.5014877701435867 5.564351823603478 6.102950000000013
    vertex -2.3838271960577453 2.041980075675354 6.102950000000013
  endloop
endfacet
facet normal 0.0 0.0 -1.0
  outer loop
    vertex -2.3838271960577453 2.041980075675354 6.102950000000013
    vertex -1.5014877701435867 5.564351823603478 6.102950000000013
    vertex -1.6266395881571096 2.355617452128639 6.102950000000013
  endloop
endfacet
facet normal 0.0 0.0 -1.0
  outer loop
    vertex -1.6266395881571096 2.355617452128639 6.102950000000013
    vertex -1.5014877701435867 5.564351823603478 6.102950000000013
    vertex -1.4419771960577468 2.379928717258983 6.102950000000013
  endloop
endfacet
facet normal 0.0 0.0 -1.0
  outer loop
    vertex -1.4419771960577468 2.379928717258983 6.102950000000013
    vertex -1.5014877701435867 5.564351823603478 6.102950000000013
    vertex 0.1372917431812998 5.529601045571971 6.102950000000013
  endloop
endfacet
facet normal 0.0 0.0 -1.0
  outer loop
    vertex -1.4419771960577468 2.379928717258983 6.102950000000013
    vertex 0.1372917431812998 5.529601045571971 6.102950000000013
    vertex -0.8140771960577466 2.46259332049411 6.102950000000013
  endloop
endfacet
facet normal 0.0 0.0 -1.0
  outer loop
    vertex -0.8140771960577466 2.46259332049411 6.102950000000013
    vertex 0.1372917431812998 5.529601045571971 6.102950000000013
    vertex -0.1861771960577466 2.3799287172589842 6.102950000000013
  endloop
endfacet
facet normal 0.0 0.0 -1.0
  outer loop
    vertex -0.1861771960577466 2.3799287172589842 6.102950000000013
    vertex 0.1372917431812998 5.529601045571971 6.102950000000013
    vertex -0.0015148039583821715 2.355617452128639 6.102950000000013
  endloop
endfacet
facet normal 0.0 0.0 -1.0
  outer loop
    vertex -0.0015148039583821715 2.355617452128639 6.102950000000013
    vertex 0.1372917431812998 5.529601045571971 6.102950000000013
    vertex 0.7556728039422534 2.041980075675354 6.102950000000013
  endloop
endfacet
facet normal 0.0 0.0 -1.0
  outer loop
    vertex 0.7556728039422534 2.041980075675354 6.102950000000013
    vertex 0.1372917431812998 5.529601045571971 6.102950000000013
    vertex 1.7112370355085533 5.071887022815381 6.102950000000013
  endloop
endfacet
facet normal 0.0 0.0 -1.0
  outer loop
    vertex 0.7556728039422534 2.041980075675354 6.102950000000013
    vertex 1.7112370355085533 5.071887022815381 6.102950000000013
    vertex 1.4058845434774183 1.5430550600292745 6.102950000000013
  endloop
endfacet
facet normal 0.0 0.0 -1.0
  outer loop
    vertex 1.4058845434774183 1.5430550600292745 6.102950000000013
    vertex 1.7112370355085533 5.071887022815381 6.102950000000013
    vertex 1.904809559123498 0.8928433204941096 6.102950000000013
  endloop
endfacet
facet normal 0.0 0.0 -1.0
  outer loop
    vertex 1.904809559123498 0.8928433204941096 6.102950000000013
    vertex 1.7112370355085533 5.071887022815381 6.102950000000013
    vertex 3.113086336233657 4.2224022095763765 6.102950000000013
  endloop
endfacet
facet normal 0.0 0.0 -1.0
  outer loop
    vertex 1.904809559123498 0.8928433204941096 6.102950000000013
    vertex 3.113086336233657 4.2224022095763765 6.102950000000013
    vertex 2.218446935576783 0.13565571259347406 6.102950000000013
  endloop
endfacet
facet normal 0.0 0.0 -1.0
  outer loop
    vertex 2.218446935576783 0.13565571259347406 6.102950000000013
    vertex 3.113086336233657 4.2224022095763765 6.102950000000013
    vertex 2.3254228039422538 -0.6769066795058905 6.102950000000013
  endloop
endfacet
facet normal 0.0 0.0 -1.0
  outer loop
    vertex 2.3254228039422538 -0.6769066795058905 6.102950000000013
    vertex 3.113086336233657 4.2224022095763765 6.102950000000013
    vertex 2.901867075485316 -5.738289807741322 6.102950000000013
  endloop
endfacet
facet normal 0.0 0.0 -1.0
  outer loop
    vertex 2.901867075485316 -5.738289807741322 6.102950000000013
    vertex 3.113086336233657 4.2224022095763765 6.102950000000013
    vertex 4.08523169302452 -4.604070211797293 6.102950000000013
  endloop
endfacet
facet normal 0.0 0.0 -1.0
  outer loop
    vertex 4.08523169302452 -4.604070211797293 6.102950000000013
    vertex 3.113086336233657 4.2224022095763765 6.102950000000013
    vertex 4.247305932177685 3.039037592037172 6.102950000000013
  endloop
endfacet
facet normal 0.0 0.0 -1.0
  outer loop
    vertex 4.08523169302452 -4.604070211797293 6.102950000000013
    vertex 4.247305932177685 3.039037592037172 6.102950000000013
    vertex 4.934716506263523 -3.202220911072192 6.102950000000013
  endloop
endfacet
facet normal 0.0 0.0 -1.0
  outer loop
    vertex 4.934716506263523 -3.202220911072192 6.102950000000013
    vertex 4.247305932177685 3.039037592037172 6.102950000000013
    vertex 5.0366006322635695 1.6024375132805724 6.102950000000013
  endloop
endfacet
facet normal 0.0 0.0 -1.0
  outer loop
    vertex 4.934716506263523 -3.202220911072192 6.102950000000013
    vertex 5.0366006322635695 1.6024375132805724 6.102950000000013
    vertex 5.392430529020114 -1.6282756187449396 6.102950000000013
  endloop
endfacet
facet normal 0.0 0.0 -1.0
  outer loop
    vertex 5.392430529020114 -1.6282756187449396 6.102950000000013
    vertex 5.0366006322635695 1.6024375132805724 6.102950000000013
    vertex 5.4271813070516215 0.01050389457994465 6.102950000000013
  endloop
endfacet
facet normal 0.0 0.0 -1.0
  outer loop
    vertex -7.020584921135607 0.27446225973315747 6.102950000000013
    vertex -6.664755024379063 -2.9562508722923524 6.102950000000013
    vertex -7.055335699167115 -1.3643172535917283 6.102950000000013
  endloop
endfacet
facet normal 0.0 0.0 -1.0
  outer loop
    vertex -6.664755024379063 -2.9562508722923524 6.102950000000013
    vertex -7.020584921135607 0.27446225973315747 6.102950000000013
    vertex -6.562870898379017 1.8484075520604109 6.102950000000013
  endloop
endfacet
facet normal 0.0 0.0 -1.0
  outer loop
    vertex -6.664755024379063 -2.9562508722923524 6.102950000000013
    vertex -6.562870898379017 1.8484075520604109 6.102950000000013
    vertex -5.875460324293178 -4.392850951048954 6.102950000000013
  endloop
endfacet
facet normal 0.0 0.0 -1.0
  outer loop
    vertex -5.875460324293178 -4.392850951048954 6.102950000000013
    vertex -6.562870898379017 1.8484075520604109 6.102950000000013
    vertex -5.713386085140016 3.2502568527855105 6.102950000000013
  endloop
endfacet
facet normal 0.0 0.0 -1.0
  outer loop
    vertex -5.875460324293178 -4.392850951048954 6.102950000000013
    vertex -5.713386085140016 3.2502568527855105 6.102950000000013
    vertex -4.741240728349148 -5.576215568588159 6.102950000000013
  endloop
endfacet
facet normal 0.0 0.0 -1.0
  outer loop
    vertex -4.741240728349148 -5.576215568588159 6.102950000000013
    vertex -5.713386085140016 3.2502568527855105 6.102950000000013
    vertex -4.530021467600812 4.384476448729542 6.102950000000013
  endloop
endfacet
facet normal 0.0 0.0 -1.0
  outer loop
    vertex -4.741240728349148 -5.576215568588159 6.102950000000013
    vertex -4.530021467600812 4.384476448729542 6.102950000000013
    vertex -3.339391427624048 -6.42570038182716 6.102950000000013
  endloop
endfacet
facet normal 0.0 0.0 -1.0
  outer loop
    vertex -3.339391427624048 -6.42570038182716 6.102950000000013
    vertex -4.530021467600812 4.384476448729542 6.102950000000013
    vertex -3.9535771960577453 -0.6769066795058905 6.102950000000013
  endloop
endfacet
facet normal 0.0 0.0 -1.0
  outer loop
    vertex -3.339391427624048 -6.42570038182716 6.102950000000013
    vertex -3.9535771960577453 -0.6769066795058905 6.102950000000013
    vertex -3.846601327692276 -1.4894690716052528 6.102950000000013
  endloop
endfacet
facet normal 0.0 0.0 -1.0
  outer loop
    vertex -3.339391427624048 -6.42570038182716 6.102950000000013
    vertex -3.846601327692276 -1.4894690716052528 6.102950000000013
    vertex -3.532963951238992 -2.246656679505889 6.102950000000013
  endloop
endfacet
facet normal 0.0 0.0 -1.0
  outer loop
    vertex -3.339391427624048 -6.42570038182716 6.102950000000013
    vertex -3.532963951238992 -2.246656679505889 6.102950000000013
    vertex -3.0340389355929127 -2.8968684190410547 6.102950000000013
  endloop
endfacet
facet normal 0.0 0.0 -1.0
  outer loop
    vertex -3.339391427624048 -6.42570038182716 6.102950000000013
    vertex -3.0340389355929127 -2.8968684190410547 6.102950000000013
    vertex -1.7654461352967958 -6.8834144045837515 6.102950000000013
  endloop
endfacet
facet normal 0.0 0.0 -1.0
  outer loop
    vertex -1.7654461352967958 -6.8834144045837515 6.102950000000013
    vertex -3.0340389355929127 -2.8968684190410547 6.102950000000013
    vertex -2.3838271960577475 -3.395793434687134 6.102950000000013
  endloop
endfacet
facet normal 0.0 0.0 -1.0
  outer loop
    vertex -1.7654461352967958 -6.8834144045837515 6.102950000000013
    vertex -2.3838271960577475 -3.395793434687134 6.102950000000013
    vertex -1.6266395881571125 -3.709430811140419 6.102950000000013
  endloop
endfacet
facet normal 0.0 0.0 -1.0
  outer loop
    vertex -1.7654461352967958 -6.8834144045837515 6.102950000000013
    vertex -1.6266395881571125 -3.709430811140419 6.102950000000013
    vertex -0.12666662197190875 -6.918165182615259 6.102950000000013
  endloop
endfacet
facet normal 0.0 0.0 -1.0
  outer loop
    vertex -0.12666662197190875 -6.918165182615259 6.102950000000013
    vertex -1.6266395881571125 -3.709430811140419 6.102950000000013
    vertex -1.4419771960577468 -3.7337420762707643 6.102950000000013
  endloop
endfacet
facet normal 0.0 0.0 -1.0
  outer loop
    vertex -0.12666662197190875 -6.918165182615259 6.102950000000013
    vertex -1.4419771960577468 -3.7337420762707643 6.102950000000013
    vertex -0.8140771960577473 -3.81640667950589 6.102950000000013
  endloop
endfacet
facet normal 0.0 0.0 -1.0
  outer loop
    vertex -0.12666662197190875 -6.918165182615259 6.102950000000013
    vertex -0.8140771960577473 -3.81640667950589 6.102950000000013
    vertex -0.1861771960577466 -3.733742076270764 6.102950000000013
  endloop
endfacet
facet normal 0.0 0.0 -1.0
  outer loop
    vertex -0.12666662197190875 -6.918165182615259 6.102950000000013
    vertex -0.1861771960577466 -3.733742076270764 6.102950000000013
    vertex -0.0015148039583849915 -3.7094308111404204 6.102950000000013
  endloop
endfacet
facet normal 0.0 0.0 -1.0
  outer loop
    vertex -0.12666662197190875 -6.918165182615259 6.102950000000013
    vertex -0.0015148039583849915 -3.7094308111404204 6.102950000000013
    vertex 1.4652669967287133 -6.527584507827207 6.102950000000013
  endloop
endfacet
facet normal 0.0 0.0 -1.0
  outer loop
    vertex 1.4652669967287133 -6.527584507827207 6.102950000000013
    vertex -0.0015148039583849915 -3.7094308111404204 6.102950000000013
    vertex 0.7556728039422507 -3.3957934346871363 6.102950000000013
  endloop
endfacet
facet normal 0.0 0.0 -1.0
  outer loop
    vertex 1.4652669967287133 -6.527584507827207 6.102950000000013
    vertex 0.7556728039422507 -3.3957934346871363 6.102950000000013
    vertex 1.4058845434774183 -2.8968684190410565 6.102950000000013
  endloop
endfacet
facet normal 0.0 0.0 -1.0
  outer loop
    vertex 1.4652669967287133 -6.527584507827207 6.102950000000013
    vertex 1.4058845434774183 -2.8968684190410565 6.102950000000013
    vertex 1.9048095591234966 -2.2466566795058913 6.102950000000013
  endloop
endfacet
facet normal 0.0 0.0 -1.0
  outer loop
    vertex 1.4652669967287133 -6.527584507827207 6.102950000000013
    vertex 1.9048095591234966 -2.2466566795058913 6.102950000000013
    vertex 2.901867075485316 -5.738289807741322 6.102950000000013
  endloop
endfacet
facet normal 0.0 0.0 -1.0
  outer loop
    vertex 2.901867075485316 -5.738289807741322 6.102950000000013
    vertex 1.9048095591234966 -2.2466566795058913 6.102950000000013
    vertex 2.218446935576781 -1.4894690716052563 6.102950000000013
  endloop
endfacet
facet normal 0.0 0.0 -1.0
  outer loop
    vertex 2.901867075485316 -5.738289807741322 6.102950000000013
    vertex 2.218446935576781 -1.4894690716052563 6.102950000000013
    vertex 2.3254228039422538 -0.6769066795058905 6.102950000000013
  endloop
endfacet
facet normal -0.3630107011923016 0.9317849702693608 0.0
  outer loop
    vertex -3.0934213888442086 5.173771148815426 6.102950000000013
    vertex -1.5014877701435867 5.564351823603478 2.3355500000000133
    vertex -3.0934213888442086 5.173771148815426 2.3355500000000133
  endloop
endfacet
facet normal -0.10947771525495126 0.9939892503757554 0.0
  outer loop
    vertex -1.5014877701435867 5.564351823603478 2.3355500000000133
    vertex -3.0934213888442086 5.173771148815426 6.102950000000013
    vertex -1.5014877701435867 5.564351823603478 6.102950000000013
  endloop
endfacet
facet normal 0.1515159960565453 0.9884548057139452 0.0
  outer loop
    vertex 0.1372917431812998 5.529601045571971 6.102950000000013
    vertex 1.7112370355085533 5.071887022815381 2.3355500000000133
    vertex 0.1372917431812998 5.529601045571971 2.3355500000000133
  endloop
endfacet
facet normal 0.40218414262881036 0.9155587995415309 0.0
  outer loop
    vertex 1.7112370355085533 5.071887022815381 2.3355500000000133
    vertex 0.1372917431812998 5.529601045571971 6.102950000000013
    vertex 1.7112370355085533 5.071887022815381 6.102950000000013
  endloop
endfacet
facet normal 0.9563663718920413 -0.2900586629048666 -0.035061870855601716
  outer loop
    vertex 2.579140555321961 -1.4894690716052563 16.149350000000016
    vertex 2.2184575724006828 -2.2466566795058913 16.149350000000016
    vertex 2.218446935576781 -1.4894690716052563 6.102950000000013
  endloop
endfacet
facet normal 0.6600712027705691 0.751039161089321 -0.01569030857769915
  outer loop
    vertex 1.6446938044076922 1.5430550600292745 16.149350000000016
    vertex 1.4058845434774183 1.5430550600292745 6.102950000000013
    vertex 0.8969503039422537 2.041980075675354 16.149350000000016
  endloop
endfacet
facet normal 0.9646581818901637 0.26112375425388 -0.03534086977881474
  outer loop
    vertex 2.218446935576783 0.13565571259347406 6.102950000000013
    vertex 2.702162803942254 -0.6769066795058905 16.149350000000016
    vertex 2.3254228039422538 -0.6769066795058905 6.102950000000013
  endloop
endfacet
facet normal 0.4541258043792692 -0.8909252510278268 -0.0046851763985522365
  outer loop
    vertex 0.896950303942251 -3.3957934346871363 16.149350000000016
    vertex 0.7556728039422507 -3.3957934346871363 6.102950000000013
    vertex 1.6446938044076922 -2.8968684190410565 16.149350000000016
  endloop
endfacet
facet normal 0.6600712027705691 0.751039161089321 -0.01569030857769915
  outer loop
    vertex 1.6446938044076922 1.5430550600292745 16.149350000000016
    vertex 2.2184575724006854 0.8928433204941096 16.149350000000016
    vertex 1.4058845434774183 1.5430550600292745 6.102950000000013
  endloop
endfacet
facet normal 0.11373754972159833 -0.9935108302295085 4.509055108450872e-19
  outer loop
    vertex -0.1861771960577466 -3.733742076270764 16.149350000000016
    vertex -0.1861771960577466 -3.733742076270764 6.102950000000013
    vertex 0.026184554856519812 -3.7094308111404204 16.149350000000016
  endloop
endfacet
facet normal 0.4550026816502402 0.8904458275194418 -0.008876257336668114
  outer loop
    vertex 0.8969503039422537 2.041980075675354 16.149350000000016
    vertex 1.4058845434774183 1.5430550600292745 6.102950000000013
    vertex 0.7556728039422534 2.041980075675354 6.102950000000013
  endloop
endfacet
facet normal 0.9993236847859872 -0.0010051012340410983 -0.036758166402396084
  outer loop
    vertex 2.3254228039422538 -0.6769066795058905 6.102950000000013
    vertex 2.579140555321961 -1.4894690716052563 16.149350000000016
    vertex 2.218446935576781 -1.4894690716052563 6.102950000000013
  endloop
endfacet
facet normal 0.230571449203631 0.9730525048945329 -0.0023726631898565204
  outer loop
    vertex 0.026184554856522633 2.355617452128639 16.149350000000016
    vertex -0.0015148039583821715 2.355617452128639 6.102950000000013
    vertex -0.1861771960577466 2.3799287172589842 16.149350000000016
  endloop
endfacet
facet normal 0.4541258043792692 -0.8909252510278268 -0.0046851763985522365
  outer loop
    vertex 0.896950303942251 -3.3957934346871363 16.149350000000016
    vertex -0.0015148039583849915 -3.7094308111404204 6.102950000000013
    vertex 0.7556728039422507 -3.3957934346871363 6.102950000000013
  endloop
endfacet
facet normal 0.22841240989098194 -0.973564350346397 -0.00047617474939913324
  outer loop
    vertex 0.026184554856519812 -3.7094308111404204 16.149350000000016
    vertex -0.1861771960577466 -3.733742076270764 6.102950000000013
    vertex -0.0015148039583849915 -3.7094308111404204 6.102950000000013
  endloop
endfacet
facet normal 0.11413403877015475 0.9934653126506554 -0.0003061926654715245
  outer loop
    vertex -0.1861771960577466 2.3799287172589842 16.149350000000016
    vertex -0.0015148039583821715 2.355617452128639 6.102950000000013
    vertex -0.1861771960577466 2.3799287172589842 6.102950000000013
  endloop
endfacet
facet normal 0.22841240989098194 -0.973564350346397 -0.00047617474939913324
  outer loop
    vertex 0.026184554856519812 -3.7094308111404204 16.149350000000016
    vertex -0.0015148039583849915 -3.7094308111404204 6.102950000000013
    vertex 0.896950303942251 -3.3957934346871363 16.149350000000016
  endloop
endfacet
facet normal 0.6997119637245118 0.7142340517096637 -0.016519297781231453
  outer loop
    vertex 1.4058845434774183 1.5430550600292745 6.102950000000013
    vertex 2.2184575724006854 0.8928433204941096 16.149350000000016
    vertex 1.904809559123498 0.8928433204941096 6.102950000000013
  endloop
endfacet
facet normal 0.6652247007872488 -0.746471298372901 -0.016021802894506356
  outer loop
    vertex 1.6446938044076922 -2.8968684190410565 16.149350000000016
    vertex 0.7556728039422507 -3.3957934346871363 6.102950000000013
    vertex 1.4058845434774183 -2.8968684190410565 6.102950000000013
  endloop
endfacet
facet normal 0.9642881801431269 -0.26283614278405404 -0.03264150245710025
  outer loop
    vertex 2.218446935576781 -1.4894690716052563 6.102950000000013
    vertex 2.2184575724006828 -2.2466566795058913 16.149350000000016
    vertex 1.9048095591234966 -2.2466566795058913 6.102950000000013
  endloop
endfacet
facet normal 0.9569256354346336 0.2885119561334259 -0.03246812923601713
  outer loop
    vertex 2.5791405553219624 0.13565571259347406 16.149350000000016
    vertex 2.702162803942254 -0.6769066795058905 16.149350000000016
    vertex 2.218446935576783 0.13565571259347406 6.102950000000013
  endloop
endfacet
facet normal 0.9993236772224248 -0.0009830718046225278 -0.03675896778308692
  outer loop
    vertex 2.702162803942254 -0.6769066795058905 16.149350000000016
    vertex 2.579140555321961 -1.4894690716052563 16.149350000000016
    vertex 2.3254228039422538 -0.6769066795058905 6.102950000000013
  endloop
endfacet
facet normal 0.8371641095068177 -0.5462297238732959 -0.028095240005381
  outer loop
    vertex 2.2184575724006828 -2.2466566795058913 16.149350000000016
    vertex 1.6446938044076922 -2.8968684190410565 16.149350000000016
    vertex 1.9048095591234966 -2.2466566795058913 6.102950000000013
  endloop
endfacet
facet normal 0.8625718187921478 -0.505354945005982 -0.02421233123032354
  outer loop
    vertex 1.9048095591234966 -2.2466566795058913 6.102950000000013
    vertex 1.6446938044076922 -2.8968684190410565 16.149350000000016
    vertex 1.4058845434774183 -2.8968684190410565 6.102950000000013
  endloop
endfacet
facet normal 0.862986286508034 0.504402843564455 -0.028852048508994282
  outer loop
    vertex 1.904809559123498 0.8928433204941096 6.102950000000013
    vertex 2.5791405553219624 0.13565571259347406 16.149350000000016
    vertex 2.218446935576783 0.13565571259347406 6.102950000000013
  endloop
endfacet
facet normal 0.8377102002961666 0.5456012289542195 -0.023683734574634796
  outer loop
    vertex 2.2184575724006854 0.8928433204941096 16.149350000000016
    vertex 2.5791405553219624 0.13565571259347406 16.149350000000016
    vertex 1.904809559123498 0.8928433204941096 6.102950000000013
  endloop
endfacet
facet normal 0.230571449203631 0.9730525048945329 -0.0023726631898565204
  outer loop
    vertex 0.026184554856522633 2.355617452128639 16.149350000000016
    vertex 0.7556728039422534 2.041980075675354 6.102950000000013
    vertex -0.0015148039583821715 2.355617452128639 6.102950000000013
  endloop
endfacet
facet normal 0.4550026816502402 0.8904458275194418 -0.008876257336668114
  outer loop
    vertex 0.8969503039422537 2.041980075675354 16.149350000000016
    vertex 0.7556728039422534 2.041980075675354 6.102950000000013
    vertex 0.026184554856522633 2.355617452128639 16.149350000000016
  endloop
endfacet
facet normal -1.0 0.0 2.192923648760297e-18
  outer loop
    vertex -0.1861771960577466 2.3799287172589842 16.149350000000016
    vertex -0.1861771960577466 -3.733742076270764 6.102950000000013
    vertex -0.1861771960577466 -3.733742076270764 16.149350000000016
  endloop
endfacet
facet normal -1.0 0.0 2.192923648760297e-18
  outer loop
    vertex -0.1861771960577466 -3.733742076270764 6.102950000000013
    vertex -0.1861771960577466 2.3799287172589842 16.149350000000016
    vertex -0.1861771960577466 2.3799287172589842 6.102950000000013
  endloop
endfacet
endsolid lamp_foot
