solid square
facet normal 0.0 0.0 -1.0
  outer loop
    vertex 57.57071090638984 -63.76451420959296 -9.164891068280667e-15
    vertex 47.570710906389834 -73.76451420959296 -9.164891068280667e-15
    vertex 47.570710906389834 -63.76451420959296 -9.164891068280667e-15
  endloop
endfacet
facet normal 0.0 0.0 -1.0
  outer loop
    vertex 47.570710906389834 -73.76451420959296 -9.164891068280667e-15
    vertex 57.57071090638984 -63.76451420959296 -9.164891068280667e-15
    vertex 57.57071090638984 -73.76451420959296 -9.164891068280667e-15
  endloop
endfacet
facet normal -0.0 -1.0 -0.0
  outer loop
    vertex 57.57071090638984 -73.76451420959296 4.999999999999991
    vertex 47.570710906389834 -73.76451420959296 -9.164891068280667e-15
    vertex 57.57071090638984 -73.76451420959296 -9.164891068280667e-15
  endloop
endfacet
facet normal -0.0 -1.0 -0.0
  outer loop
    vertex 47.570710906389834 -73.76451420959296 -9.164891068280667e-15
    vertex 57.57071090638984 -73.76451420959296 4.999999999999991
    vertex 47.570710906389834 -73.76451420959296 4.999999999999991
  endloop
endfacet
facet normal 0.0 0.0 1.0
  outer loop
    vertex 57.57071090638984 -73.76451420959296 4.999999999999991
    vertex 47.570710906389834 -63.76451420959296 4.999999999999991
    vertex 47.570710906389834 -73.76451420959296 4.999999999999991
  endloop
endfacet
facet normal 0.0 0.0 1.0
  outer loop
    vertex 47.570710906389834 -63.76451420959296 4.999999999999991
    vertex 57.57071090638984 -73.76451420959296 4.999999999999991
    vertex 57.57071090638984 -63.76451420959296 4.999999999999991
  endloop
endfacet
facet normal 1.0 0.0 0.0
  outer loop
    vertex 57.57071090638984 -63.76451420959296 -9.164891068280667e-15
    vertex 57.57071090638984 -73.76451420959296 4.999999999999991
    vertex 57.57071090638984 -73.76451420959296 -9.164891068280667e-15
  endloop
endfacet
facet normal 1.0 0.0 0.0
  outer loop
    vertex 57.57071090638984 -73.76451420959296 4.999999999999991
    vertex 57.57071090638984 -63.76451420959296 -9.164891068280667e-15
    vertex 57.57071090638984 -63.76451420959296 4.999999999999991
  endloop
endfacet
facet normal -1.0 0.0 0.0
  outer loop
    vertex 47.570710906389834 -63.76451420959296 4.999999999999991
    vertex 47.570710906389834 -73.76451420959296 -9.164891068280667e-15
    vertex 47.570710906389834 -73.76451420959296 4.999999999999991
  endloop
endfacet
facet normal -1.0 0.0 0.0
  outer loop
    vertex 47.570710906389834 -73.76451420959296 -9.164891068280667e-15
    vertex 47.570710906389834 -63.76451420959296 4.999999999999991
    vertex 47.570710906389834 -63.76451420959296 -9.164891068280667e-15
  endloop
endfacet
facet normal 0.0 1.0 0.0
  outer loop
    vertex 47.570710906389834 -63.76451420959296 4.999999999999991
    vertex 57.57071090638984 -63.76451420959296 -9.164891068280667e-15
    vertex 47.570710906389834 -63.76451420959296 -9.164891068280667e-15
  endloop
endfacet
facet normal 0.0 1.0 0.0
  outer loop
    vertex 57.57071090638984 -63.76451420959296 -9.164891068280667e-15
    vertex 47.570710906389834 -63.76451420959296 4.999999999999991
    vertex 57.57071090638984 -63.76451420959296 4.999999999999991
  endloop
endfacet
endsolid square
