solid OpenSCAD_Model
  facet normal 0 0 -1
    outer loop
      vertex -17 0 -3
      vertex -16.6285 3.5345 -3
      vertex -16.6285 -3.5345 -3
    endloop
  endfacet
  facet normal 0 0 -1
    outer loop
      vertex -16.6285 -3.5345 -3
      vertex -16.6285 3.5345 -3
      vertex -15.5303 6.91452 -3
    endloop
  endfacet
  facet normal 0 0 -1
    outer loop
      vertex -16.6285 -3.5345 -3
      vertex -15.5303 6.91452 -3
      vertex -13.7533 9.99235 -3
    endloop
  endfacet
  facet normal 0 0 -1
    outer loop
      vertex -16.6285 -3.5345 -3
      vertex -13.7533 9.99235 -3
      vertex -11.3752 12.6335 -3
    endloop
  endfacet
  facet normal 0 0 -1
    outer loop
      vertex -16.6285 -3.5345 -3
      vertex -11.3752 12.6335 -3
      vertex -8.5 14.7224 -3
    endloop
  endfacet
  facet normal 0 0 -1
    outer loop
      vertex -16.6285 -3.5345 -3
      vertex -8.5 14.7224 -3
      vertex -5.25329 16.168 -3
    endloop
  endfacet
  facet normal 0 0 -1
    outer loop
      vertex -16.6285 -3.5345 -3
      vertex -5.25329 16.168 -3
      vertex -1.77698 16.9069 -3
    endloop
  endfacet
  facet normal 0 0 -1
    outer loop
      vertex -16.6285 -3.5345 -3
      vertex -1.77698 16.9069 -3
      vertex 1.77698 16.9069 -3
    endloop
  endfacet
  facet normal 0 0 -1
    outer loop
      vertex -16.6285 -3.5345 -3
      vertex 1.77698 16.9069 -3
      vertex 5.25329 16.168 -3
    endloop
  endfacet
  facet normal 0 0 -1
    outer loop
      vertex -0.964293 7.94167 -3
      vertex 5.25329 16.168 -3
      vertex 8.5 14.7224 -3
    endloop
  endfacet
  facet normal 0 0 -1
    outer loop
      vertex 0.964293 7.94167 -3
      vertex 8.5 14.7224 -3
      vertex 11.3752 12.6335 -3
    endloop
  endfacet
  facet normal 0 0 -1
    outer loop
      vertex 4.54452 6.58387 -3
      vertex 11.3752 12.6335 -3
      vertex 13.7533 9.99235 -3
    endloop
  endfacet
  facet normal 0 0 -1
    outer loop
      vertex 5.98809 5.30498 -3
      vertex 13.7533 9.99235 -3
      vertex 15.5303 6.91452 -3
    endloop
  endfacet
  facet normal 0 0 -1
    outer loop
      vertex 7.76753 1.91452 -3
      vertex 15.5303 6.91452 -3
      vertex 16.6285 3.5345 -3
    endloop
  endfacet
  facet normal 0 0 -1
    outer loop
      vertex 10 1 -3
      vertex 16.6285 3.5345 -3
      vertex 17 0 -3
    endloop
  endfacet
  facet normal 0 0 -1
    outer loop
      vertex 7.76753 -1.91452 -3
      vertex 17 0 -3
      vertex 16.6285 -3.5345 -3
    endloop
  endfacet
  facet normal 0 0 -1
    outer loop
      vertex 5.98809 -5.30498 -3
      vertex 16.6285 -3.5345 -3
      vertex 15.5303 -6.91452 -3
    endloop
  endfacet
  facet normal 0 0 -1
    outer loop
      vertex 4.54452 -6.58387 -3
      vertex 15.5303 -6.91452 -3
      vertex 13.7533 -9.99235 -3
    endloop
  endfacet
  facet normal 0 0 -1
    outer loop
      vertex -0.964293 -7.94167 -3
      vertex 13.7533 -9.99235 -3
      vertex 11.3752 -12.6335 -3
    endloop
  endfacet
  facet normal 0 0 -1
    outer loop
      vertex -16.6285 -3.5345 -3
      vertex 11.3752 -12.6335 -3
      vertex 8.5 -14.7224 -3
    endloop
  endfacet
  facet normal 0 0 -1
    outer loop
      vertex -16.6285 -3.5345 -3
      vertex 8.5 -14.7224 -3
      vertex 5.25329 -16.168 -3
    endloop
  endfacet
  facet normal 0 0 -1
    outer loop
      vertex -16.6285 -3.5345 -3
      vertex 5.25329 -16.168 -3
      vertex 1.77698 -16.9069 -3
    endloop
  endfacet
  facet normal 0 0 -1
    outer loop
      vertex -16.6285 -3.5345 -3
      vertex 1.77698 -16.9069 -3
      vertex -1.77698 -16.9069 -3
    endloop
  endfacet
  facet normal 0 0 -1
    outer loop
      vertex -16.6285 -3.5345 -3
      vertex -1.77698 -16.9069 -3
      vertex -5.25329 -16.168 -3
    endloop
  endfacet
  facet normal 0 0 -1
    outer loop
      vertex -16.6285 -3.5345 -3
      vertex -5.25329 -16.168 -3
      vertex -8.5 -14.7224 -3
    endloop
  endfacet
  facet normal 0 0 -1
    outer loop
      vertex -16.6285 -3.5345 -3
      vertex -8.5 -14.7224 -3
      vertex -11.3752 -12.6335 -3
    endloop
  endfacet
  facet normal 0 0 -1
    outer loop
      vertex -16.6285 -3.5345 -3
      vertex -11.3752 -12.6335 -3
      vertex -13.7533 -9.99235 -3
    endloop
  endfacet
  facet normal 0 0 -1
    outer loop
      vertex -16.6285 -3.5345 -3
      vertex -13.7533 -9.99235 -3
      vertex -15.5303 -6.91452 -3
    endloop
  endfacet
  facet normal 0 0 -1
    outer loop
      vertex -7.76753 -1.91452 -3
      vertex -16.6285 -3.5345 -3
      vertex -8 0 -3
    endloop
  endfacet
  facet normal 0 0 -1
    outer loop
      vertex -7.08365 -3.71778 -3
      vertex -16.6285 -3.5345 -3
      vertex -7.76753 -1.91452 -3
    endloop
  endfacet
  facet normal 0 0 -1
    outer loop
      vertex -5.98809 -5.30498 -3
      vertex -16.6285 -3.5345 -3
      vertex -7.08365 -3.71778 -3
    endloop
  endfacet
  facet normal 0 0 -1
    outer loop
      vertex 4.54452 -6.58387 -3
      vertex 13.7533 -9.99235 -3
      vertex 2.83684 -7.48013 -3
    endloop
  endfacet
  facet normal 0 0 -1
    outer loop
      vertex -4.54452 -6.58387 -3
      vertex -16.6285 -3.5345 -3
      vertex -5.98809 -5.30498 -3
    endloop
  endfacet
  facet normal 0 0 -1
    outer loop
      vertex -0.964293 -7.94167 -3
      vertex 11.3752 -12.6335 -3
      vertex -2.83684 -7.48013 -3
    endloop
  endfacet
  facet normal 0 0 -1
    outer loop
      vertex -16.6285 -3.5345 -3
      vertex -4.54452 -6.58387 -3
      vertex -2.83684 -7.48013 -3
    endloop
  endfacet
  facet normal 0 0 -1
    outer loop
      vertex -16.6285 -3.5345 -3
      vertex -2.83684 -7.48013 -3
      vertex 11.3752 -12.6335 -3
    endloop
  endfacet
  facet normal 0 0 -1
    outer loop
      vertex 0.964293 -7.94167 -3
      vertex 13.7533 -9.99235 -3
      vertex -0.964293 -7.94167 -3
    endloop
  endfacet
  facet normal 0 0 -1
    outer loop
      vertex 2.83684 -7.48013 -3
      vertex 13.7533 -9.99235 -3
      vertex 0.964293 -7.94167 -3
    endloop
  endfacet
  facet normal 0 0 -1
    outer loop
      vertex 5.98809 -5.30498 -3
      vertex 15.5303 -6.91452 -3
      vertex 4.54452 -6.58387 -3
    endloop
  endfacet
  facet normal 0 0 -1
    outer loop
      vertex 7.08365 -3.71778 -3
      vertex 16.6285 -3.5345 -3
      vertex 5.98809 -5.30498 -3
    endloop
  endfacet
  facet normal 0 0 -1
    outer loop
      vertex 7.76753 -1.91452 -3
      vertex 16.6285 -3.5345 -3
      vertex 7.08365 -3.71778 -3
    endloop
  endfacet
  facet normal 0 0 -1
    outer loop
      vertex 10 -1 -3
      vertex 17 0 -3
      vertex 7.76753 -1.91452 -3
    endloop
  endfacet
  facet normal 0 0 -1
    outer loop
      vertex 7.87858 -1 -3
      vertex 10 -1 -3
      vertex 7.76753 -1.91452 -3
    endloop
  endfacet
  facet normal 0 0 -1
    outer loop
      vertex 7.87858 1 -3
      vertex 16.6285 3.5345 -3
      vertex 10 1 -3
    endloop
  endfacet
  facet normal 0 0 -1
    outer loop
      vertex 7.76753 1.91452 -3
      vertex 16.6285 3.5345 -3
      vertex 7.87858 1 -3
    endloop
  endfacet
  facet normal 0 0 -1
    outer loop
      vertex 7.08365 3.71778 -3
      vertex 15.5303 6.91452 -3
      vertex 7.76753 1.91452 -3
    endloop
  endfacet
  facet normal 0 0 -1
    outer loop
      vertex 10 1 -3
      vertex 17 0 -3
      vertex 10 -1 -3
    endloop
  endfacet
  facet normal 0 0 -1
    outer loop
      vertex 4.54452 6.58387 -3
      vertex 13.7533 9.99235 -3
      vertex 5.98809 5.30498 -3
    endloop
  endfacet
  facet normal 0 0 -1
    outer loop
      vertex 2.83684 7.48013 -3
      vertex 11.3752 12.6335 -3
      vertex 4.54452 6.58387 -3
    endloop
  endfacet
  facet normal 0 0 -1
    outer loop
      vertex 5.98809 5.30498 -3
      vertex 15.5303 6.91452 -3
      vertex 7.08365 3.71778 -3
    endloop
  endfacet
  facet normal 0 0 -1
    outer loop
      vertex -0.964293 7.94167 -3
      vertex 8.5 14.7224 -3
      vertex 0.964293 7.94167 -3
    endloop
  endfacet
  facet normal 0 0 -1
    outer loop
      vertex -2.83684 7.48013 -3
      vertex 5.25329 16.168 -3
      vertex -0.964293 7.94167 -3
    endloop
  endfacet
  facet normal 0 0 -1
    outer loop
      vertex -7.08365 3.71778 -3
      vertex -16.6285 -3.5345 -3
      vertex -5.98809 5.30498 -3
    endloop
  endfacet
  facet normal 0 0 -1
    outer loop
      vertex -4.54452 6.58387 -3
      vertex 5.25329 16.168 -3
      vertex -2.83684 7.48013 -3
    endloop
  endfacet
  facet normal 0 0 -1
    outer loop
      vertex -16.6285 -3.5345 -3
      vertex 5.25329 16.168 -3
      vertex -4.54452 6.58387 -3
    endloop
  endfacet
  facet normal 0 0 -1
    outer loop
      vertex -16.6285 -3.5345 -3
      vertex -4.54452 6.58387 -3
      vertex -5.98809 5.30498 -3
    endloop
  endfacet
  facet normal 0 0 -1
    outer loop
      vertex -7.76753 1.91452 -3
      vertex -16.6285 -3.5345 -3
      vertex -7.08365 3.71778 -3
    endloop
  endfacet
  facet normal 0 0 -1
    outer loop
      vertex -8 0 -3
      vertex -16.6285 -3.5345 -3
      vertex -7.76753 1.91452 -3
    endloop
  endfacet
  facet normal 0 0 -1
    outer loop
      vertex 0.964293 7.94167 -3
      vertex 11.3752 12.6335 -3
      vertex 2.83684 7.48013 -3
    endloop
  endfacet
  facet normal -0.994522 0.104529 0
    outer loop
      vertex -17 0 -3
      vertex -17 0 -1
      vertex -16.6285 3.5345 -3
    endloop
  endfacet
  facet normal -0.994522 0.104529 0
    outer loop
      vertex -16.6285 3.5345 -3
      vertex -17 0 -1
      vertex -16.6285 3.5345 -1
    endloop
  endfacet
  facet normal -0.994522 -0.104529 0
    outer loop
      vertex -17 0 -3
      vertex -16.6285 -3.5345 -3
      vertex -17 0 -1
    endloop
  endfacet
  facet normal -0.994522 -0.104529 0
    outer loop
      vertex -17 0 -1
      vertex -16.6285 -3.5345 -3
      vertex -16.6285 -3.5345 -1
    endloop
  endfacet
  facet normal -0.951057 -0.309017 0
    outer loop
      vertex -16.6285 -3.5345 -3
      vertex -15.5303 -6.91452 -3
      vertex -16.6285 -3.5345 -1
    endloop
  endfacet
  facet normal -0.951057 -0.309017 0
    outer loop
      vertex -16.6285 -3.5345 -1
      vertex -15.5303 -6.91452 -3
      vertex -15.5303 -6.91452 -1
    endloop
  endfacet
  facet normal -0.866025 -0.5 0
    outer loop
      vertex -15.5303 -6.91452 -3
      vertex -13.7533 -9.99235 -3
      vertex -15.5303 -6.91452 -1
    endloop
  endfacet
  facet normal -0.866025 -0.5 0
    outer loop
      vertex -15.5303 -6.91452 -1
      vertex -13.7533 -9.99235 -3
      vertex -13.7533 -9.99235 -1
    endloop
  endfacet
  facet normal -0.743145 -0.669131 0
    outer loop
      vertex -13.7533 -9.99235 -3
      vertex -11.3752 -12.6335 -3
      vertex -13.7533 -9.99235 -1
    endloop
  endfacet
  facet normal -0.743145 -0.669131 0
    outer loop
      vertex -13.7533 -9.99235 -1
      vertex -11.3752 -12.6335 -3
      vertex -11.3752 -12.6335 -1
    endloop
  endfacet
  facet normal -0.587785 -0.809017 0
    outer loop
      vertex -11.3752 -12.6335 -1
      vertex -11.3752 -12.6335 -3
      vertex -8.5 -14.7224 -3
    endloop
  endfacet
  facet normal -0.587785 -0.809017 0
    outer loop
      vertex -8.5 -14.7224 -1
      vertex -11.3752 -12.6335 -1
      vertex -8.5 -14.7224 -3
    endloop
  endfacet
  facet normal -0.406737 -0.913545 0
    outer loop
      vertex -8.5 -14.7224 -1
      vertex -8.5 -14.7224 -3
      vertex -5.25329 -16.168 -3
    endloop
  endfacet
  facet normal -0.406737 -0.913545 0
    outer loop
      vertex -5.25329 -16.168 -1
      vertex -8.5 -14.7224 -1
      vertex -5.25329 -16.168 -3
    endloop
  endfacet
  facet normal -0.207912 -0.978148 0
    outer loop
      vertex -5.25329 -16.168 -1
      vertex -5.25329 -16.168 -3
      vertex -1.77698 -16.9069 -3
    endloop
  endfacet
  facet normal -0.207912 -0.978148 0
    outer loop
      vertex -1.77698 -16.9069 -1
      vertex -5.25329 -16.168 -1
      vertex -1.77698 -16.9069 -3
    endloop
  endfacet
  facet normal 0 -1 0
    outer loop
      vertex -1.77698 -16.9069 -1
      vertex -1.77698 -16.9069 -3
      vertex 1.77698 -16.9069 -3
    endloop
  endfacet
  facet normal 0 -1 0
    outer loop
      vertex 1.77698 -16.9069 -1
      vertex -1.77698 -16.9069 -1
      vertex 1.77698 -16.9069 -3
    endloop
  endfacet
  facet normal 0.207912 -0.978148 0
    outer loop
      vertex 1.77698 -16.9069 -1
      vertex 1.77698 -16.9069 -3
      vertex 5.25329 -16.168 -3
    endloop
  endfacet
  facet normal 0.207912 -0.978148 0
    outer loop
      vertex 5.25329 -16.168 -1
      vertex 1.77698 -16.9069 -1
      vertex 5.25329 -16.168 -3
    endloop
  endfacet
  facet normal 0.406737 -0.913545 0
    outer loop
      vertex 5.25329 -16.168 -1
      vertex 5.25329 -16.168 -3
      vertex 8.5 -14.7224 -3
    endloop
  endfacet
  facet normal 0.406737 -0.913545 0
    outer loop
      vertex 8.5 -14.7224 -1
      vertex 5.25329 -16.168 -1
      vertex 8.5 -14.7224 -3
    endloop
  endfacet
  facet normal 0.587785 -0.809017 0
    outer loop
      vertex 8.5 -14.7224 -1
      vertex 8.5 -14.7224 -3
      vertex 11.3752 -12.6335 -3
    endloop
  endfacet
  facet normal 0.587785 -0.809017 0
    outer loop
      vertex 11.3752 -12.6335 -1
      vertex 8.5 -14.7224 -1
      vertex 11.3752 -12.6335 -3
    endloop
  endfacet
  facet normal 0.743145 -0.669131 0
    outer loop
      vertex 11.3752 -12.6335 -1
      vertex 11.3752 -12.6335 -3
      vertex 13.7533 -9.99235 -3
    endloop
  endfacet
  facet normal 0.743145 -0.669131 0
    outer loop
      vertex 13.7533 -9.99235 -1
      vertex 11.3752 -12.6335 -1
      vertex 13.7533 -9.99235 -3
    endloop
  endfacet
  facet normal 0.866025 -0.5 0
    outer loop
      vertex 13.7533 -9.99235 -1
      vertex 13.7533 -9.99235 -3
      vertex 15.5303 -6.91452 -3
    endloop
  endfacet
  facet normal 0.866025 -0.5 0
    outer loop
      vertex 15.5303 -6.91452 -1
      vertex 13.7533 -9.99235 -1
      vertex 15.5303 -6.91452 -3
    endloop
  endfacet
  facet normal 0.951057 -0.309017 0
    outer loop
      vertex 15.5303 -6.91452 -1
      vertex 15.5303 -6.91452 -3
      vertex 16.6285 -3.5345 -3
    endloop
  endfacet
  facet normal 0.951057 -0.309017 0
    outer loop
      vertex 16.6285 -3.5345 -1
      vertex 15.5303 -6.91452 -1
      vertex 16.6285 -3.5345 -3
    endloop
  endfacet
  facet normal 0.994522 -0.104529 0
    outer loop
      vertex 16.6285 -3.5345 -1
      vertex 16.6285 -3.5345 -3
      vertex 17 0 -3
    endloop
  endfacet
  facet normal 0.994522 -0.104529 0
    outer loop
      vertex 17 0 -1
      vertex 16.6285 -3.5345 -1
      vertex 17 0 -3
    endloop
  endfacet
  facet normal 0.994522 0.104529 0
    outer loop
      vertex 17 0 -3
      vertex 16.6285 3.5345 -3
      vertex 16.6285 3.5345 -1
    endloop
  endfacet
  facet normal 0.994522 0.104529 0
    outer loop
      vertex 17 0 -1
      vertex 17 0 -3
      vertex 16.6285 3.5345 -1
    endloop
  endfacet
  facet normal 0.951057 0.309017 0
    outer loop
      vertex 16.6285 3.5345 -3
      vertex 15.5303 6.91452 -3
      vertex 15.5303 6.91452 -1
    endloop
  endfacet
  facet normal 0.951057 0.309017 0
    outer loop
      vertex 16.6285 3.5345 -1
      vertex 16.6285 3.5345 -3
      vertex 15.5303 6.91452 -1
    endloop
  endfacet
  facet normal 0.866025 0.5 0
    outer loop
      vertex 15.5303 6.91452 -3
      vertex 13.7533 9.99235 -3
      vertex 13.7533 9.99235 -1
    endloop
  endfacet
  facet normal 0.866025 0.5 0
    outer loop
      vertex 15.5303 6.91452 -1
      vertex 15.5303 6.91452 -3
      vertex 13.7533 9.99235 -1
    endloop
  endfacet
  facet normal 0.743145 0.669131 0
    outer loop
      vertex 13.7533 9.99235 -3
      vertex 11.3752 12.6335 -3
      vertex 11.3752 12.6335 -1
    endloop
  endfacet
  facet normal 0.743145 0.669131 0
    outer loop
      vertex 13.7533 9.99235 -1
      vertex 13.7533 9.99235 -3
      vertex 11.3752 12.6335 -1
    endloop
  endfacet
  facet normal 0.587785 0.809017 0
    outer loop
      vertex 8.5 14.7224 -3
      vertex 8.5 14.7224 -1
      vertex 11.3752 12.6335 -3
    endloop
  endfacet
  facet normal 0.587785 0.809017 0
    outer loop
      vertex 11.3752 12.6335 -3
      vertex 8.5 14.7224 -1
      vertex 11.3752 12.6335 -1
    endloop
  endfacet
  facet normal 0.406737 0.913545 0
    outer loop
      vertex 5.25329 16.168 -3
      vertex 5.25329 16.168 -1
      vertex 8.5 14.7224 -3
    endloop
  endfacet
  facet normal 0.406737 0.913545 0
    outer loop
      vertex 8.5 14.7224 -3
      vertex 5.25329 16.168 -1
      vertex 8.5 14.7224 -1
    endloop
  endfacet
  facet normal 0.207912 0.978148 0
    outer loop
      vertex 1.77698 16.9069 -3
      vertex 1.77698 16.9069 -1
      vertex 5.25329 16.168 -3
    endloop
  endfacet
  facet normal 0.207912 0.978148 0
    outer loop
      vertex 5.25329 16.168 -3
      vertex 1.77698 16.9069 -1
      vertex 5.25329 16.168 -1
    endloop
  endfacet
  facet normal 0 1 0
    outer loop
      vertex -1.77698 16.9069 -3
      vertex -1.77698 16.9069 -1
      vertex 1.77698 16.9069 -3
    endloop
  endfacet
  facet normal 0 1 0
    outer loop
      vertex 1.77698 16.9069 -3
      vertex -1.77698 16.9069 -1
      vertex 1.77698 16.9069 -1
    endloop
  endfacet
  facet normal -0.207912 0.978148 0
    outer loop
      vertex -5.25329 16.168 -3
      vertex -5.25329 16.168 -1
      vertex -1.77698 16.9069 -3
    endloop
  endfacet
  facet normal -0.207912 0.978148 0
    outer loop
      vertex -1.77698 16.9069 -3
      vertex -5.25329 16.168 -1
      vertex -1.77698 16.9069 -1
    endloop
  endfacet
  facet normal -0.406737 0.913545 0
    outer loop
      vertex -8.5 14.7224 -3
      vertex -8.5 14.7224 -1
      vertex -5.25329 16.168 -3
    endloop
  endfacet
  facet normal -0.406737 0.913545 0
    outer loop
      vertex -5.25329 16.168 -3
      vertex -8.5 14.7224 -1
      vertex -5.25329 16.168 -1
    endloop
  endfacet
  facet normal -0.587785 0.809017 0
    outer loop
      vertex -11.3752 12.6335 -3
      vertex -11.3752 12.6335 -1
      vertex -8.5 14.7224 -3
    endloop
  endfacet
  facet normal -0.587785 0.809017 0
    outer loop
      vertex -8.5 14.7224 -3
      vertex -11.3752 12.6335 -1
      vertex -8.5 14.7224 -1
    endloop
  endfacet
  facet normal -0.743145 0.669131 0
    outer loop
      vertex -13.7533 9.99235 -3
      vertex -13.7533 9.99235 -1
      vertex -11.3752 12.6335 -3
    endloop
  endfacet
  facet normal -0.743145 0.669131 0
    outer loop
      vertex -11.3752 12.6335 -3
      vertex -13.7533 9.99235 -1
      vertex -11.3752 12.6335 -1
    endloop
  endfacet
  facet normal -0.866025 0.5 0
    outer loop
      vertex -15.5303 6.91452 -3
      vertex -15.5303 6.91452 -1
      vertex -13.7533 9.99235 -3
    endloop
  endfacet
  facet normal -0.866025 0.5 0
    outer loop
      vertex -13.7533 9.99235 -3
      vertex -15.5303 6.91452 -1
      vertex -13.7533 9.99235 -1
    endloop
  endfacet
  facet normal -0.951057 0.309017 0
    outer loop
      vertex -16.6285 3.5345 -3
      vertex -16.6285 3.5345 -1
      vertex -15.5303 6.91452 -3
    endloop
  endfacet
  facet normal -0.951057 0.309017 0
    outer loop
      vertex -15.5303 6.91452 -3
      vertex -16.6285 3.5345 -1
      vertex -15.5303 6.91452 -1
    endloop
  endfacet
  facet normal 0.992709 -0.120536 0
    outer loop
      vertex -7.76753 1.91452 -3
      vertex -7.76753 1.91452 3
      vertex -8 0 3
    endloop
  endfacet
  facet normal 0.992709 -0.120536 0
    outer loop
      vertex -8 0 -3
      vertex -7.76753 1.91452 -3
      vertex -8 0 3
    endloop
  endfacet
  facet normal 0.992709 0.120536 0
    outer loop
      vertex -8 0 3
      vertex -7.76753 -1.91452 3
      vertex -7.76753 -1.91452 -3
    endloop
  endfacet
  facet normal 0.992709 0.120536 0
    outer loop
      vertex -8 0 -3
      vertex -8 0 3
      vertex -7.76753 -1.91452 -3
    endloop
  endfacet
  facet normal 0.935016 -0.354605 0
    outer loop
      vertex -7.08365 3.71778 -3
      vertex -7.08365 3.71778 3
      vertex -7.76753 1.91452 3
    endloop
  endfacet
  facet normal 0.935016 -0.354605 0
    outer loop
      vertex -7.76753 1.91452 -3
      vertex -7.08365 3.71778 -3
      vertex -7.76753 1.91452 3
    endloop
  endfacet
  facet normal 0.822984 -0.568065 0
    outer loop
      vertex -5.98809 5.30498 -3
      vertex -5.98809 5.30498 3
      vertex -7.08365 3.71778 3
    endloop
  endfacet
  facet normal 0.822984 -0.568065 0
    outer loop
      vertex -7.08365 3.71778 -3
      vertex -5.98809 5.30498 -3
      vertex -7.08365 3.71778 3
    endloop
  endfacet
  facet normal 0.663123 -0.748511 0
    outer loop
      vertex -4.54452 6.58387 -3
      vertex -4.54452 6.58387 3
      vertex -5.98809 5.30498 3
    endloop
  endfacet
  facet normal 0.663123 -0.748511 0
    outer loop
      vertex -5.98809 5.30498 -3
      vertex -4.54452 6.58387 -3
      vertex -5.98809 5.30498 3
    endloop
  endfacet
  facet normal 0.464723 -0.885456 0
    outer loop
      vertex -2.83684 7.48013 -3
      vertex -2.83684 7.48013 3
      vertex -4.54452 6.58387 3
    endloop
  endfacet
  facet normal 0.464723 -0.885456 0
    outer loop
      vertex -4.54452 6.58387 -3
      vertex -2.83684 7.48013 -3
      vertex -4.54452 6.58387 3
    endloop
  endfacet
  facet normal 0.239316 -0.970942 0
    outer loop
      vertex -0.964293 7.94167 -3
      vertex -0.964293 7.94167 3
      vertex -2.83684 7.48013 3
    endloop
  endfacet
  facet normal 0.239316 -0.970942 0
    outer loop
      vertex -2.83684 7.48013 -3
      vertex -0.964293 7.94167 -3
      vertex -2.83684 7.48013 3
    endloop
  endfacet
  facet normal 0 -1 0
    outer loop
      vertex 0.964293 7.94167 -3
      vertex 0.964293 7.94167 3
      vertex -0.964293 7.94167 3
    endloop
  endfacet
  facet normal 0 -1 0
    outer loop
      vertex -0.964293 7.94167 -3
      vertex 0.964293 7.94167 -3
      vertex -0.964293 7.94167 3
    endloop
  endfacet
  facet normal -0.239316 -0.970942 0
    outer loop
      vertex 2.83684 7.48013 -3
      vertex 2.83684 7.48013 3
      vertex 0.964293 7.94167 3
    endloop
  endfacet
  facet normal -0.239316 -0.970942 0
    outer loop
      vertex 0.964293 7.94167 -3
      vertex 2.83684 7.48013 -3
      vertex 0.964293 7.94167 3
    endloop
  endfacet
  facet normal -0.464723 -0.885456 0
    outer loop
      vertex 4.54452 6.58387 -3
      vertex 4.54452 6.58387 3
      vertex 2.83684 7.48013 3
    endloop
  endfacet
  facet normal -0.464723 -0.885456 0
    outer loop
      vertex 2.83684 7.48013 -3
      vertex 4.54452 6.58387 -3
      vertex 2.83684 7.48013 3
    endloop
  endfacet
  facet normal -0.663123 -0.748511 0
    outer loop
      vertex 5.98809 5.30498 -3
      vertex 5.98809 5.30498 3
      vertex 4.54452 6.58387 3
    endloop
  endfacet
  facet normal -0.663123 -0.748511 0
    outer loop
      vertex 4.54452 6.58387 -3
      vertex 5.98809 5.30498 -3
      vertex 4.54452 6.58387 3
    endloop
  endfacet
  facet normal -0.822984 -0.568065 0
    outer loop
      vertex 7.08365 3.71778 3
      vertex 5.98809 5.30498 3
      vertex 7.08365 3.71778 -3
    endloop
  endfacet
  facet normal -0.822984 -0.568065 0
    outer loop
      vertex 7.08365 3.71778 -3
      vertex 5.98809 5.30498 3
      vertex 5.98809 5.30498 -3
    endloop
  endfacet
  facet normal -0.935016 -0.354605 0
    outer loop
      vertex 7.76753 1.91452 3
      vertex 7.08365 3.71778 3
      vertex 7.76753 1.91452 -3
    endloop
  endfacet
  facet normal -0.935016 -0.354605 0
    outer loop
      vertex 7.76753 1.91452 -3
      vertex 7.08365 3.71778 3
      vertex 7.08365 3.71778 -3
    endloop
  endfacet
  facet normal -0.992709 -0.120536 0
    outer loop
      vertex 7.87858 1 3
      vertex 7.76753 1.91452 3
      vertex 7.87858 1 -3
    endloop
  endfacet
  facet normal -0.992709 -0.120536 0
    outer loop
      vertex 7.87858 1 -3
      vertex 7.76753 1.91452 3
      vertex 7.76753 1.91452 -3
    endloop
  endfacet
  facet normal 0 -1 0
    outer loop
      vertex 10 1 -3
      vertex 10 1 3
      vertex 7.87858 1 3
    endloop
  endfacet
  facet normal 0 -1 0
    outer loop
      vertex 7.87858 1 -3
      vertex 10 1 -3
      vertex 7.87858 1 3
    endloop
  endfacet
  facet normal -1 0 0
    outer loop
      vertex 10 1 3
      vertex 10 1 -3
      vertex 10 -1 3
    endloop
  endfacet
  facet normal -1 0 0
    outer loop
      vertex 10 -1 3
      vertex 10 1 -3
      vertex 10 -1 -3
    endloop
  endfacet
  facet normal 0 1 0
    outer loop
      vertex 10 -1 3
      vertex 10 -1 -3
      vertex 7.87858 -1 3
    endloop
  endfacet
  facet normal 0 1 0
    outer loop
      vertex 7.87858 -1 3
      vertex 10 -1 -3
      vertex 7.87858 -1 -3
    endloop
  endfacet
  facet normal -0.992709 0.120536 0
    outer loop
      vertex 7.87858 -1 3
      vertex 7.87858 -1 -3
      vertex 7.76753 -1.91452 3
    endloop
  endfacet
  facet normal -0.992709 0.120536 0
    outer loop
      vertex 7.76753 -1.91452 3
      vertex 7.87858 -1 -3
      vertex 7.76753 -1.91452 -3
    endloop
  endfacet
  facet normal -0.935016 0.354605 0
    outer loop
      vertex 7.76753 -1.91452 3
      vertex 7.76753 -1.91452 -3
      vertex 7.08365 -3.71778 3
    endloop
  endfacet
  facet normal -0.935016 0.354605 0
    outer loop
      vertex 7.08365 -3.71778 3
      vertex 7.76753 -1.91452 -3
      vertex 7.08365 -3.71778 -3
    endloop
  endfacet
  facet normal -0.822984 0.568065 0
    outer loop
      vertex 7.08365 -3.71778 3
      vertex 7.08365 -3.71778 -3
      vertex 5.98809 -5.30498 3
    endloop
  endfacet
  facet normal -0.822984 0.568065 0
    outer loop
      vertex 5.98809 -5.30498 3
      vertex 7.08365 -3.71778 -3
      vertex 5.98809 -5.30498 -3
    endloop
  endfacet
  facet normal -0.663123 0.748511 0
    outer loop
      vertex 5.98809 -5.30498 3
      vertex 5.98809 -5.30498 -3
      vertex 4.54452 -6.58387 3
    endloop
  endfacet
  facet normal -0.663123 0.748511 0
    outer loop
      vertex 4.54452 -6.58387 3
      vertex 5.98809 -5.30498 -3
      vertex 4.54452 -6.58387 -3
    endloop
  endfacet
  facet normal -0.464723 0.885456 0
    outer loop
      vertex 4.54452 -6.58387 3
      vertex 4.54452 -6.58387 -3
      vertex 2.83684 -7.48013 3
    endloop
  endfacet
  facet normal -0.464723 0.885456 0
    outer loop
      vertex 2.83684 -7.48013 3
      vertex 4.54452 -6.58387 -3
      vertex 2.83684 -7.48013 -3
    endloop
  endfacet
  facet normal -0.239316 0.970942 0
    outer loop
      vertex 2.83684 -7.48013 3
      vertex 2.83684 -7.48013 -3
      vertex 0.964293 -7.94167 3
    endloop
  endfacet
  facet normal -0.239316 0.970942 0
    outer loop
      vertex 0.964293 -7.94167 3
      vertex 2.83684 -7.48013 -3
      vertex 0.964293 -7.94167 -3
    endloop
  endfacet
  facet normal 0 1 0
    outer loop
      vertex 0.964293 -7.94167 3
      vertex 0.964293 -7.94167 -3
      vertex -0.964293 -7.94167 3
    endloop
  endfacet
  facet normal 0 1 0
    outer loop
      vertex -0.964293 -7.94167 3
      vertex 0.964293 -7.94167 -3
      vertex -0.964293 -7.94167 -3
    endloop
  endfacet
  facet normal 0.239316 0.970942 0
    outer loop
      vertex -0.964293 -7.94167 3
      vertex -0.964293 -7.94167 -3
      vertex -2.83684 -7.48013 3
    endloop
  endfacet
  facet normal 0.239316 0.970942 0
    outer loop
      vertex -2.83684 -7.48013 3
      vertex -0.964293 -7.94167 -3
      vertex -2.83684 -7.48013 -3
    endloop
  endfacet
  facet normal 0.464723 0.885456 0
    outer loop
      vertex -2.83684 -7.48013 3
      vertex -2.83684 -7.48013 -3
      vertex -4.54452 -6.58387 3
    endloop
  endfacet
  facet normal 0.464723 0.885456 0
    outer loop
      vertex -4.54452 -6.58387 3
      vertex -2.83684 -7.48013 -3
      vertex -4.54452 -6.58387 -3
    endloop
  endfacet
  facet normal 0.663123 0.748511 0
    outer loop
      vertex -4.54452 -6.58387 3
      vertex -4.54452 -6.58387 -3
      vertex -5.98809 -5.30498 3
    endloop
  endfacet
  facet normal 0.663123 0.748511 0
    outer loop
      vertex -5.98809 -5.30498 3
      vertex -4.54452 -6.58387 -3
      vertex -5.98809 -5.30498 -3
    endloop
  endfacet
  facet normal 0.822984 0.568065 0
    outer loop
      vertex -7.08365 -3.71778 3
      vertex -5.98809 -5.30498 3
      vertex -5.98809 -5.30498 -3
    endloop
  endfacet
  facet normal 0.822984 0.568065 0
    outer loop
      vertex -7.08365 -3.71778 -3
      vertex -7.08365 -3.71778 3
      vertex -5.98809 -5.30498 -3
    endloop
  endfacet
  facet normal 0.935016 0.354605 0
    outer loop
      vertex -7.76753 -1.91452 3
      vertex -7.08365 -3.71778 3
      vertex -7.08365 -3.71778 -3
    endloop
  endfacet
  facet normal 0.935016 0.354605 0
    outer loop
      vertex -7.76753 -1.91452 -3
      vertex -7.76753 -1.91452 3
      vertex -7.08365 -3.71778 -3
    endloop
  endfacet
  facet normal 0 0 1
    outer loop
      vertex -16.6285 -3.5345 -1
      vertex -15.5303 -6.91452 -1
      vertex -13.7533 -9.99235 -1
    endloop
  endfacet
  facet normal 0 0 1
    outer loop
      vertex -8.5 -14.7224 -1
      vertex -16.6285 -3.5345 -1
      vertex -11.3752 -12.6335 -1
    endloop
  endfacet
  facet normal 0 0 1
    outer loop
      vertex -11.3752 -12.6335 -1
      vertex -16.6285 -3.5345 -1
      vertex -13.7533 -9.99235 -1
    endloop
  endfacet
  facet normal 0 0 1
    outer loop
      vertex -12.1353 -8.81678 -1
      vertex -16.6285 -3.5345 -1
      vertex -8.5 -14.7224 -1
    endloop
  endfacet
  facet normal 0 0 1
    outer loop
      vertex -7.5 -12.9904 -1
      vertex -10.037 -11.1472 -1
      vertex -5.25329 -16.168 -1
    endloop
  endfacet
  facet normal 0 0 1
    outer loop
      vertex -4.63525 -14.2658 -1
      vertex -7.5 -12.9904 -1
      vertex -1.77698 -16.9069 -1
    endloop
  endfacet
  facet normal 0 0 1
    outer loop
      vertex 1.56793 -14.9178 -1
      vertex -1.56793 -14.9178 -1
      vertex 1.77698 -16.9069 -1
    endloop
  endfacet
  facet normal 0 0 1
    outer loop
      vertex 4.63525 -14.2658 -1
      vertex 1.56793 -14.9178 -1
      vertex 5.25329 -16.168 -1
    endloop
  endfacet
  facet normal 0 0 1
    outer loop
      vertex 7.5 -12.9904 -1
      vertex 4.63525 -14.2658 -1
      vertex 8.5 -14.7224 -1
    endloop
  endfacet
  facet normal 0 0 1
    outer loop
      vertex 10.037 -11.1472 -1
      vertex 7.5 -12.9904 -1
      vertex 11.3752 -12.6335 -1
    endloop
  endfacet
  facet normal 0 0 1
    outer loop
      vertex 12.1353 -8.81678 -1
      vertex 10.037 -11.1472 -1
      vertex 13.7533 -9.99235 -1
    endloop
  endfacet
  facet normal 0 0 1
    outer loop
      vertex 13.7032 -6.10105 -1
      vertex 12.1353 -8.81678 -1
      vertex 15.5303 -6.91452 -1
    endloop
  endfacet
  facet normal 0 0 1
    outer loop
      vertex 14.6722 -3.11867 -1
      vertex 13.7032 -6.10105 -1
      vertex 16.6285 -3.5345 -1
    endloop
  endfacet
  facet normal 0 0 1
    outer loop
      vertex 15 0 -1
      vertex 14.6722 -3.11867 -1
      vertex 17 0 -1
    endloop
  endfacet
  facet normal 0 0 1
    outer loop
      vertex -13.7032 -6.10105 -1
      vertex -14.6722 -3.11867 -1
      vertex -16.6285 -3.5345 -1
    endloop
  endfacet
  facet normal 0 0 1
    outer loop
      vertex -7.5 12.9904 -1
      vertex -4.63525 14.2658 -1
      vertex -5.25329 16.168 -1
    endloop
  endfacet
  facet normal 0 0 1
    outer loop
      vertex -12.1353 8.81678 -1
      vertex -10.037 11.1472 -1
      vertex -8.5 14.7224 -1
    endloop
  endfacet
  facet normal 0 0 1
    outer loop
      vertex -15.5303 6.91452 -1
      vertex -16.6285 -3.5345 -1
      vertex -13.7533 9.99235 -1
    endloop
  endfacet
  facet normal 0 0 1
    outer loop
      vertex -16.6285 3.5345 -1
      vertex -16.6285 -3.5345 -1
      vertex -15.5303 6.91452 -1
    endloop
  endfacet
  facet normal 0 0 1
    outer loop
      vertex -17 0 -1
      vertex -16.6285 -3.5345 -1
      vertex -16.6285 3.5345 -1
    endloop
  endfacet
  facet normal 0 0 1
    outer loop
      vertex -4.63525 14.2658 -1
      vertex -1.56793 14.9178 -1
      vertex -1.77698 16.9069 -1
    endloop
  endfacet
  facet normal 0 0 1
    outer loop
      vertex -12.1353 -8.81678 -1
      vertex -13.7032 -6.10105 -1
      vertex -16.6285 -3.5345 -1
    endloop
  endfacet
  facet normal 0 0 1
    outer loop
      vertex -13.7533 9.99235 -1
      vertex -16.6285 -3.5345 -1
      vertex -14.6722 3.11867 -1
    endloop
  endfacet
  facet normal 0 0 1
    outer loop
      vertex -13.7533 9.99235 -1
      vertex -13.7032 6.10105 -1
      vertex -11.3752 12.6335 -1
    endloop
  endfacet
  facet normal 0 0 1
    outer loop
      vertex -13.7533 9.99235 -1
      vertex -14.6722 3.11867 -1
      vertex -13.7032 6.10105 -1
    endloop
  endfacet
  facet normal 0 0 1
    outer loop
      vertex -11.3752 12.6335 -1
      vertex -12.1353 8.81678 -1
      vertex -8.5 14.7224 -1
    endloop
  endfacet
  facet normal 0 0 1
    outer loop
      vertex -13.7032 6.10105 -1
      vertex -12.1353 8.81678 -1
      vertex -11.3752 12.6335 -1
    endloop
  endfacet
  facet normal 0 0 1
    outer loop
      vertex -8.5 14.7224 -1
      vertex -10.037 11.1472 -1
      vertex -5.25329 16.168 -1
    endloop
  endfacet
  facet normal 0 0 1
    outer loop
      vertex -10.037 11.1472 -1
      vertex -7.5 12.9904 -1
      vertex -5.25329 16.168 -1
    endloop
  endfacet
  facet normal 0 0 1
    outer loop
      vertex -5.25329 16.168 -1
      vertex -4.63525 14.2658 -1
      vertex -1.77698 16.9069 -1
    endloop
  endfacet
  facet normal 0 0 1
    outer loop
      vertex 13.7032 6.10105 -1
      vertex 14.6722 3.11867 -1
      vertex 16.6285 3.5345 -1
    endloop
  endfacet
  facet normal 0 0 1
    outer loop
      vertex -1.77698 16.9069 -1
      vertex -1.56793 14.9178 -1
      vertex 1.77698 16.9069 -1
    endloop
  endfacet
  facet normal 0 0 1
    outer loop
      vertex -15 0 -1
      vertex -14.6722 3.11867 -1
      vertex -16.6285 -3.5345 -1
    endloop
  endfacet
  facet normal 0 0 1
    outer loop
      vertex 1.77698 16.9069 -1
      vertex 1.56793 14.9178 -1
      vertex 5.25329 16.168 -1
    endloop
  endfacet
  facet normal 0 0 1
    outer loop
      vertex 5.25329 16.168 -1
      vertex 4.63525 14.2658 -1
      vertex 8.5 14.7224 -1
    endloop
  endfacet
  facet normal 0 0 1
    outer loop
      vertex 8.5 14.7224 -1
      vertex 7.5 12.9904 -1
      vertex 11.3752 12.6335 -1
    endloop
  endfacet
  facet normal 0 0 1
    outer loop
      vertex 11.3752 12.6335 -1
      vertex 10.037 11.1472 -1
      vertex 13.7533 9.99235 -1
    endloop
  endfacet
  facet normal 0 0 1
    outer loop
      vertex 13.7533 9.99235 -1
      vertex 12.1353 8.81678 -1
      vertex 15.5303 6.91452 -1
    endloop
  endfacet
  facet normal 0 0 1
    outer loop
      vertex 15.5303 6.91452 -1
      vertex 13.7032 6.10105 -1
      vertex 16.6285 3.5345 -1
    endloop
  endfacet
  facet normal 0 0 1
    outer loop
      vertex 16.6285 3.5345 -1
      vertex 14.6722 3.11867 -1
      vertex 17 0 -1
    endloop
  endfacet
  facet normal 0 0 1
    outer loop
      vertex 14.6722 3.11867 -1
      vertex 15 0 -1
      vertex 17 0 -1
    endloop
  endfacet
  facet normal 0 0 1
    outer loop
      vertex 17 0 -1
      vertex 14.6722 -3.11867 -1
      vertex 16.6285 -3.5345 -1
    endloop
  endfacet
  facet normal 0 0 1
    outer loop
      vertex 16.6285 -3.5345 -1
      vertex 13.7032 -6.10105 -1
      vertex 15.5303 -6.91452 -1
    endloop
  endfacet
  facet normal 0 0 1
    outer loop
      vertex 15.5303 -6.91452 -1
      vertex 12.1353 -8.81678 -1
      vertex 13.7533 -9.99235 -1
    endloop
  endfacet
  facet normal 0 0 1
    outer loop
      vertex 13.7533 -9.99235 -1
      vertex 10.037 -11.1472 -1
      vertex 11.3752 -12.6335 -1
    endloop
  endfacet
  facet normal 0 0 1
    outer loop
      vertex 11.3752 -12.6335 -1
      vertex 7.5 -12.9904 -1
      vertex 8.5 -14.7224 -1
    endloop
  endfacet
  facet normal 0 0 1
    outer loop
      vertex 8.5 -14.7224 -1
      vertex 4.63525 -14.2658 -1
      vertex 5.25329 -16.168 -1
    endloop
  endfacet
  facet normal 0 0 1
    outer loop
      vertex 5.25329 -16.168 -1
      vertex 1.56793 -14.9178 -1
      vertex 1.77698 -16.9069 -1
    endloop
  endfacet
  facet normal 0 0 1
    outer loop
      vertex 1.77698 -16.9069 -1
      vertex -1.56793 -14.9178 -1
      vertex -1.77698 -16.9069 -1
    endloop
  endfacet
  facet normal 0 0 1
    outer loop
      vertex -1.56793 -14.9178 -1
      vertex -4.63525 -14.2658 -1
      vertex -1.77698 -16.9069 -1
    endloop
  endfacet
  facet normal 0 0 1
    outer loop
      vertex -1.77698 -16.9069 -1
      vertex -7.5 -12.9904 -1
      vertex -5.25329 -16.168 -1
    endloop
  endfacet
  facet normal 0 0 1
    outer loop
      vertex -5.25329 -16.168 -1
      vertex -10.037 -11.1472 -1
      vertex -8.5 -14.7224 -1
    endloop
  endfacet
  facet normal 0 0 1
    outer loop
      vertex -10.037 -11.1472 -1
      vertex -12.1353 -8.81678 -1
      vertex -8.5 -14.7224 -1
    endloop
  endfacet
  facet normal 0 0 1
    outer loop
      vertex -1.56793 14.9178 -1
      vertex 1.56793 14.9178 -1
      vertex 1.77698 16.9069 -1
    endloop
  endfacet
  facet normal 0 0 1
    outer loop
      vertex 1.56793 14.9178 -1
      vertex 4.63525 14.2658 -1
      vertex 5.25329 16.168 -1
    endloop
  endfacet
  facet normal 0 0 1
    outer loop
      vertex 4.63525 14.2658 -1
      vertex 7.5 12.9904 -1
      vertex 8.5 14.7224 -1
    endloop
  endfacet
  facet normal 0 0 1
    outer loop
      vertex 7.5 12.9904 -1
      vertex 10.037 11.1472 -1
      vertex 11.3752 12.6335 -1
    endloop
  endfacet
  facet normal 0 0 1
    outer loop
      vertex 10.037 11.1472 -1
      vertex 12.1353 8.81678 -1
      vertex 13.7533 9.99235 -1
    endloop
  endfacet
  facet normal 0 0 1
    outer loop
      vertex 12.1353 8.81678 -1
      vertex 13.7032 6.10105 -1
      vertex 15.5303 6.91452 -1
    endloop
  endfacet
  facet normal 0 0 1
    outer loop
      vertex -14.6722 -3.11867 -1
      vertex -15 0 -1
      vertex -16.6285 -3.5345 -1
    endloop
  endfacet
  facet normal 0 0 1
    outer loop
      vertex -14.6722 3.11867 3
      vertex -15 0 3
      vertex -14.6722 -3.11867 3
    endloop
  endfacet
  facet normal 0 0 1
    outer loop
      vertex -12.1353 -8.81678 3
      vertex -14.6722 3.11867 3
      vertex -13.7032 -6.10105 3
    endloop
  endfacet
  facet normal 0 0 1
    outer loop
      vertex -13.7032 -6.10105 3
      vertex -14.6722 3.11867 3
      vertex -14.6722 -3.11867 3
    endloop
  endfacet
  facet normal 0 0 1
    outer loop
      vertex -10.037 -11.1472 3
      vertex -14.6722 3.11867 3
      vertex -12.1353 -8.81678 3
    endloop
  endfacet
  facet normal 0 0 1
    outer loop
      vertex -7.5 -12.9904 3
      vertex -14.6722 3.11867 3
      vertex -10.037 -11.1472 3
    endloop
  endfacet
  facet normal 0 0 1
    outer loop
      vertex -4.63525 -14.2658 3
      vertex -14.6722 3.11867 3
      vertex -7.5 -12.9904 3
    endloop
  endfacet
  facet normal 0 0 1
    outer loop
      vertex -1.56793 -14.9178 3
      vertex -14.6722 3.11867 3
      vertex -4.63525 -14.2658 3
    endloop
  endfacet
  facet normal 0 0 1
    outer loop
      vertex 1.56793 -14.9178 3
      vertex -14.6722 3.11867 3
      vertex -1.56793 -14.9178 3
    endloop
  endfacet
  facet normal 0 0 1
    outer loop
      vertex -5.98809 -5.30498 3
      vertex -14.6722 3.11867 3
      vertex 1.56793 -14.9178 3
    endloop
  endfacet
  facet normal 0 0 1
    outer loop
      vertex 4.63525 14.2658 3
      vertex -14.6722 3.11867 3
      vertex 7.5 12.9904 3
    endloop
  endfacet
  facet normal 0 0 1
    outer loop
      vertex 1.56793 14.9178 3
      vertex -14.6722 3.11867 3
      vertex 4.63525 14.2658 3
    endloop
  endfacet
  facet normal 0 0 1
    outer loop
      vertex -1.56793 14.9178 3
      vertex -14.6722 3.11867 3
      vertex 1.56793 14.9178 3
    endloop
  endfacet
  facet normal 0 0 1
    outer loop
      vertex -4.63525 14.2658 3
      vertex -14.6722 3.11867 3
      vertex -1.56793 14.9178 3
    endloop
  endfacet
  facet normal 0 0 1
    outer loop
      vertex -7.5 12.9904 3
      vertex -14.6722 3.11867 3
      vertex -4.63525 14.2658 3
    endloop
  endfacet
  facet normal 0 0 1
    outer loop
      vertex -10.037 11.1472 3
      vertex -14.6722 3.11867 3
      vertex -7.5 12.9904 3
    endloop
  endfacet
  facet normal 0 0 1
    outer loop
      vertex -12.1353 8.81678 3
      vertex -14.6722 3.11867 3
      vertex -10.037 11.1472 3
    endloop
  endfacet
  facet normal 0 0 1
    outer loop
      vertex -13.7032 6.10105 3
      vertex -14.6722 3.11867 3
      vertex -12.1353 8.81678 3
    endloop
  endfacet
  facet normal 0 0 1
    outer loop
      vertex -2.83684 -7.48013 3
      vertex -4.54452 -6.58387 3
      vertex 4.63525 -14.2658 3
    endloop
  endfacet
  facet normal 0 0 1
    outer loop
      vertex 0.964293 -7.94167 3
      vertex -0.964293 -7.94167 3
      vertex 7.5 -12.9904 3
    endloop
  endfacet
  facet normal 0 0 1
    outer loop
      vertex -7.08365 3.71778 3
      vertex -5.98809 5.30498 3
      vertex -14.6722 3.11867 3
    endloop
  endfacet
  facet normal 0 0 1
    outer loop
      vertex 5.98809 5.30498 3
      vertex 7.08365 3.71778 3
      vertex 13.7032 6.10105 3
    endloop
  endfacet
  facet normal 0 0 1
    outer loop
      vertex 10 1 3
      vertex 10 -1 3
      vertex 15 0 3
    endloop
  endfacet
  facet normal 0 0 1
    outer loop
      vertex 0.964293 7.94167 3
      vertex 2.83684 7.48013 3
      vertex 10.037 11.1472 3
    endloop
  endfacet
  facet normal 0 0 1
    outer loop
      vertex 7.5 12.9904 3
      vertex -14.6722 3.11867 3
      vertex -4.54452 6.58387 3
    endloop
  endfacet
  facet normal 0 0 1
    outer loop
      vertex 7.5 12.9904 3
      vertex -2.83684 7.48013 3
      vertex 10.037 11.1472 3
    endloop
  endfacet
  facet normal 0 0 1
    outer loop
      vertex 7.5 12.9904 3
      vertex -4.54452 6.58387 3
      vertex -2.83684 7.48013 3
    endloop
  endfacet
  facet normal 0 0 1
    outer loop
      vertex -2.83684 7.48013 3
      vertex -0.964293 7.94167 3
      vertex 10.037 11.1472 3
    endloop
  endfacet
  facet normal 0 0 1
    outer loop
      vertex 2.83684 7.48013 3
      vertex 4.54452 6.58387 3
      vertex 12.1353 8.81678 3
    endloop
  endfacet
  facet normal 0 0 1
    outer loop
      vertex -0.964293 7.94167 3
      vertex 0.964293 7.94167 3
      vertex 10.037 11.1472 3
    endloop
  endfacet
  facet normal 0 0 1
    outer loop
      vertex 10.037 11.1472 3
      vertex 2.83684 7.48013 3
      vertex 12.1353 8.81678 3
    endloop
  endfacet
  facet normal 0 0 1
    outer loop
      vertex 12.1353 8.81678 3
      vertex 4.54452 6.58387 3
      vertex 13.7032 6.10105 3
    endloop
  endfacet
  facet normal 0 0 1
    outer loop
      vertex 4.54452 6.58387 3
      vertex 5.98809 5.30498 3
      vertex 13.7032 6.10105 3
    endloop
  endfacet
  facet normal 0 0 1
    outer loop
      vertex -5.98809 5.30498 3
      vertex -4.54452 6.58387 3
      vertex -14.6722 3.11867 3
    endloop
  endfacet
  facet normal 0 0 1
    outer loop
      vertex 13.7032 6.10105 3
      vertex 7.08365 3.71778 3
      vertex 14.6722 3.11867 3
    endloop
  endfacet
  facet normal 0 0 1
    outer loop
      vertex 14.6722 3.11867 3
      vertex 7.76753 1.91452 3
      vertex 15 0 3
    endloop
  endfacet
  facet normal 0 0 1
    outer loop
      vertex 5.98809 -5.30498 3
      vertex 4.54452 -6.58387 3
      vertex 12.1353 -8.81678 3
    endloop
  endfacet
  facet normal 0 0 1
    outer loop
      vertex 7.08365 3.71778 3
      vertex 7.76753 1.91452 3
      vertex 14.6722 3.11867 3
    endloop
  endfacet
  facet normal 0 0 1
    outer loop
      vertex 7.76753 1.91452 3
      vertex 10 1 3
      vertex 15 0 3
    endloop
  endfacet
  facet normal 0 0 1
    outer loop
      vertex 7.76753 1.91452 3
      vertex 7.87858 1 3
      vertex 10 1 3
    endloop
  endfacet
  facet normal 0 0 1
    outer loop
      vertex 15 0 3
      vertex 10 -1 3
      vertex 14.6722 -3.11867 3
    endloop
  endfacet
  facet normal 0 0 1
    outer loop
      vertex 10 -1 3
      vertex 7.87858 -1 3
      vertex 14.6722 -3.11867 3
    endloop
  endfacet
  facet normal 0 0 1
    outer loop
      vertex 14.6722 -3.11867 3
      vertex 7.76753 -1.91452 3
      vertex 13.7032 -6.10105 3
    endloop
  endfacet
  facet normal 0 0 1
    outer loop
      vertex 7.76753 -1.91452 3
      vertex 7.08365 -3.71778 3
      vertex 13.7032 -6.10105 3
    endloop
  endfacet
  facet normal 0 0 1
    outer loop
      vertex 7.87858 -1 3
      vertex 7.76753 -1.91452 3
      vertex 14.6722 -3.11867 3
    endloop
  endfacet
  facet normal 0 0 1
    outer loop
      vertex 13.7032 -6.10105 3
      vertex 5.98809 -5.30498 3
      vertex 12.1353 -8.81678 3
    endloop
  endfacet
  facet normal 0 0 1
    outer loop
      vertex -7.76753 1.91452 3
      vertex -7.08365 3.71778 3
      vertex -14.6722 3.11867 3
    endloop
  endfacet
  facet normal 0 0 1
    outer loop
      vertex 12.1353 -8.81678 3
      vertex 4.54452 -6.58387 3
      vertex 10.037 -11.1472 3
    endloop
  endfacet
  facet normal 0 0 1
    outer loop
      vertex 10.037 -11.1472 3
      vertex 2.83684 -7.48013 3
      vertex 7.5 -12.9904 3
    endloop
  endfacet
  facet normal 0 0 1
    outer loop
      vertex 2.83684 -7.48013 3
      vertex 0.964293 -7.94167 3
      vertex 7.5 -12.9904 3
    endloop
  endfacet
  facet normal 0 0 1
    outer loop
      vertex 7.08365 -3.71778 3
      vertex 5.98809 -5.30498 3
      vertex 13.7032 -6.10105 3
    endloop
  endfacet
  facet normal 0 0 1
    outer loop
      vertex 7.5 -12.9904 3
      vertex -0.964293 -7.94167 3
      vertex 4.63525 -14.2658 3
    endloop
  endfacet
  facet normal 0 0 1
    outer loop
      vertex 4.63525 -14.2658 3
      vertex -4.54452 -6.58387 3
      vertex 1.56793 -14.9178 3
    endloop
  endfacet
  facet normal 0 0 1
    outer loop
      vertex -4.54452 -6.58387 3
      vertex -5.98809 -5.30498 3
      vertex 1.56793 -14.9178 3
    endloop
  endfacet
  facet normal 0 0 1
    outer loop
      vertex -0.964293 -7.94167 3
      vertex -2.83684 -7.48013 3
      vertex 4.63525 -14.2658 3
    endloop
  endfacet
  facet normal 0 0 1
    outer loop
      vertex -5.98809 -5.30498 3
      vertex -7.08365 -3.71778 3
      vertex -14.6722 3.11867 3
    endloop
  endfacet
  facet normal 0 0 1
    outer loop
      vertex -7.08365 -3.71778 3
      vertex -7.76753 -1.91452 3
      vertex -14.6722 3.11867 3
    endloop
  endfacet
  facet normal 0 0 1
    outer loop
      vertex -7.76753 -1.91452 3
      vertex -8 0 3
      vertex -14.6722 3.11867 3
    endloop
  endfacet
  facet normal 0 0 1
    outer loop
      vertex 4.54452 -6.58387 3
      vertex 2.83684 -7.48013 3
      vertex 10.037 -11.1472 3
    endloop
  endfacet
  facet normal 0 0 1
    outer loop
      vertex -8 0 3
      vertex -7.76753 1.91452 3
      vertex -14.6722 3.11867 3
    endloop
  endfacet
  facet normal -0.994522 -0.104528 0
    outer loop
      vertex -15 0 -1
      vertex -14.6722 -3.11867 -1
      vertex -15 0 3
    endloop
  endfacet
  facet normal -0.994522 -0.104528 0
    outer loop
      vertex -15 0 3
      vertex -14.6722 -3.11867 -1
      vertex -14.6722 -3.11867 3
    endloop
  endfacet
  facet normal -0.994522 0.104528 0
    outer loop
      vertex -15 0 -1
      vertex -15 0 3
      vertex -14.6722 3.11867 -1
    endloop
  endfacet
  facet normal -0.994522 0.104528 0
    outer loop
      vertex -14.6722 3.11867 -1
      vertex -15 0 3
      vertex -14.6722 3.11867 3
    endloop
  endfacet
  facet normal -0.951057 -0.309017 0
    outer loop
      vertex -14.6722 -3.11867 -1
      vertex -13.7032 -6.10105 -1
      vertex -14.6722 -3.11867 3
    endloop
  endfacet
  facet normal -0.951057 -0.309017 0
    outer loop
      vertex -14.6722 -3.11867 3
      vertex -13.7032 -6.10105 -1
      vertex -13.7032 -6.10105 3
    endloop
  endfacet
  facet normal -0.866025 -0.5 0
    outer loop
      vertex -13.7032 -6.10105 -1
      vertex -12.1353 -8.81678 -1
      vertex -13.7032 -6.10105 3
    endloop
  endfacet
  facet normal -0.866025 -0.5 0
    outer loop
      vertex -13.7032 -6.10105 3
      vertex -12.1353 -8.81678 -1
      vertex -12.1353 -8.81678 3
    endloop
  endfacet
  facet normal -0.743145 -0.669131 0
    outer loop
      vertex -12.1353 -8.81678 -1
      vertex -10.037 -11.1472 -1
      vertex -12.1353 -8.81678 3
    endloop
  endfacet
  facet normal -0.743145 -0.669131 0
    outer loop
      vertex -12.1353 -8.81678 3
      vertex -10.037 -11.1472 -1
      vertex -10.037 -11.1472 3
    endloop
  endfacet
  facet normal -0.587785 -0.809017 0
    outer loop
      vertex -10.037 -11.1472 3
      vertex -10.037 -11.1472 -1
      vertex -7.5 -12.9904 -1
    endloop
  endfacet
  facet normal -0.587785 -0.809017 0
    outer loop
      vertex -7.5 -12.9904 3
      vertex -10.037 -11.1472 3
      vertex -7.5 -12.9904 -1
    endloop
  endfacet
  facet normal -0.406737 -0.913545 0
    outer loop
      vertex -7.5 -12.9904 3
      vertex -7.5 -12.9904 -1
      vertex -4.63525 -14.2658 -1
    endloop
  endfacet
  facet normal -0.406737 -0.913545 0
    outer loop
      vertex -4.63525 -14.2658 3
      vertex -7.5 -12.9904 3
      vertex -4.63525 -14.2658 -1
    endloop
  endfacet
  facet normal -0.207911 -0.978148 0
    outer loop
      vertex -4.63525 -14.2658 3
      vertex -4.63525 -14.2658 -1
      vertex -1.56793 -14.9178 -1
    endloop
  endfacet
  facet normal -0.207911 -0.978148 0
    outer loop
      vertex -1.56793 -14.9178 3
      vertex -4.63525 -14.2658 3
      vertex -1.56793 -14.9178 -1
    endloop
  endfacet
  facet normal 0 -1 0
    outer loop
      vertex -1.56793 -14.9178 3
      vertex -1.56793 -14.9178 -1
      vertex 1.56793 -14.9178 -1
    endloop
  endfacet
  facet normal 0 -1 0
    outer loop
      vertex 1.56793 -14.9178 3
      vertex -1.56793 -14.9178 3
      vertex 1.56793 -14.9178 -1
    endloop
  endfacet
  facet normal 0.207911 -0.978148 0
    outer loop
      vertex 1.56793 -14.9178 3
      vertex 1.56793 -14.9178 -1
      vertex 4.63525 -14.2658 -1
    endloop
  endfacet
  facet normal 0.207911 -0.978148 0
    outer loop
      vertex 4.63525 -14.2658 3
      vertex 1.56793 -14.9178 3
      vertex 4.63525 -14.2658 -1
    endloop
  endfacet
  facet normal 0.406737 -0.913545 0
    outer loop
      vertex 4.63525 -14.2658 3
      vertex 4.63525 -14.2658 -1
      vertex 7.5 -12.9904 -1
    endloop
  endfacet
  facet normal 0.406737 -0.913545 0
    outer loop
      vertex 7.5 -12.9904 3
      vertex 4.63525 -14.2658 3
      vertex 7.5 -12.9904 -1
    endloop
  endfacet
  facet normal 0.587785 -0.809017 0
    outer loop
      vertex 7.5 -12.9904 3
      vertex 7.5 -12.9904 -1
      vertex 10.037 -11.1472 -1
    endloop
  endfacet
  facet normal 0.587785 -0.809017 0
    outer loop
      vertex 10.037 -11.1472 3
      vertex 7.5 -12.9904 3
      vertex 10.037 -11.1472 -1
    endloop
  endfacet
  facet normal 0.743145 -0.669131 0
    outer loop
      vertex 10.037 -11.1472 3
      vertex 10.037 -11.1472 -1
      vertex 12.1353 -8.81678 -1
    endloop
  endfacet
  facet normal 0.743145 -0.669131 0
    outer loop
      vertex 12.1353 -8.81678 3
      vertex 10.037 -11.1472 3
      vertex 12.1353 -8.81678 -1
    endloop
  endfacet
  facet normal 0.866025 -0.5 0
    outer loop
      vertex 12.1353 -8.81678 3
      vertex 12.1353 -8.81678 -1
      vertex 13.7032 -6.10105 -1
    endloop
  endfacet
  facet normal 0.866025 -0.5 0
    outer loop
      vertex 13.7032 -6.10105 3
      vertex 12.1353 -8.81678 3
      vertex 13.7032 -6.10105 -1
    endloop
  endfacet
  facet normal 0.951057 -0.309017 0
    outer loop
      vertex 13.7032 -6.10105 3
      vertex 13.7032 -6.10105 -1
      vertex 14.6722 -3.11867 -1
    endloop
  endfacet
  facet normal 0.951057 -0.309017 0
    outer loop
      vertex 14.6722 -3.11867 3
      vertex 13.7032 -6.10105 3
      vertex 14.6722 -3.11867 -1
    endloop
  endfacet
  facet normal 0.994522 -0.104528 0
    outer loop
      vertex 14.6722 -3.11867 3
      vertex 14.6722 -3.11867 -1
      vertex 15 0 -1
    endloop
  endfacet
  facet normal 0.994522 -0.104528 0
    outer loop
      vertex 15 0 3
      vertex 14.6722 -3.11867 3
      vertex 15 0 -1
    endloop
  endfacet
  facet normal 0.994522 0.104528 0
    outer loop
      vertex 15 0 -1
      vertex 14.6722 3.11867 -1
      vertex 14.6722 3.11867 3
    endloop
  endfacet
  facet normal 0.994522 0.104528 0
    outer loop
      vertex 15 0 3
      vertex 15 0 -1
      vertex 14.6722 3.11867 3
    endloop
  endfacet
  facet normal 0.951057 0.309017 0
    outer loop
      vertex 14.6722 3.11867 -1
      vertex 13.7032 6.10105 -1
      vertex 13.7032 6.10105 3
    endloop
  endfacet
  facet normal 0.951057 0.309017 0
    outer loop
      vertex 14.6722 3.11867 3
      vertex 14.6722 3.11867 -1
      vertex 13.7032 6.10105 3
    endloop
  endfacet
  facet normal 0.866025 0.5 0
    outer loop
      vertex 13.7032 6.10105 -1
      vertex 12.1353 8.81678 -1
      vertex 12.1353 8.81678 3
    endloop
  endfacet
  facet normal 0.866025 0.5 0
    outer loop
      vertex 13.7032 6.10105 3
      vertex 13.7032 6.10105 -1
      vertex 12.1353 8.81678 3
    endloop
  endfacet
  facet normal 0.743145 0.669131 0
    outer loop
      vertex 12.1353 8.81678 -1
      vertex 10.037 11.1472 -1
      vertex 10.037 11.1472 3
    endloop
  endfacet
  facet normal 0.743145 0.669131 0
    outer loop
      vertex 12.1353 8.81678 3
      vertex 12.1353 8.81678 -1
      vertex 10.037 11.1472 3
    endloop
  endfacet
  facet normal 0.587785 0.809017 0
    outer loop
      vertex 7.5 12.9904 -1
      vertex 7.5 12.9904 3
      vertex 10.037 11.1472 -1
    endloop
  endfacet
  facet normal 0.587785 0.809017 0
    outer loop
      vertex 10.037 11.1472 -1
      vertex 7.5 12.9904 3
      vertex 10.037 11.1472 3
    endloop
  endfacet
  facet normal 0.406737 0.913545 0
    outer loop
      vertex 4.63525 14.2658 -1
      vertex 4.63525 14.2658 3
      vertex 7.5 12.9904 -1
    endloop
  endfacet
  facet normal 0.406737 0.913545 0
    outer loop
      vertex 7.5 12.9904 -1
      vertex 4.63525 14.2658 3
      vertex 7.5 12.9904 3
    endloop
  endfacet
  facet normal 0.207911 0.978148 0
    outer loop
      vertex 1.56793 14.9178 -1
      vertex 1.56793 14.9178 3
      vertex 4.63525 14.2658 -1
    endloop
  endfacet
  facet normal 0.207911 0.978148 0
    outer loop
      vertex 4.63525 14.2658 -1
      vertex 1.56793 14.9178 3
      vertex 4.63525 14.2658 3
    endloop
  endfacet
  facet normal 0 1 0
    outer loop
      vertex -1.56793 14.9178 -1
      vertex -1.56793 14.9178 3
      vertex 1.56793 14.9178 -1
    endloop
  endfacet
  facet normal 0 1 0
    outer loop
      vertex 1.56793 14.9178 -1
      vertex -1.56793 14.9178 3
      vertex 1.56793 14.9178 3
    endloop
  endfacet
  facet normal -0.207911 0.978148 0
    outer loop
      vertex -4.63525 14.2658 -1
      vertex -4.63525 14.2658 3
      vertex -1.56793 14.9178 -1
    endloop
  endfacet
  facet normal -0.207911 0.978148 0
    outer loop
      vertex -1.56793 14.9178 -1
      vertex -4.63525 14.2658 3
      vertex -1.56793 14.9178 3
    endloop
  endfacet
  facet normal -0.406737 0.913545 0
    outer loop
      vertex -7.5 12.9904 -1
      vertex -7.5 12.9904 3
      vertex -4.63525 14.2658 -1
    endloop
  endfacet
  facet normal -0.406737 0.913545 0
    outer loop
      vertex -4.63525 14.2658 -1
      vertex -7.5 12.9904 3
      vertex -4.63525 14.2658 3
    endloop
  endfacet
  facet normal -0.587785 0.809017 0
    outer loop
      vertex -10.037 11.1472 -1
      vertex -10.037 11.1472 3
      vertex -7.5 12.9904 -1
    endloop
  endfacet
  facet normal -0.587785 0.809017 0
    outer loop
      vertex -7.5 12.9904 -1
      vertex -10.037 11.1472 3
      vertex -7.5 12.9904 3
    endloop
  endfacet
  facet normal -0.743145 0.669131 0
    outer loop
      vertex -12.1353 8.81678 -1
      vertex -12.1353 8.81678 3
      vertex -10.037 11.1472 -1
    endloop
  endfacet
  facet normal -0.743145 0.669131 0
    outer loop
      vertex -10.037 11.1472 -1
      vertex -12.1353 8.81678 3
      vertex -10.037 11.1472 3
    endloop
  endfacet
  facet normal -0.866025 0.5 0
    outer loop
      vertex -13.7032 6.10105 -1
      vertex -13.7032 6.10105 3
      vertex -12.1353 8.81678 -1
    endloop
  endfacet
  facet normal -0.866025 0.5 0
    outer loop
      vertex -12.1353 8.81678 -1
      vertex -13.7032 6.10105 3
      vertex -12.1353 8.81678 3
    endloop
  endfacet
  facet normal -0.951057 0.309017 0
    outer loop
      vertex -14.6722 3.11867 -1
      vertex -14.6722 3.11867 3
      vertex -13.7032 6.10105 -1
    endloop
  endfacet
  facet normal -0.951057 0.309017 0
    outer loop
      vertex -13.7032 6.10105 -1
      vertex -14.6722 3.11867 3
      vertex -13.7032 6.10105 3
    endloop
  endfacet
endsolid OpenSCAD_Model
